<svg width="22" height="22" viewBox="0 0 22 22" fill="none" xmlns="http://www.w3.org/2000/svg">
<g clip-path="url(#clip0_600_5519)">
<path d="M22 2.58887H16.1524V1.50262C14.4033 1.53953 13.5082 1.42622 12.9002 0H9.11324C8.45887 1.42334 7.59597 1.52539 5.84762 1.50262V2.58887H0V18.1167H8.47202L8.06334 19.9519C7.96387 20.3988 7.57453 20.7109 7.1167 20.7109H5.82227V22H16.1777V20.7109H14.8833C14.4255 20.7109 14.0361 20.3988 13.9367 19.9519L13.528 18.1167H22V2.58887ZM7.13668 2.76409C8.39588 2.65027 9.26157 2.18041 9.86068 1.28906H12.1292C12.7409 2.23743 13.6846 2.66002 14.8634 2.76508V7.98574C14.9164 9.56351 12.0082 11.4258 10.9998 11.9394C9.2672 11.0348 7.08301 9.30484 7.13672 7.98574V2.76409H7.13668ZM5.84762 3.87793V7.98574C5.78849 10.5529 9.76607 12.8173 11 13.3821C13.2209 12.3414 16.2211 10.1455 16.1524 7.98574V3.87793H20.7109V14.2388H1.28906V3.87793H5.84762ZM12.6784 20.2321C12.7159 20.4006 12.7713 20.5606 12.842 20.7109H9.15793C9.22861 20.5607 9.28409 20.4006 9.3216 20.2321L9.79266 18.1167H12.2073L12.6784 20.2321ZM1.28906 16.8276V15.5278H20.7109V16.8276H1.28906Z" fill="#DF3021"/>
<path d="M13.7994 4.98347L12.8879 4.07202L10.5012 6.45872L9.11071 5.06821L8.19922 5.97971L10.5012 8.28171L13.7994 4.98347Z" fill="#DF3021"/>
</g>
<defs>
<clipPath id="clip0_600_5519">
<rect width="22" height="22" fill="white"/>
</clipPath>
</defs>
</svg>
