<svg width="22" height="22" viewBox="0 0 22 22" fill="none" xmlns="http://www.w3.org/2000/svg">
<path d="M1.375 13.4062H3.4375V17.325C3.43803 17.8722 3.65417 18.3971 4.03906 18.7859C4.41843 19.1641 4.93003 19.3798 5.46562 19.3875H11.6531C12.5812 20.4801 13.903 21.162 15.3312 21.285H15.3828C15.5272 21.285 15.6784 21.3056 15.8263 21.3056C16.8682 21.3042 17.8883 21.0068 18.7678 20.4481C19.6473 19.8894 20.35 19.0924 20.7941 18.1498C21.2382 17.2072 21.4054 16.1579 21.2763 15.124C21.1472 14.09 20.727 13.1141 20.0647 12.3097C19.7333 11.9128 19.3466 11.5655 18.9166 11.2784C18.7435 11.1608 18.5632 11.054 18.3769 10.9587V5.115C18.3772 5.00726 18.3512 4.90108 18.3013 4.80562L18.2841 4.77125C18.2536 4.71958 18.2179 4.6712 18.1775 4.62687L14.4581 0.890312C14.4207 0.854532 14.3792 0.823371 14.3344 0.7975L14.2828 0.766563C14.2392 0.748619 14.1944 0.733688 14.1488 0.721875L14.0594 0.6875H13.9734H6.875C6.69266 0.6875 6.5178 0.759933 6.38886 0.888864C6.25993 1.0178 6.1875 1.19266 6.1875 1.375V2.75H2.75C2.20299 2.75 1.67839 2.9673 1.29159 3.35409C0.904798 3.74089 0.6875 4.26549 0.6875 4.8125V12.7188C0.6875 12.9011 0.759933 13.076 0.888864 13.2049C1.0178 13.3338 1.19266 13.4062 1.375 13.4062ZM14.6609 4.40344V3.02844L16.0359 4.40344H14.6609ZM7.5625 2.0625H13.2859V5.0875C13.2859 5.26984 13.3584 5.44471 13.4873 5.57364C13.6162 5.70257 13.7911 5.775 13.9734 5.775H17.0019V10.4397C16.6111 10.3547 16.2124 10.3121 15.8125 10.3125C15.1931 10.3136 14.5783 10.4194 13.9941 10.6253L14.1763 10.3194C14.2463 10.1643 14.2564 9.9887 14.2045 9.82661C14.1526 9.66451 14.0424 9.52743 13.8953 9.44189C13.7482 9.35634 13.5745 9.32842 13.408 9.36351C13.2415 9.39861 13.0939 9.49423 12.9937 9.63188L11.9384 11.4056C11.8455 11.5624 11.8186 11.7498 11.8637 11.9264C11.9088 12.103 12.0223 12.2545 12.1791 12.3475L13.9528 13.3994C14.1096 13.4923 14.2969 13.5192 14.4736 13.4741C14.6502 13.429 14.8017 13.3155 14.8947 13.1587C14.9877 13.0019 15.0145 12.8146 14.9694 12.638C14.9243 12.4614 14.8109 12.3099 14.6541 12.2169L14.2828 11.9969C14.9099 11.7463 15.5888 11.6535 16.2601 11.7267C16.9314 11.7998 17.5744 12.0366 18.1328 12.4162C18.4546 12.6346 18.743 12.8986 18.9888 13.2C19.4825 13.8033 19.7951 14.5341 19.8905 15.3078C19.9859 16.0815 19.8601 16.8664 19.5277 17.5715C19.1953 18.2766 18.6699 18.8731 18.0123 19.2919C17.3548 19.7106 16.592 19.9345 15.8125 19.9375C15.7129 19.9426 15.6131 19.9426 15.5134 19.9375H15.4688C14.9262 19.893 14.3979 19.7405 13.915 19.4891C13.4322 19.2376 13.0044 18.8922 12.6569 18.4731C12.6106 18.3514 12.5308 18.2453 12.4266 18.1672L12.4059 18.1431C11.9353 17.4573 11.6847 16.6443 11.6875 15.8125C11.6875 15.6302 11.6151 15.4553 11.4861 15.3264C11.3572 15.1974 11.1823 15.125 11 15.125C10.8177 15.125 10.6428 15.1974 10.5139 15.3264C10.3849 15.4553 10.3125 15.6302 10.3125 15.8125C10.3136 16.5711 10.4716 17.3213 10.7766 18.0159H7.43188V17.9747C7.46002 17.8891 7.48297 17.8018 7.50062 17.7134C7.50063 17.6859 7.50062 17.655 7.50062 17.6241C7.51289 17.5386 7.51977 17.4525 7.52125 17.3663C7.52125 17.3663 7.52125 17.3422 7.52125 17.3284L7.5625 2.0625ZM6.1875 4.125V17.325C6.18829 17.4611 6.14864 17.5944 6.07359 17.708C5.99853 17.8216 5.89144 17.9104 5.76589 17.963C5.64034 18.0157 5.50198 18.0298 5.36836 18.0038C5.23474 17.9777 5.11186 17.9125 5.01531 17.8166C4.95056 17.7522 4.89928 17.6756 4.86446 17.5912C4.82964 17.5068 4.81197 17.4163 4.8125 17.325V4.8125C4.81188 4.70537 4.80268 4.59847 4.785 4.49281C4.785 4.47562 4.785 4.46188 4.785 4.44469C4.76668 4.34564 4.74141 4.248 4.70937 4.1525C4.70937 4.1525 4.70937 4.13531 4.70937 4.125H6.1875ZM2.0625 4.8125C2.0625 4.63016 2.13493 4.4553 2.26386 4.32636C2.3928 4.19743 2.56766 4.125 2.75 4.125C2.93234 4.125 3.1072 4.19743 3.23614 4.32636C3.36507 4.4553 3.4375 4.63016 3.4375 4.8125V12.0312H2.0625V4.8125Z" fill="#DF3021"/>
<path d="M13.9727 16.8438H16.1555C16.3378 16.8438 16.5127 16.7713 16.6416 16.6424C16.7705 16.5135 16.843 16.3386 16.843 16.1562V13.4062C16.843 13.2239 16.7705 13.049 16.6416 12.9201C16.5127 12.7912 16.3378 12.7188 16.1555 12.7188C15.9731 12.7188 15.7983 12.7912 15.6693 12.9201C15.5404 13.049 15.468 13.2239 15.468 13.4062V15.4688H13.9727C13.7903 15.4688 13.6155 15.5412 13.4865 15.6701C13.3576 15.799 13.2852 15.9739 13.2852 16.1562C13.2852 16.3386 13.3576 16.5135 13.4865 16.6424C13.6155 16.7713 13.7903 16.8438 13.9727 16.8438Z" fill="#DF3021"/>
</svg>
