<svg width="22" height="22" viewBox="0 0 22 22" fill="none" xmlns="http://www.w3.org/2000/svg">
<path d="M17.574 6.89175H8.77625L6.85787 5.38672H0V19.2422C0 20.3589 0.907805 21.2913 2.02411 21.3204L17.2573 21.329H17.2585C18.1812 21.3289 18.9942 20.7072 19.236 19.8167L21.9823 9.69817H17.574V6.89175ZM2.18121 20.0289L2.04938 20.0288V20.029C1.6378 20.0138 1.29157 19.6553 1.29157 19.2422V6.67829H6.41172L8.3301 8.18332H16.2825V9.69821H5.7649L3.17857 19.2186C3.05315 19.6803 2.65035 20.0031 2.18121 20.0289ZM20.2934 10.9898L17.9894 19.4784C17.9001 19.8076 17.5996 20.0374 17.2585 20.0374C17.2583 20.0374 17.2582 20.0374 17.258 20.0374L4.24153 20.0301C4.31791 19.8818 4.37977 19.7237 4.42502 19.5573L6.75248 10.9898H20.2934Z" fill="#DF3021"/>
<path d="M15.8713 1.96252C17.3133 1.96252 18.5317 2.93438 18.9083 4.25717L18.1426 3.6624L17.3503 4.68236L19.675 6.48807L21.9997 4.68236L21.2073 3.6624L20.2617 4.39696C19.9151 2.2864 18.0785 0.670898 15.8713 0.670898C13.4179 0.670898 11.4219 2.6669 11.4219 5.12033H12.7135C12.7135 3.37912 14.1301 1.96252 15.8713 1.96252Z" fill="#DF3021"/>
<path d="M8.07031 18.7356L8.0716 17.444L15.8692 17.4518L15.8679 18.7434L8.07031 18.7356Z" fill="#DF3021"/>
</svg>
