<svg width="21" height="19" viewBox="0 0 21 19" fill="none" xmlns="http://www.w3.org/2000/svg">
<path d="M20.9608 11.6288C20.9606 11.6109 20.9598 11.5928 20.9581 11.5748C20.9577 11.5706 20.9571 11.5668 20.9568 11.5626C20.9548 11.5463 20.9524 11.5301 20.9492 11.5138C20.9486 11.5102 20.9478 11.5067 20.947 11.503C20.9438 11.4885 20.9399 11.4739 20.9358 11.4595C20.9342 11.4539 20.9324 11.4481 20.9307 11.4425C20.926 11.4282 20.9209 11.414 20.9151 11.3999L20.9137 11.3962C20.913 11.3946 20.9124 11.3931 20.9118 11.3917L17.2237 2.37642C17.2235 2.37578 17.2232 2.37514 17.2229 2.37466C17.2202 2.36793 17.2171 2.36168 17.2141 2.35511C17.2094 2.34502 17.2048 2.33492 17.1997 2.32515C17.1963 2.31874 17.1928 2.31249 17.1893 2.30624C17.1833 2.29583 17.1771 2.28574 17.1707 2.27564C17.1676 2.27084 17.1644 2.26587 17.1612 2.26106C17.1511 2.24632 17.1406 2.23206 17.1293 2.21845C17.1287 2.21764 17.1281 2.217 17.1274 2.2162C17.1165 2.20322 17.1051 2.19073 17.0933 2.17871C17.0896 2.17503 17.0859 2.1715 17.0822 2.16782C17.0728 2.15868 17.0632 2.15003 17.0532 2.14154C17.0489 2.13786 17.0447 2.13417 17.0404 2.13081C17.0286 2.12119 17.0164 2.11206 17.0039 2.10341C17.0016 2.10181 16.9994 2.10004 16.997 2.09844C16.9829 2.08899 16.9683 2.08034 16.9536 2.07201C16.9475 2.06864 16.9414 2.0656 16.9353 2.06255C16.9255 2.05759 16.9156 2.05278 16.9057 2.04829C16.8989 2.04525 16.8922 2.04221 16.8853 2.03948C16.8736 2.03468 16.8616 2.03051 16.8496 2.02634C16.8435 2.02442 16.8376 2.02218 16.8315 2.02042C16.8163 2.01577 16.8007 2.01176 16.785 2.0084C16.7788 2.00712 16.7724 2.006 16.766 2.00488C16.7535 2.00247 16.741 2.00055 16.7282 1.99895C16.7222 1.99831 16.7163 1.99751 16.7104 1.99702C16.6918 1.99526 16.6732 1.99414 16.6545 1.99414H12.844C12.5702 0.933983 11.6055 0.148438 10.4611 0.148438C9.31651 0.148438 8.35184 0.933983 8.07803 1.99414H4.26774C4.24883 1.99414 4.23025 1.99526 4.21166 1.99702C4.20557 1.99751 4.19965 1.99831 4.19372 1.99895C4.18106 2.00055 4.1684 2.00247 4.15591 2.00472C4.1495 2.006 4.14325 2.00696 4.13684 2.0084C4.1213 2.01176 4.10576 2.01577 4.09054 2.02026C4.08429 2.02218 4.07836 2.02426 4.07227 2.02634C4.06026 2.03035 4.0484 2.03468 4.03671 2.03932C4.02982 2.04221 4.02309 2.04509 4.01636 2.04813C4.00626 2.05262 3.99649 2.05743 3.98672 2.06239C3.98063 2.0656 3.97438 2.06864 3.96845 2.07201C3.95355 2.08034 3.93897 2.08899 3.92487 2.09844C3.92263 2.10004 3.92039 2.10181 3.91798 2.10341C3.90549 2.11206 3.89331 2.12119 3.88145 2.13065C3.87713 2.13417 3.87296 2.13786 3.8688 2.14138C3.85886 2.14987 3.84925 2.15868 3.8398 2.16782C3.83611 2.17134 3.83227 2.17487 3.82874 2.17855C3.81689 2.19073 3.80551 2.20306 3.79462 2.2162C3.79398 2.21684 3.79333 2.21764 3.79269 2.21828C3.78148 2.23206 3.7709 2.24632 3.76081 2.26106C3.75745 2.26571 3.7544 2.27068 3.7512 2.27564C3.74479 2.28558 3.73854 2.29583 3.73277 2.30608C3.72909 2.31233 3.72572 2.31858 3.72236 2.32499C3.71723 2.33492 3.71243 2.34502 3.70778 2.35511C3.7049 2.36152 3.70169 2.36793 3.69897 2.3745C3.69881 2.37514 3.69849 2.37578 3.69817 2.37642L0.0101242 11.3915C0.00948335 11.3931 0.00900269 11.3946 0.00836182 11.396L0.00675966 11.3999C0.000991799 11.4138 -0.00397491 11.4282 -0.0086212 11.4425C-0.0105438 11.4481 -0.012146 11.4539 -0.0139084 11.4595C-0.018074 11.4739 -0.0219192 11.4885 -0.0249634 11.503C-0.0257645 11.5066 -0.0265655 11.5102 -0.0273666 11.5138C-0.0304107 11.53 -0.032814 11.5463 -0.0347366 11.5626C-0.0352173 11.5666 -0.0356979 11.5706 -0.0361786 11.5747C-0.0377808 11.5928 -0.0387421 11.6109 -0.0389023 11.6288C-0.0389023 11.6302 -0.0390625 11.6315 -0.0390625 11.6328C-0.0390625 13.7813 1.89284 15.5293 4.26758 15.5293C6.64232 15.5293 8.57422 13.7813 8.57422 11.6328C8.57422 11.6314 8.57406 11.6301 8.57406 11.6288C8.5739 11.6109 8.57294 11.5928 8.57133 11.5747C8.57085 11.5706 8.57037 11.5666 8.56989 11.5626C8.56797 11.5463 8.56557 11.53 8.56252 11.5138C8.56172 11.5102 8.56092 11.5066 8.56012 11.503C8.55708 11.4885 8.55323 11.4739 8.54906 11.4595C8.5473 11.4539 8.5457 11.4481 8.54378 11.4425C8.53913 11.4282 8.53416 11.414 8.5284 11.3999L8.52679 11.396C8.52615 11.3946 8.52567 11.3931 8.52503 11.3915L5.18402 3.22461H8.07787C8.30105 4.08818 8.98229 4.76942 9.8457 4.99245V17.6621H7.58984C7.25018 17.6621 6.97461 17.9375 6.97461 18.2773C6.97461 18.6172 7.25018 18.8926 7.58984 18.8926H13.332C13.6719 18.8926 13.9473 18.6172 13.9473 18.2773C13.9473 17.9375 13.6719 17.6621 13.332 17.6621H11.0762V4.99245C11.9397 4.76926 12.621 4.08818 12.844 3.22461H15.7379L12.3968 11.3917C12.3962 11.3931 12.3957 11.3947 12.3949 11.3962L12.3935 11.3999C12.3877 11.414 12.3827 11.4282 12.3779 11.4426C12.3762 11.4482 12.3746 11.4539 12.3728 11.4595C12.3686 11.474 12.3648 11.4885 12.3616 11.5032C12.3608 11.5067 12.3602 11.5102 12.3594 11.5139C12.3561 11.5301 12.3537 11.5465 12.352 11.5628C12.3515 11.5668 12.3509 11.5708 12.3505 11.5748C12.3488 11.5928 12.348 11.6109 12.3478 11.629C12.3478 11.6302 12.3477 11.6315 12.3477 11.6328C12.3477 13.7813 14.2796 15.5293 16.6543 15.5293C19.0289 15.5293 20.9609 13.7813 20.9609 11.6328C20.9611 11.6315 20.9608 11.6302 20.9608 11.6288ZM4.26774 14.2988C2.81569 14.2988 1.59547 13.4226 1.27424 12.248H7.26124C6.93984 13.4226 5.71963 14.2988 4.26774 14.2988ZM1.49261 11.0176L4.26774 4.2343L7.0427 11.0176H1.49261ZM10.4611 3.83984C9.78258 3.83984 9.23063 3.2879 9.23063 2.60938C9.23063 1.93085 9.78258 1.37891 10.4611 1.37891C11.1395 1.37891 11.6916 1.93085 11.6916 2.60938C11.6916 3.2879 11.1395 3.83984 10.4611 3.83984ZM16.6545 4.2343L19.4294 11.0176H13.8793L16.6545 4.2343ZM16.6545 14.2988C15.2024 14.2988 13.9822 13.4226 13.661 12.248H19.648C19.3266 13.4226 18.1063 14.2988 16.6545 14.2988Z" fill="#DF3021"/>
</svg>
