<svg width="52" height="46" viewBox="0 0 52 46" fill="none" xmlns="http://www.w3.org/2000/svg">
<path d="M31.1096 36.8214C29.8091 37.3668 29.2638 38.9189 29.8511 40.1773L31.9066 44.498C32.4939 45.7141 33.9201 46.2599 35.1786 45.7141C38.7442 44.204 41.8065 42.2324 44.2395 39.8413C47.2179 37.0312 49.2314 33.8011 50.3221 30.2355C51.4127 26.6275 52 21.7199 52 15.4696L52 2.59132C52 1.20701 50.8674 0.0743979 49.4831 0.0743978L32.9973 0.0743964C31.6129 0.0743963 30.4803 1.20701 30.4803 2.59132L30.4803 19.0771C30.4803 20.4619 31.6129 21.5941 32.9972 21.5941L40.8836 21.5941C40.7997 25.8313 39.7929 29.2287 37.9472 31.788C36.437 33.8427 34.1718 35.5206 31.1096 36.8214Z" fill="#DF3021"/>
<path d="M1.49379 36.8215C0.193381 37.3668 -0.351531 38.9189 0.235329 40.1774L2.29082 44.4557C2.8781 45.6722 4.30435 46.2175 5.56281 45.6722C9.0865 44.1621 12.1072 42.1905 14.5818 39.8413C17.5606 36.9888 19.6156 33.7588 20.7067 30.1932C21.7974 26.6699 22.3423 21.7615 22.3423 15.4692L22.3423 2.59092C22.3423 1.20662 21.2097 0.0740012 19.8254 0.0740011L3.33954 0.0739997C1.95523 0.0739995 0.822615 1.20661 0.822615 2.59092L0.822613 19.0767C0.822613 20.4615 1.95523 21.5937 3.33953 21.5937L11.2678 21.5937C11.1839 25.8309 10.1767 29.2283 8.33143 31.7876C6.82127 33.8427 4.55604 35.5206 1.49379 36.8215Z" fill="#DF3021"/>
</svg>
