<?xml version="1.0" encoding="utf-8"?>
<!-- Generator: Adobe Illustrator 27.0.0, SVG Export Plug-In . SVG Version: 6.00 Build 0)  -->
<svg version="1.1" id="Слой_1" xmlns="http://www.w3.org/2000/svg" xmlns:xlink="http://www.w3.org/1999/xlink" x="0px" y="0px"
	 viewBox="0 0 19.5 21" style="enable-background:new 0 0 19.5 21;" xml:space="preserve">
<style type="text/css">
	.st0{fill:#FFFFFF;}
</style>
<path class="st0" d="M5.6,13.8h11.6c1.3,0,2.4-1.1,2.4-2.4V6.6c0,0,0,0,0,0c0,0,0,0,0,0c0,0,0,0,0,0c0,0,0,0,0,0c0,0,0,0,0,0
	c0,0,0,0,0,0c0,0,0,0,0,0c0,0,0,0,0,0c0,0,0,0,0,0c0,0,0,0,0,0c0,0,0,0,0,0s0,0,0,0c0,0,0,0,0,0c0,0,0,0,0,0c0,0,0,0,0,0
	c0,0,0,0,0,0c0,0,0,0,0,0c0,0,0,0,0,0c0,0,0,0,0,0c0,0,0,0,0,0c0,0,0,0,0,0c0,0,0,0,0,0c0,0,0,0,0,0c0,0,0,0,0,0c0,0,0,0,0,0
	c0,0,0,0,0,0c0,0,0,0,0,0c0,0,0,0,0,0c0,0,0,0,0,0c0,0,0,0,0,0L4.3,4v-2c0,0,0,0,0-0.1c0,0,0,0,0,0c0,0,0,0,0,0c0,0,0,0,0,0
	c0,0,0,0,0,0c0,0,0,0,0,0c0,0,0,0,0,0c0,0,0,0,0,0c0,0,0,0,0,0c0,0,0,0,0,0c0,0,0,0,0,0c0,0,0,0,0,0c0,0,0,0,0,0c0,0,0,0,0,0
	c0,0,0,0,0,0c0,0,0,0,0,0c0,0,0,0,0,0c0,0,0,0,0,0c0,0,0,0,0,0c0,0,0,0,0,0c0,0,0,0,0,0c0,0,0,0-0.1,0L0.8,0C0.5-0.1,0.2,0.1,0,0.4
	c-0.1,0.3,0,0.6,0.3,0.8l2.8,1.2V5v0.4v3.2v2.9v3.6c0,1.2,0.9,2.2,2.1,2.4c-0.2,0.4-0.3,0.8-0.3,1.2C4.9,19.9,6,21,7.3,21
	s2.4-1.1,2.4-2.4c0-0.4-0.1-0.8-0.3-1.2h5.2c-0.2,0.3-0.3,0.8-0.3,1.2c0,1.3,1.1,2.4,2.4,2.4s2.4-1.1,2.4-2.4s-1.1-2.4-2.4-2.4h-11
	c-0.7,0-1.2-0.5-1.2-1.2v-1.6C4.7,13.7,5.1,13.8,5.6,13.8z M8.5,18.6c0,0.7-0.5,1.2-1.2,1.2c-0.7,0-1.2-0.5-1.2-1.2
	c0-0.7,0.5-1.2,1.2-1.2C7.9,17.5,8.5,18,8.5,18.6z M17.8,18.6c0,0.7-0.5,1.2-1.2,1.2c-0.7,0-1.2-0.5-1.2-1.2c0-0.7,0.5-1.2,1.2-1.2
	C17.2,17.5,17.8,18,17.8,18.6z M17.1,12.7H5.6c-0.7,0-1.2-0.5-1.2-1.2V8.6V5.4V5.1l14,1.9v4.4C18.4,12.1,17.8,12.7,17.1,12.7z"/>
</svg>
