<?xml version="1.0" encoding="utf-8"?>
<!-- Generator: Adobe Illustrator 27.0.0, SVG Export Plug-In . SVG Version: 6.00 Build 0)  -->
<svg version="1.1" id="Слой_1" xmlns="http://www.w3.org/2000/svg" xmlns:xlink="http://www.w3.org/1999/xlink" x="0px" y="0px"
	 viewBox="0 0 18 13.4" style="enable-background:new 0 0 18 13.4;" xml:space="preserve">
<path d="M1.1,8.8C0.5,8.8,0,9.3,0,9.9C0,10.5,0.5,11,1.1,11h2.8l-0.5,0.5c-0.4,0.4-0.4,1.1,0,1.5c0.2,0.2,0.5,0.3,0.8,0.3
	c0.3,0,0.6-0.1,0.8-0.3l2-2h10c0.6,0,1.1-0.5,1.1-1.1c0-0.6-0.5-1.1-1.1-1.1H9.1L12,6h5C17.5,6,18,5.5,18,4.9c0-0.6-0.5-1.1-1.1-1.1
	h-2.8l2-2c0.4-0.4,0.4-1.1,0-1.5c-0.4-0.4-1.1-0.4-1.5,0l-3.5,3.5h-10C0.5,3.8,0,4.3,0,4.9C0,5.5,0.5,6,1.1,6h7.8L6,8.8H1.1z"/>
</svg>
