<svg width="20" height="20" viewBox="0 0 20 20" fill="none" xmlns="http://www.w3.org/2000/svg">
<path fill-rule="evenodd" clip-rule="evenodd" d="M19.6 10.2273C19.6 9.51825 19.5364 8.83643 19.4182 8.18188H10V12.0501H15.3818C15.15 13.3001 14.4455 14.3592 13.3864 15.0683V17.5774H16.6182C18.5091 15.8364 19.6 13.2728 19.6 10.2273Z" fill="#4285F4"/>
<path fill-rule="evenodd" clip-rule="evenodd" d="M9.99888 19.9999C12.6989 19.9999 14.9625 19.1045 16.6171 17.5772L13.3853 15.0681C12.4898 15.6681 11.3443 16.0226 9.99888 16.0226C7.39433 16.0226 5.18978 14.2635 4.40342 11.8999H1.0625V14.4908C2.70796 17.759 6.08978 19.9999 9.99888 19.9999Z" fill="#34A853"/>
<path fill-rule="evenodd" clip-rule="evenodd" d="M4.40455 11.9C4.20455 11.3 4.09092 10.659 4.09092 9.99995C4.09092 9.34086 4.20455 8.69995 4.40455 8.09995V5.50903H1.06364C0.386364 6.85904 0 8.38631 0 9.99995C0 11.6136 0.386364 13.1409 1.06364 14.4909L4.40455 11.9Z" fill="#FBBC05"/>
<path fill-rule="evenodd" clip-rule="evenodd" d="M9.99888 3.97728C11.4671 3.97728 12.7853 4.48183 13.8216 5.47274L16.6898 2.60455C14.958 0.990911 12.6943 0 9.99888 0C6.08978 0 2.70796 2.24091 1.0625 5.5091L4.40342 8.10002C5.18978 5.73638 7.39433 3.97728 9.99888 3.97728Z" fill="#EA4335"/>
</svg>
