<svg>
	<symbol version="1.1" id="catalog" xmlns="http://www.w3.org/2000/svg" xmlns:xlink="http://www.w3.org/1999/xlink" x="0px" y="0px"
	 viewBox="0 0 22.8 22.1" style="enable-background:new 0 0 22.8 22.1;" xml:space="preserve">
		<style type="text/css">
			.st0{fill:#FFFFFF;}
		</style>
		<path class="st0" d="M7.2,22.1H2.4c-1.4,0-2.4-1.1-2.4-2.4v-4.8c0-1.4,1.1-2.4,2.4-2.4h4.8c1.3,0,2.4,1.1,2.4,2.4v4.8
			C9.6,21.1,8.6,22.1,7.2,22.1z M2.4,14.4c-0.3,0-0.5,0.2-0.5,0.5v4.8c0,0.3,0.2,0.5,0.5,0.5h4.8c0.3,0,0.5-0.2,0.5-0.5v-4.8
			c0-0.3-0.2-0.5-0.5-0.5H2.4z M7.2,10.5H2.4C1.1,10.5,0,9.5,0,8.1V3.3C0,2,1.1,0.9,2.4,0.9h4.8c1.3,0,2.4,1.1,2.4,2.4v4.8
			C9.6,9.5,8.6,10.5,7.2,10.5z M2.4,2.8C2.1,2.8,1.9,3,1.9,3.3v4.8c0,0.3,0.2,0.5,0.5,0.5h4.8c0.3,0,0.5-0.2,0.5-0.5V3.3
			c0-0.3-0.2-0.5-0.5-0.5H2.4z"/>
		<path class="st0" d="M19.3,21.7h-4.8c-1.3,0-2.4-1.1-2.4-2.4v-4.8c0-1.3,1.1-2.4,2.4-2.4h4.8c1.4,0,2.4,1.1,2.4,2.4v4.8
			C21.7,20.6,20.7,21.7,19.3,21.7z M14.5,13.9c-0.3,0-0.5,0.2-0.5,0.5v4.8c0,0.3,0.2,0.5,0.5,0.5h4.8c0.3,0,0.5-0.2,0.5-0.5v-4.8
			c0-0.3-0.2-0.5-0.5-0.5H14.5z"/>
		<path class="st0" d="M22,7.5l-3.4,3.4c-1,1-2.5,1-3.4,0l-3.4-3.4c-1-1-1-2.5,0-3.4l3.4-3.4c1-1,2.5-1,3.4,0L22,4.1
			C23,5.1,23,6.6,22,7.5z M13.2,5.5C13,5.7,13,6,13.2,6.2l3.4,3.4c0.2,0.2,0.5,0.2,0.7,0l3.4-3.4c0.2-0.2,0.2-0.5,0-0.7l-3.4-3.4
			c-0.2-0.2-0.5-0.2-0.7,0L13.2,5.5z"/>
	</symbol>

	<symbol version="1.1" id="home" xmlns="http://www.w3.org/2000/svg" xmlns:xlink="http://www.w3.org/1999/xlink" x="0px" y="0px"
	 viewBox="0 0 21 16.7" style="enable-background:new 0 0 21 16.7;" xml:space="preserve">
		<style type="text/css">
			.st0{fill:#BDBCBC;}
		</style>
		<path class="st0" d="M10.5,3.4L3,9.5c0,0,0,0,0,0c0,0,0,0,0,0v6.3c0,0.2,0.1,0.4,0.2,0.6c0.2,0.2,0.4,0.2,0.6,0.2h5v-5h3.3v5h5
			c0.2,0,0.4-0.1,0.6-0.2c0.2-0.2,0.2-0.4,0.2-0.6V9.6c0,0,0-0.1,0-0.1L10.5,3.4z"/>
		<path class="st0" d="M20.9,8.1L18,5.8V0.5c0-0.1,0-0.2-0.1-0.3C17.8,0.1,17.7,0,17.6,0h-2.5c-0.1,0-0.2,0-0.3,0.1
			c-0.1,0.1-0.1,0.2-0.1,0.3V3l-3.2-2.7c-0.3-0.2-0.6-0.3-1-0.3c-0.4,0-0.7,0.1-1,0.3L0.1,8.1C0.1,8.2,0,8.3,0,8.4
			c0,0.1,0,0.2,0.1,0.3l0.8,1C1,9.8,1.1,9.8,1.2,9.8c0.1,0,0.2,0,0.3-0.1l9-7.5l9,7.5c0.1,0.1,0.2,0.1,0.3,0.1h0
			c0.1,0,0.2-0.1,0.3-0.1l0.8-1C21,8.6,21,8.5,21,8.4C21,8.3,20.9,8.2,20.9,8.1z"/>
	</symbol>

	<symbol version="1.1" id="search" xmlns="http://www.w3.org/2000/svg" xmlns:xlink="http://www.w3.org/1999/xlink" x="0px" y="0px"
	 viewBox="0 0 18.5 18.1" style="enable-background:new 0 0 18.5 18.1;" xml:space="preserve">
		<style type="text/css">
			.st0{fill:#BCBCBC;stroke:#BCBCBC;stroke-width:0.5;}
		</style>
		<path class="st0" d="M18.1,16.7L18.1,16.7l-4.5-4.4c1.1-1.3,1.7-2.9,1.7-4.7c0-4.1-3.4-7.4-7.5-7.4c-4.2,0-7.5,3.3-7.5,7.4
			c0,4.1,3.4,7.4,7.5,7.4c1.8,0,3.5-0.6,4.8-1.7l4.5,4.4c0.1,0.1,0.3,0.2,0.5,0.2c0.2,0,0.4-0.1,0.5-0.2C18.4,17.4,18.4,17,18.1,16.7z
			M14,7.6c0,3.3-2.8,6-6.2,6c-3.4,0-6.2-2.7-6.2-6c0-3.3,2.8-6,6.2-6C11.2,1.6,14,4.3,14,7.6z"/>
	</symbol>

	<symbol version="1.1" id="voice" xmlns="http://www.w3.org/2000/svg" xmlns:xlink="http://www.w3.org/1999/xlink" x="0px" y="0px"
	 viewBox="0 0 13.2 19" style="enable-background:new 0 0 13.2 19;" xml:space="preserve">
		<path d="M6.6,13.2c-1,0-1.9-0.4-2.6-1.1c-0.7-0.7-1.1-1.6-1.1-2.6V3.7c0-1,0.4-1.9,1.1-2.6C4.7,0.4,5.6,0,6.6,0c1,0,1.9,0.4,2.6,1.1
			c0.7,0.7,1.1,1.6,1.1,2.6v5.8c0,1-0.4,1.9-1.1,2.6C8.4,12.8,7.6,13.2,6.6,13.2z"/>
		<path d="M0.2,7.5c0.1-0.1,0.3-0.2,0.5-0.2c0.2,0,0.4,0.1,0.5,0.2C1.4,7.7,1.5,7.8,1.5,8v1.5c0,1.4,0.5,2.6,1.5,3.6
			c1,1,2.2,1.5,3.6,1.5c1.4,0,2.6-0.5,3.6-1.5c1-1,1.5-2.2,1.5-3.6V8c0-0.2,0.1-0.4,0.2-0.5c0.1-0.1,0.3-0.2,0.5-0.2
			c0.2,0,0.4,0.1,0.5,0.2c0.1,0.1,0.2,0.3,0.2,0.5v1.5c0,1.7-0.6,3.1-1.7,4.4c-1.1,1.2-2.5,2-4.2,2.1v1.5h2.9c0.2,0,0.4,0.1,0.5,0.2
			c0.1,0.1,0.2,0.3,0.2,0.5c0,0.2-0.1,0.4-0.2,0.5c-0.1,0.1-0.3,0.2-0.5,0.2H2.9c-0.2,0-0.4-0.1-0.5-0.2c-0.1-0.1-0.2-0.3-0.2-0.5
			c0-0.2,0.1-0.4,0.2-0.5c0.1-0.1,0.3-0.2,0.5-0.2h2.9V16c-1.7-0.2-3-0.9-4.2-2.1S0,11.2,0,9.5V8C0,7.8,0.1,7.7,0.2,7.5z"/>
	</symbol>

	<symbol version="1.1" id="arrow" xmlns="http://www.w3.org/2000/svg" xmlns:xlink="http://www.w3.org/1999/xlink" x="0px" y="0px"
	 viewBox="0 0 10 5.7" style="enable-background:new 0 0 10 5.7;" xml:space="preserve">
		<style type="text/css">
			.st0{fill:#FFFFFF;}
		</style>
		<path class="st0" d="M4.5,5.5L0.2,1.2c-0.3-0.3-0.3-0.7,0-1c0.3-0.3,0.7-0.3,1,0L5,4l3.8-3.8c0.3-0.3,0.7-0.3,1,0
			c0.3,0.3,0.3,0.7,0,1L5.5,5.5C5.4,5.6,5.2,5.7,5,5.7C4.8,5.7,4.6,5.6,4.5,5.5z"/>
	</symbol>

	<symbol version="1.1" id="arrow-long" xmlns="http://www.w3.org/2000/svg" xmlns:xlink="http://www.w3.org/1999/xlink" x="0px" y="0px"
	 viewBox="0 0 10.5 7.4" style="enable-background:new 0 0 10.5 7.4;" xml:space="preserve">
		<style type="text/css">
			.st0{fill:#DF3021;}
		</style>
		<path class="st0" d="M10.4,4c0.2-0.2,0.2-0.5,0-0.7L7.2,0.1C7,0,6.7,0,6.5,0.1c-0.2,0.2-0.2,0.5,0,0.7l2.8,2.8L6.5,6.5
			C6.3,6.7,6.3,7,6.5,7.2c0.2,0.2,0.5,0.2,0.7,0L10.4,4z M0,4.2h10v-1H0V4.2z"/>
	</symbol>

	<symbol version="1.1" id="cart" xmlns="http://www.w3.org/2000/svg" xmlns:xlink="http://www.w3.org/1999/xlink" x="0px" y="0px"
	 viewBox="0 0 19.5 21" style="enable-background:new 0 0 19.5 21;" xml:space="preserve">
		<style type="text/css">
			.st0{fill:#FFFFFF;}
		</style>
		<path class="st0" d="M5.6,13.8h11.6c1.3,0,2.4-1.1,2.4-2.4V6.6c0,0,0,0,0,0c0,0,0,0,0,0c0,0,0,0,0,0c0,0,0,0,0,0c0,0,0,0,0,0
			c0,0,0,0,0,0c0,0,0,0,0,0c0,0,0,0,0,0c0,0,0,0,0,0c0,0,0,0,0,0c0,0,0,0,0,0s0,0,0,0c0,0,0,0,0,0c0,0,0,0,0,0c0,0,0,0,0,0
			c0,0,0,0,0,0c0,0,0,0,0,0c0,0,0,0,0,0c0,0,0,0,0,0c0,0,0,0,0,0c0,0,0,0,0,0c0,0,0,0,0,0c0,0,0,0,0,0c0,0,0,0,0,0c0,0,0,0,0,0
			c0,0,0,0,0,0c0,0,0,0,0,0c0,0,0,0,0,0c0,0,0,0,0,0c0,0,0,0,0,0L4.3,4v-2c0,0,0,0,0-0.1c0,0,0,0,0,0c0,0,0,0,0,0c0,0,0,0,0,0
			c0,0,0,0,0,0c0,0,0,0,0,0c0,0,0,0,0,0c0,0,0,0,0,0c0,0,0,0,0,0c0,0,0,0,0,0c0,0,0,0,0,0c0,0,0,0,0,0c0,0,0,0,0,0c0,0,0,0,0,0
			c0,0,0,0,0,0c0,0,0,0,0,0c0,0,0,0,0,0c0,0,0,0,0,0c0,0,0,0,0,0c0,0,0,0,0,0c0,0,0,0,0,0c0,0,0,0-0.1,0L0.8,0C0.5-0.1,0.2,0.1,0,0.4
			c-0.1,0.3,0,0.6,0.3,0.8l2.8,1.2V5v0.4v3.2v2.9v3.6c0,1.2,0.9,2.2,2.1,2.4c-0.2,0.4-0.3,0.8-0.3,1.2C4.9,19.9,6,21,7.3,21
			s2.4-1.1,2.4-2.4c0-0.4-0.1-0.8-0.3-1.2h5.2c-0.2,0.3-0.3,0.8-0.3,1.2c0,1.3,1.1,2.4,2.4,2.4s2.4-1.1,2.4-2.4s-1.1-2.4-2.4-2.4h-11
			c-0.7,0-1.2-0.5-1.2-1.2v-1.6C4.7,13.7,5.1,13.8,5.6,13.8z M8.5,18.6c0,0.7-0.5,1.2-1.2,1.2c-0.7,0-1.2-0.5-1.2-1.2
			c0-0.7,0.5-1.2,1.2-1.2C7.9,17.5,8.5,18,8.5,18.6z M17.8,18.6c0,0.7-0.5,1.2-1.2,1.2c-0.7,0-1.2-0.5-1.2-1.2c0-0.7,0.5-1.2,1.2-1.2
			C17.2,17.5,17.8,18,17.8,18.6z M17.1,12.7H5.6c-0.7,0-1.2-0.5-1.2-1.2V8.6V5.4V5.1l14,1.9v4.4C18.4,12.1,17.8,12.7,17.1,12.7z"/>
	</symbol>

	<!-- <symbol version="1.1" id="cart" xmlns="http://www.w3.org/2000/svg" xmlns:xlink="http://www.w3.org/1999/xlink" x="0px" y="0px"
	 viewBox="-1 0 30 23.6" style="enable-background:new -1 0 30 23.6;" xml:space="preserve">
		<style type="text/css">
			.st0{fill:#FFFFFF;}
		</style>
		<path class="st0" d="M27.6,7.9c-0.4-0.5-0.9-0.7-1.5-0.7h-5.4l-2.9-6.7c-0.2-0.4-0.7-0.6-1.1-0.4c-0.4,0.2-0.6,0.7-0.4,1.1l2.6,6
			H9.1l2.6-6c0.2-0.4,0-0.9-0.4-1.1c-0.4-0.2-0.9,0-1.1,0.4L7.3,7.2H1.9c-0.6,0-1.2,0.3-1.5,0.7C0.1,8.4-0.1,9,0,9.5l2.9,12.6
			c0.2,0.9,1,1.5,1.9,1.5h18.4c0.9,0,1.7-0.6,1.9-1.5L28,9.5C28.1,9,27.9,8.4,27.6,7.9z M23.2,22H4.8c-0.1,0-0.3-0.1-0.3-0.2L1.6,9.2
			c0-0.1,0-0.2,0.1-0.2c0,0,0.1-0.1,0.2-0.1h4.7L6.4,9.3c-0.2,0.4,0,0.9,0.4,1.1c0.1,0,0.2,0.1,0.3,0.1c0.3,0,0.6-0.2,0.8-0.5l0.5-1.1
			h11.2l0.5,1.1c0.1,0.3,0.4,0.5,0.8,0.5c0.1,0,0.2,0,0.3-0.1c0.4-0.2,0.6-0.7,0.4-1.1l-0.2-0.5h4.7c0.1,0,0.2,0.1,0.2,0.1
			c0,0,0.1,0.1,0.1,0.2l-2.9,12.6C23.4,21.9,23.3,22,23.2,22z"/>
	</symbol> -->

	<symbol version="1.1" id="cart2" xmlns="http://www.w3.org/2000/svg" xmlns:xlink="http://www.w3.org/1999/xlink" x="0px" y="0px"
	 viewBox="0 0 24.2 26" style="enable-background:new 0 0 24.2 26;" xml:space="preserve">
		<style type="text/css">
			.st0{fill:#DF3021;}
		</style>
		<path class="st0" d="M6.9,17.1h14.3c1.6,0,2.9-1.3,2.9-2.9v-6c0,0,0,0,0,0c0,0,0,0,0,0c0,0,0,0,0,0c0,0,0,0,0,0c0,0,0,0,0,0
			c0,0,0,0,0,0c0,0,0,0,0,0c0,0,0,0,0,0c0,0,0,0,0,0c0,0,0,0,0,0c0,0,0,0,0,0c0,0,0,0,0,0c0,0,0,0,0,0c0,0,0,0,0,0c0,0,0,0,0,0
			c0,0,0,0,0,0c0,0,0,0,0,0c0,0,0,0,0,0c0,0,0,0,0,0c0,0,0,0,0,0s0,0,0,0c0,0,0,0,0,0c0,0,0,0,0,0c0,0,0,0,0,0c0,0,0,0,0,0
			c0,0,0,0,0,0c0,0,0,0,0,0c0,0,0,0,0,0c0,0,0,0,0,0c0,0,0,0,0,0L5.4,4.9V2.4c0,0,0-0.1,0-0.1c0,0,0,0,0,0c0,0,0,0,0,0c0,0,0,0,0,0
			c0,0,0,0,0,0c0,0,0,0,0,0c0,0,0,0,0,0c0,0,0,0,0,0c0,0,0,0,0,0c0,0,0,0,0,0c0,0,0,0,0,0c0,0,0,0,0,0c0,0,0,0,0,0c0,0,0,0,0,0
			c0,0,0,0,0,0c0,0,0,0,0,0c0,0,0,0,0,0c0,0,0,0,0,0c0,0,0,0,0,0c0,0,0,0,0,0c0,0,0,0,0,0c0,0,0,0-0.1,0L1,0.1c-0.4-0.2-0.8,0-0.9,0.4
			c-0.2,0.4,0,0.8,0.4,0.9l3.5,1.5v3.3v0.5v4v3.6v4.5c0,1.5,1.1,2.7,2.6,2.9c-0.3,0.4-0.4,1-0.4,1.5C6.1,24.7,7.4,26,9,26
			s2.9-1.3,2.9-2.9c0-0.5-0.1-1-0.4-1.5H18c-0.3,0.4-0.4,0.9-0.4,1.5c0,1.6,1.3,2.9,2.9,2.9c1.6,0,2.9-1.3,2.9-2.9
			c0-1.6-1.3-2.9-2.9-2.9H6.9c-0.8,0-1.5-0.7-1.5-1.5v-2C5.8,17,6.3,17.1,6.9,17.1z M10.5,23.1c0,0.8-0.7,1.5-1.5,1.5
			c-0.8,0-1.5-0.7-1.5-1.5s0.7-1.5,1.5-1.5C9.8,21.6,10.5,22.3,10.5,23.1z M22,23.1c0,0.8-0.7,1.5-1.5,1.5c-0.8,0-1.5-0.7-1.5-1.5
			s0.7-1.5,1.5-1.5C21.3,21.6,22,22.3,22,23.1z M21.2,15.7H6.9c-0.8,0-1.5-0.7-1.5-1.5v-3.6v-4V6.4l17.3,2.4v5.4
			C22.7,15,22,15.7,21.2,15.7z"/>
	</symbol>

	<symbol version="1.1" id="like" xmlns="http://www.w3.org/2000/svg" xmlns:xlink="http://www.w3.org/1999/xlink" x="0px" y="0px"
	 viewBox="-1 0 30 24.9" style="enable-background:new -1 0 30 24.9;" xml:space="preserve">
		<style type="text/css">
			.st0{fill:#FFFFFF;}
		</style>
		<path class="st0" d="M14,24.9c-0.4,0-0.8-0.1-1.1-0.4c-1.1-1-2.2-1.9-3.2-2.7l0,0c-2.8-2.4-5.3-4.5-7-6.5C0.9,13,0,10.8,0,8.4
			c0-2.3,0.8-4.4,2.2-6C3.7,0.9,5.7,0,7.8,0c1.6,0,3.1,0.5,4.4,1.5C12.9,2,13.5,2.6,14,3.4c0.5-0.7,1.1-1.3,1.8-1.9
			c1.3-1,2.8-1.5,4.4-1.5c2.2,0,4.2,0.9,5.6,2.4C27.2,4,28,6.1,28,8.4c0,2.4-0.9,4.5-2.8,6.8c-1.7,2-4.1,4.1-7,6.5
			c-1,0.8-2.1,1.8-3.2,2.7C14.8,24.8,14.4,24.9,14,24.9z M7.8,1.6c-1.7,0-3.3,0.7-4.4,1.9c-1.2,1.2-1.8,3-1.8,4.9c0,2,0.7,3.8,2.4,5.8
			c1.6,1.9,4,4,6.8,6.3l0,0c1,0.8,2.1,1.8,3.2,2.8c1.1-1,2.2-1.9,3.2-2.8c2.8-2.4,5.1-4.4,6.8-6.3c1.7-2,2.4-3.8,2.4-5.8
			c0-1.9-0.6-3.6-1.8-4.9c-1.1-1.2-2.7-1.9-4.4-1.9c-1.2,0-2.4,0.4-3.4,1.2c-0.9,0.7-1.5,1.6-1.9,2.2c-0.2,0.3-0.5,0.5-0.9,0.5
			c-0.4,0-0.7-0.2-0.9-0.5c-0.4-0.6-1-1.5-1.9-2.2C10.2,2,9.1,1.6,7.8,1.6z"/>
	</symbol>

	<symbol version="1.1" id="user" xmlns="http://www.w3.org/2000/svg" xmlns:xlink="http://www.w3.org/1999/xlink" x="0px" y="0px"
	 viewBox="0 0 28 28" style="enable-background:new 0 0 28 28;" xml:space="preserve">
		<style type="text/css">
			.st0{fill:#FFFFFF;}
		</style>
		<path class="st0" d="M23.9,18.1c-1.5-1.5-3.3-2.7-5.3-3.3c2.1-1.5,3.5-3.9,3.5-6.7C22.1,3.6,18.5,0,14,0C9.5,0,5.9,3.6,5.9,8.1
			c0,2.8,1.4,5.2,3.5,6.7c-2,0.7-3.8,1.8-5.3,3.3C1.5,20.7,0,24.3,0,28h2.2c0-6.5,5.3-11.8,11.8-11.8c6.5,0,11.8,5.3,11.8,11.8H28
			C28,24.3,26.5,20.7,23.9,18.1z M14,14c-3.3,0-5.9-2.6-5.9-5.9s2.6-5.9,5.9-5.9s5.9,2.6,5.9,5.9S17.3,14,14,14z"/>
	</symbol>

	<symbol version="1.1" id="phone" xmlns="http://www.w3.org/2000/svg" xmlns:xlink="http://www.w3.org/1999/xlink" x="0px" y="0px"
	 viewBox="0 0 16 16" style="enable-background:new 0 0 16 16;" xml:space="preserve">
		<style type="text/css">
			.st0{fill:#DF3021;}
		</style>
		<path class="st0" d="M12.6,9.9c-0.3-0.3-0.7-0.5-1.1-0.5c-0.4,0-0.8,0.2-1.2,0.5L9.3,11c-0.1,0-0.2-0.1-0.3-0.1
			c-0.1-0.1-0.2-0.1-0.3-0.2c-1-0.6-1.9-1.5-2.8-2.5C5.5,7.6,5.2,7.1,5,6.7c0.3-0.3,0.5-0.5,0.8-0.8C5.9,5.8,6,5.7,6.1,5.6
			c0.7-0.7,0.7-1.6,0-2.3L5.1,2.4C5,2.3,4.9,2.2,4.8,2.1C4.6,1.8,4.4,1.6,4.2,1.4C3.9,1.1,3.5,0.9,3,0.9c-0.4,0-0.8,0.2-1.1,0.5
			c0,0,0,0,0,0L0.7,2.6C0.3,3,0.1,3.5,0,4.2c-0.1,1,0.2,1.9,0.4,2.5C1,8.1,1.8,9.5,3,11c1.5,1.8,3.3,3.2,5.3,4.1
			c0.8,0.4,1.8,0.8,3,0.9c0.1,0,0.1,0,0.2,0c0.8,0,1.4-0.3,1.9-0.8c0,0,0,0,0,0c0.2-0.2,0.4-0.4,0.6-0.6c0.1-0.1,0.3-0.3,0.4-0.4
			c0.3-0.3,0.5-0.8,0.5-1.2c0-0.4-0.2-0.8-0.5-1.2L12.6,9.9z"/>
		<path class="st0" d="M8.6,3.8C9.5,4,10.3,4.4,11,5c0.6,0.6,1.1,1.4,1.2,2.3c0,0.2,0.2,0.4,0.4,0.4c0,0,0.1,0,0.1,0
			c0.2,0,0.4-0.3,0.4-0.5c-0.2-1.1-0.7-2-1.5-2.8c-0.8-0.8-1.7-1.3-2.8-1.5C8.5,2.9,8.3,3,8.3,3.3C8.2,3.5,8.4,3.8,8.6,3.8z"/>
		<path class="st0" d="M16,7.1c-0.3-1.8-1.1-3.4-2.4-4.6C12.3,1.1,10.7,0.3,8.9,0C8.7,0,8.4,0.1,8.4,0.4c0,0.2,0.1,0.5,0.4,0.5
			c1.6,0.3,3,1,4.2,2.2c1.1,1.1,1.9,2.6,2.2,4.2c0,0.2,0.2,0.4,0.4,0.4c0,0,0.1,0,0.1,0C15.8,7.5,16,7.3,16,7.1z"/>
	</symbol>

	<symbol version="1.1" id="phone2" xmlns="http://www.w3.org/2000/svg" xmlns:xlink="http://www.w3.org/1999/xlink" x="0px" y="0px"
	 viewBox="0 0 23.5 24.2" style="enable-background:new 0 0 23.5 24.2;" xml:space="preserve">
		<style type="text/css">
			.st0{fill:none;stroke:#DF3021;stroke-width:2;stroke-miterlimit:10;}
		</style>
		<path class="st0" d="M3.6,1.4c0,0,2.4-1,3.1,0c0,0,0.8,1.6,1.1,2.8L8.6,7L6.2,9.6c0,0,1.5,5.2,7.6,7.9l2.1-2.2l5.4,1.2
			c0,0,2.6,1,0,4.6c0,0-2.6,4.2-9,0.3c0,0-4.8-2.8-7.4-6.5c0,0-4.2-5.2-3.9-9.2C1,5.7,1.3,2.6,3.6,1.4z"/>
	</symbol>

	<symbol version="1.1" id="time" xmlns="http://www.w3.org/2000/svg" xmlns:xlink="http://www.w3.org/1999/xlink" x="0px" y="0px"
		viewBox="0 0 12 12" style="enable-background:new 0 0 12 12;" xml:space="preserve">
		<style type="text/css">
			.st0{fill:#DF3021;}
		</style>
		<path class="st0" d="M6,12c3.3,0,6-2.7,6-6S9.3,0,6,0S0,2.7,0,6S2.7,12,6,12z M5.6,2.6c0-0.2,0.2-0.4,0.4-0.4s0.4,0.2,0.4,0.4v3.2
			l2,1.6C8.6,7.5,8.6,7.8,8.5,8C8.4,8.1,8.3,8.1,8.1,8.1C8,8.1,8,8.1,7.9,8L5.7,6.3C5.6,6.3,5.6,6.1,5.6,6L5.6,2.6L5.6,2.6z"/>
	</symbol>

	<symbol version="1.1" id="close" xmlns="http://www.w3.org/2000/svg" xmlns:xlink="http://www.w3.org/1999/xlink" x="0px" y="0px"
	 viewBox="0 0 18.8 18.8" style="enable-background:new 0 0 18.8 18.8;" xml:space="preserve">
		<style type="text/css">
			.st0{fill:#FFFFFF;}
		</style>
		<path class="st0" d="M18.4,0.3c-0.5-0.5-1.2-0.5-1.6,0L9.4,7.7L2,0.3c-0.5-0.5-1.2-0.5-1.6,0s-0.5,1.2,0,1.6l7.4,7.4l-7.4,7.4
			c-0.5,0.5-0.5,1.2,0,1.6c0.2,0.2,0.5,0.3,0.8,0.3c0.3,0,0.6-0.1,0.8-0.3L9.4,11l7.4,7.4c0.2,0.2,0.5,0.3,0.8,0.3
			c0.3,0,0.6-0.1,0.8-0.3c0.5-0.5,0.5-1.2,0-1.6L11,9.4L18.4,2C18.9,1.5,18.9,0.8,18.4,0.3z"/>
	</symbol>

	<symbol version="1.1" id="chat" xmlns="http://www.w3.org/2000/svg" xmlns:xlink="http://www.w3.org/1999/xlink" x="0px" y="0px"
	 viewBox="0 0 26 22.9" style="enable-background:new 0 0 26 22.9;" xml:space="preserve">
		<style type="text/css">
			.st0{fill:#DF3021;}
		</style>
		<path class="st0" d="M24.4,17.2c2.5-3.5,2.1-8.4-1.3-11.5c-1.6-1.4-3.6-2.3-5.7-2.6c0,0,0,0,0,0C15.4,1.1,12.7,0,9.9,0
			C4.5,0,0,4,0,9.1c0,1.8,0.6,3.5,1.6,5l-1.5,4.7c-0.1,0.3,0,0.6,0.2,0.8c0.2,0.2,0.6,0.2,0.8,0.1l4.5-2.3c0.9,0.4,1.9,0.7,2.9,0.8
			c2,2.1,4.7,3.1,7.5,3.1c1.4,0,2.9-0.3,4.2-0.9l4.5,2.3c0.1,0.1,0.2,0.1,0.3,0.1c0.5,0,0.9-0.5,0.7-1L24.4,17.2z M6,15.9
			c-0.2-0.1-0.5-0.1-0.7,0l-3.2,1.6l1-3.3c0.1-0.2,0-0.5-0.1-0.7c-1-1.3-1.5-2.8-1.5-4.4c0-4.2,3.8-7.6,8.4-7.6c1.9,0,3.7,0.6,5.1,1.6
			c-4.9,0.5-8.8,4.3-8.8,9.1c0,1.5,0.4,2.9,1.1,4.2C6.9,16.3,6.4,16.1,6,15.9z M20.6,19c-0.2-0.1-0.5-0.1-0.7,0
			c-1.2,0.6-2.5,0.9-3.9,0.9c-4.6,0-8.4-3.4-8.4-7.6s3.8-7.6,8.4-7.6c4.6,0,8.4,3.4,8.4,7.6c0,1.6-0.5,3.1-1.5,4.4
			c-0.2,0.2-0.2,0.5-0.1,0.7l1,3.3L20.6,19z"/>
		<path class="st0" d="M13,12.9c0.4,0,0.8-0.3,0.8-0.8s-0.3-0.8-0.8-0.8c-0.4,0-0.8,0.3-0.8,0.8S12.6,12.9,13,12.9z"/>
		<path class="st0" d="M16,12.9c0.4,0,0.8-0.3,0.8-0.8s-0.3-0.8-0.8-0.8s-0.8,0.3-0.8,0.8S15.6,12.9,16,12.9z"/>
		<path class="st0" d="M19.1,12.9c0.4,0,0.8-0.3,0.8-0.8s-0.3-0.8-0.8-0.8s-0.8,0.3-0.8,0.8S18.7,12.9,19.1,12.9z"/>
	</symbol>

	<symbol version="1.1" id="facebook" xmlns="http://www.w3.org/2000/svg" xmlns:xlink="http://www.w3.org/1999/xlink" x="0px" y="0px"
	 viewBox="0 0 12 23" style="enable-background:new 0 0 12 23;" xml:space="preserve">
		<style type="text/css">
			.st0{fill:#FFFFFF;}
		</style>
		<path class="st0" d="M7.7,12.4h3.7L12,8.6H7.7V6.5c0-1.6,0.5-3,2-3H12V0.2C11.6,0.1,10.7,0,9,0C5.6,0,3.6,1.8,3.6,6v2.5H0v3.8h3.6
			v10.5C4.3,22.9,5,23,5.7,23c0.7,0,1.3-0.1,1.9-0.1V12.4z"/>
	</symbol>

	<symbol version="1.1" id="telegram" xmlns="http://www.w3.org/2000/svg" xmlns:xlink="http://www.w3.org/1999/xlink" x="0px" y="0px"
	 viewBox="0 0 19 17" style="enable-background:new 0 0 19 17;" xml:space="preserve">
		<style type="text/css">
			.st0{fill:#FEFEFE;}
		</style>
		<path class="st0" d="M19,0.6l-3,15.7c0,0-0.4,1.1-1.6,0.6l-6.9-5.5l0,0c0.9-0.9,8.2-7.6,8.5-7.9c0.5-0.5,0.2-0.8-0.4-0.4L4.9,10.1
			L0.7,8.6c0,0-0.7-0.2-0.7-0.8C-0.1,7.3,0.7,7,0.7,7l16.9-6.9C17.6,0.2,19-0.4,19,0.6z"/>
	</symbol>

	<symbol version="1.1" id="viber" xmlns="http://www.w3.org/2000/svg" xmlns:xlink="http://www.w3.org/1999/xlink" x="0px" y="0px"
	 viewBox="0 0 21 23" style="enable-background:new 0 0 21 23;" xml:space="preserve">
		<style type="text/css">
			.st0{fill:#FFFFFF;}
		</style>
		<path class="st0" d="M16.3,0.5c-3.8-0.7-7.8-0.7-11.6,0C3,0.9,0.9,2.9,0.5,4.5c-0.7,3.1-0.7,6.3,0,9.5c0.4,1.6,2.6,3.6,4.2,4
			c0.1,0,0.1,0.1,0.1,0.1v4.6c0,0.2,0.3,0.4,0.4,0.1l2.2-2.3c0,0,1.8-1.8,2.1-2.1c0,0,0.1-0.1,0.1-0.1c2.2,0.1,4.5-0.1,6.7-0.5
			c1.7-0.4,3.8-2.4,4.2-4c0.7-3.1,0.7-6.3,0-9.5C20.1,2.9,17.9,0.9,16.3,0.5z M16.3,14.2c-0.4,0.7-0.8,1.3-1.5,1.7
			c-0.2,0.1-0.4,0.1-0.7,0.2c-0.3-0.1-0.5-0.1-0.7-0.2C11,15,8.9,13.6,7.1,11.8c-1-1.1-1.8-2.3-2.4-3.6C4.4,7.5,4.1,6.9,3.9,6.2
			C3.6,5.6,4,5.1,4.4,4.6c0.4-0.4,0.8-0.7,1.3-0.9c0.4-0.2,0.7-0.1,1,0.2c0.6,0.7,1.2,1.5,1.6,2.3C8.6,6.7,8.6,7.2,8,7.6
			C7.9,7.7,7.8,7.8,7.7,7.9C7.6,8,7.5,8,7.4,8.2C7.2,8.4,7.2,8.6,7.3,8.8c0.6,1.7,1.7,3,3.4,3.7c0.3,0.1,0.5,0.2,0.9,0.2
			c0.5-0.1,0.7-0.7,1.1-0.9c0.4-0.3,0.8-0.3,1.2-0.1c0.4,0.2,0.7,0.5,1.2,0.8c0.4,0.3,0.7,0.5,1.1,0.8C16.4,13.5,16.5,13.9,16.3,14.2z
			M13.2,8.8C13.1,8.8,13.2,8.8,13.2,8.8c-0.3,0-0.4-0.1-0.4-0.4c0-0.1,0-0.4-0.1-0.5c-0.1-0.3-0.2-0.6-0.5-0.8
			C12.1,7,11.9,7,11.8,6.9c-0.2-0.1-0.4-0.1-0.6-0.1c-0.2-0.1-0.3-0.2-0.3-0.4c0-0.1,0.2-0.3,0.4-0.3c1.2,0.1,2.1,0.7,2.2,2.1
			c0,0.1,0,0.2,0,0.3C13.5,8.6,13.4,8.8,13.2,8.8z M12.5,5.6c-0.4-0.1-0.7-0.3-1.2-0.4c-0.1,0-0.4-0.1-0.5-0.1c-0.2,0-0.4-0.1-0.3-0.4
			c0-0.2,0.1-0.4,0.4-0.3C11.6,4.5,12.3,4.7,13,5c1.3,0.7,2.1,1.7,2.3,3.2c0,0.1,0,0.1,0,0.2c0,0.1,0,0.3,0,0.5c0,0.1,0,0.1,0,0.2
			c-0.1,0.3-0.6,0.4-0.7,0c0-0.1-0.1-0.2-0.1-0.3c0-0.7-0.1-1.3-0.4-1.9C13.6,6.3,13.1,5.9,12.5,5.6z M16.5,9.9
			c-0.2,0-0.4-0.2-0.4-0.4c0-0.4-0.1-0.9-0.1-1.3c-0.3-2.3-2.2-4.2-4.5-4.6c-0.4-0.1-0.7-0.1-1-0.1c-0.2,0-0.5,0-0.6-0.3
			C9.8,2.9,10,2.7,10.2,2.7c0.1,0,0.1,0,0.1,0c0.1,0,3,0.1,0,0c3.1,0.1,5.6,2.1,6.2,5.2c0.1,0.5,0.1,1,0.1,1.6
			C16.8,9.7,16.7,9.9,16.5,9.9z"/>
	</symbol>

	<symbol version="1.1" id="whatsapp" xmlns="http://www.w3.org/2000/svg" xmlns:xlink="http://www.w3.org/1999/xlink" x="0px" y="0px"
	 viewBox="0 0 21 21" style="enable-background:new 0 0 21 21;" xml:space="preserve">
		<style type="text/css">
			.st0{fill:#FFFFFF;}
		</style>
		<path class="st0" d="M17.9,3.1c-2-2-4.6-3.1-7.4-3.1C4.8,0,0.1,4.7,0.1,10.4c0,1.8,0.5,3.6,1.4,5.2L0,21l5.6-1.5
			c1.5,0.8,3.2,1.2,5,1.2c5.8,0,10.5-4.7,10.5-10.4C20.9,7.7,19.9,5,17.9,3.1z M15.6,14.1c-0.2,0.6-1.2,1.2-1.8,1.2
			c-0.4,0.1-1,0.1-1.6-0.1c-0.4-0.1-0.9-0.3-1.5-0.6c-2.6-1.1-4.3-3.7-4.5-3.9c-0.1-0.1-1.1-1.4-1.1-2.7s0.7-1.9,0.9-2.2
			c0.2-0.3,0.5-0.3,0.7-0.3c0.1,0,0.4,0,0.5,0s0.4-0.1,0.6,0.4c0.2,0.5,0.7,1.8,0.8,1.9c0.1,0.1,0.1,0.3,0,0.4
			C8.6,8.5,8.6,8.7,8.4,8.8C8.3,9,8.1,9.2,8,9.3C7.9,9.4,7.8,9.6,7.9,9.8c0.1,0.3,0.7,1.1,1.5,1.8c1,0.9,1.8,1.2,2.1,1.3
			c0.3,0.1,0.4,0.1,0.6-0.1c0.1-0.1,0.7-0.7,0.8-1c0.1-0.3,0.4-0.2,0.6-0.1c0.2,0.1,1.5,0.7,1.8,0.9c0.3,0.1,0.4,0.2,0.5,0.3
			C15.8,13.1,15.8,13.6,15.6,14.1z"/>
	</symbol>

	<symbol version="1.1" id="arrow-circle" xmlns="http://www.w3.org/2000/svg" xmlns:xlink="http://www.w3.org/1999/xlink" x="0px" y="0px"
	 viewBox="0 0 32.2 32.2" style="enable-background:new 0 0 32.2 32.2;" xml:space="preserve">
		<style type="text/css">
			.st0{fill:#DF3021;}
		</style>
		<path class="st0" d="M23.3,10.8c-0.2,0-0.5,0-0.7-0.1c-0.2-0.1-0.4-0.2-0.6-0.4c-0.2-0.2-0.3-0.4-0.4-0.6c-0.1-0.2-0.1-0.5-0.1-0.7
			c0-0.2,0-0.5,0.1-0.7C21.7,8,21.8,7.8,22,7.7c0.2-0.2,0.4-0.3,0.6-0.4c0.2-0.1,0.5-0.1,0.7-0.1h3.6l0.3-4.1c0-0.5,0.2-0.9,0.5-1.2
			c0.3-0.3,0.8-0.5,1.2-0.5c0.2,0,0.5,0.1,0.7,0.2C29.8,1.7,30,1.8,30.2,2c0.2,0.2,0.3,0.4,0.4,0.6c0.1,0.2,0.1,0.5,0.1,0.7l-0.4,5.7
			c0,0.5-0.2,0.9-0.6,1.2c-0.3,0.3-0.8,0.5-1.2,0.5L23.3,10.8z"/>
		<path class="st0" d="M28.5,10h-5.2c-0.1,0-0.3,0-0.4-0.1c-0.1-0.1-0.3-0.1-0.4-0.2c-0.1-0.1-0.2-0.2-0.2-0.4
			c-0.1-0.1-0.1-0.3-0.1-0.4c0-0.1,0-0.3,0.1-0.4c0.1-0.1,0.1-0.3,0.2-0.4C22.6,8.1,22.7,8,22.9,8c0.1-0.1,0.3-0.1,0.4-0.1h4.2
			l0.3-4.7c0-0.1,0-0.3,0.1-0.4c0.1-0.1,0.1-0.2,0.3-0.3c0.1-0.1,0.2-0.2,0.4-0.2c0.1,0,0.3-0.1,0.4,0c0.1,0,0.3,0,0.4,0.1
			c0.1,0.1,0.2,0.1,0.3,0.3c0.1,0.1,0.2,0.2,0.2,0.4C30,3,30,3.2,30,3.3L29.6,9c0,0.3-0.1,0.5-0.3,0.7C29.1,9.9,28.8,10,28.5,10z"/>
		<path class="st0" d="M16.1,32.2c-2.8,0-5.6-0.7-8.1-2.2c-2.5-1.4-4.5-3.5-5.9-5.9S0,19,0,16.1c0-2.8,0.7-5.6,2.2-8.1
			c1.4-2.5,3.5-4.5,5.9-5.9C10.5,0.7,13.3,0,16.1,0s5.6,0.7,8.1,2.2c2.5,1.4,4.5,3.5,5.9,5.9c0.1,0.2,0.2,0.4,0.2,0.7
			c0,0.2,0,0.5,0,0.7C30.2,9.6,30.1,9.9,30,10c-0.1,0.2-0.3,0.3-0.5,0.5c-0.2,0.1-0.4,0.2-0.7,0.2c-0.2,0-0.5,0-0.7,0
			c-0.2-0.1-0.4-0.2-0.6-0.3c-0.2-0.1-0.3-0.3-0.5-0.5c-1.5-2.6-3.9-4.6-6.8-5.6c-2.9-1-6-0.9-8.8,0.3c-2.8,1.2-5.1,3.3-6.5,6
			c-1.3,2.7-1.7,5.9-0.9,8.8c0.8,2.9,2.6,5.5,5.1,7.2c2.5,1.7,5.6,2.4,8.6,2c3-0.4,5.8-1.9,7.8-4.2s3.1-5.2,3.1-8.3
			c0-0.5,0.2-0.9,0.5-1.2c0.3-0.3,0.8-0.5,1.2-0.5c0.5,0,0.9,0.2,1.2,0.5c0.3,0.3,0.5,0.8,0.5,1.2c0,4.3-1.7,8.4-4.7,11.4
			S20.4,32.2,16.1,32.2z"/>
		<path class="st0" d="M16.1,31.5c-2.7,0-5.4-0.7-7.7-2.1c-2.3-1.4-4.3-3.3-5.6-5.6c-1.4-2.3-2.1-5-2.1-7.7c0-2.7,0.7-5.4,2.1-7.7
			c1.4-2.3,3.3-4.3,5.6-5.6c2.3-1.4,5-2.1,7.7-2.1c2.7,0,5.4,0.7,7.7,2.1c2.3,1.4,4.3,3.3,5.6,5.6c0.1,0.1,0.1,0.3,0.1,0.4
			c0,0.1,0,0.3,0,0.4c0,0.1-0.1,0.3-0.2,0.4c-0.1,0.1-0.2,0.2-0.3,0.3C29,10,28.8,10,28.7,10c-0.1,0-0.3,0-0.4,0
			c-0.1,0-0.3-0.1-0.4-0.2c-0.1-0.1-0.2-0.2-0.3-0.3c-1.6-2.8-4.2-4.9-7.2-5.9S14,2.6,11.1,3.9c-3,1.2-5.4,3.5-6.8,6.4
			c-1.4,2.9-1.8,6.2-0.9,9.3s2.8,5.8,5.4,7.6c2.7,1.8,5.9,2.5,9.1,2.1c3.2-0.4,6.1-2,8.2-4.4c2.1-2.4,3.3-5.5,3.3-8.7
			c0-0.1,0-0.3,0.1-0.4c0.1-0.1,0.1-0.3,0.2-0.4c0.1-0.1,0.2-0.2,0.4-0.2c0.1-0.1,0.3-0.1,0.4-0.1s0.3,0,0.4,0.1
			c0.1,0.1,0.3,0.1,0.4,0.2c0.1,0.1,0.2,0.2,0.2,0.4c0.1,0.1,0.1,0.3,0.1,0.4c0,4.1-1.6,8-4.5,10.9S20.2,31.5,16.1,31.5z"/>
	</symbol>

	<symbol version="1.1" id="marker" xmlns="http://www.w3.org/2000/svg" xmlns:xlink="http://www.w3.org/1999/xlink" x="0px" y="0px"
	 viewBox="0 0 13 16" style="enable-background:new 0 0 13 16;" xml:space="preserve">
		<style type="text/css">
			.st0{fill:#DF3021;}
		</style>
		<path class="st0" d="M6.3,0C3,0.1,0.3,2.6,0,5.8C0,6.4,0,7,0.1,7.6c0,0,0,0.1,0,0.2c0.1,0.4,0.3,0.9,0.4,1.3
			c0.7,1.5,2.2,4.1,5.5,6.8c0.2,0.2,0.5,0.2,0.7,0c3.4-2.8,4.9-5.3,5.5-6.8c0.2-0.4,0.3-0.8,0.4-1.3c0-0.1,0-0.2,0-0.2
			C13,7.2,13,6.8,13,6.4C13,2.8,10-0.1,6.3,0z M6.5,9.6c-1.7,0-3.2-1.4-3.2-3.1s1.4-3.1,3.2-3.1c1.7,0,3.2,1.4,3.2,3.1
			S8.2,9.6,6.5,9.6z"/>
	</symbol>

	<symbol version="1.1" id="email" xmlns="http://www.w3.org/2000/svg" xmlns:xlink="http://www.w3.org/1999/xlink" x="0px" y="0px"
	 viewBox="0 0 12 8.4" style="enable-background:new 0 0 12 8.4;" xml:space="preserve">
		<style type="text/css">
			.st0{fill:#DF3021;}
		</style>
		<path class="st0" d="M7.8,4.7l-1,1c-0.4,0.4-1.1,0.4-1.5,0l-1-1L0.6,8.3c0.1,0.1,0.3,0.1,0.4,0.1h9.9c0.2,0,0.3,0,0.4-0.1L7.8,4.7z"
			/>
		<path class="st0" d="M10.9,0H1.1C0.9,0,0.7,0,0.6,0.1L4.5,4c0,0,0,0,0,0c0,0,0,0,0,0l1.3,1.3c0.1,0.1,0.4,0.1,0.5,0L7.5,4
			c0,0,0,0,0,0c0,0,0,0,0,0l3.9-3.9C11.3,0,11.1,0,10.9,0z"/>
		<path class="st0" d="M0.1,0.6C0,0.7,0,0.9,0,1.1v6.3c0,0.2,0,0.3,0.1,0.5l3.6-3.6L0.1,0.6z"/>
		<path class="st0" d="M11.9,0.6L8.3,4.2l3.6,3.6C12,7.7,12,7.5,12,7.4V1.1C12,0.9,12,0.7,11.9,0.6z"/>
	</symbol>

	<symbol version="1.1" id="checkbox" xmlns="http://www.w3.org/2000/svg" xmlns:xlink="http://www.w3.org/1999/xlink" x="0px" y="0px"
	 viewBox="0 0 15 10.9" style="enable-background:new 0 0 15 10.9;" xml:space="preserve">
		<style type="text/css">
			.st0{fill:#DF3021;}
		</style>
		<path class="st0" d="M14.6,2.6l-7.9,7.9c-0.6,0.6-1.5,0.6-2.1,0L0.4,6.4c-0.6-0.6-0.6-1.5,0-2.1C1,3.7,2,3.7,2.6,4.3l3,3l6.9-6.9
			c0.6-0.6,1.5-0.6,2.1,0C15.1,1,15.1,2,14.6,2.6z"/>
	</symbol>

	<symbol version="1.1" id="filter" xmlns="http://www.w3.org/2000/svg" xmlns:xlink="http://www.w3.org/1999/xlink" x="0px" y="0px"
	 viewBox="0 0 22 22" style="enable-background:new 0 0 22 22;" xml:space="preserve">
		<style type="text/css">
			.st0{clip-path:url(#SVGID_00000054984906471598332920000012016544062014836134_);}
			.st1{fill:#DF3021;}
		</style>
		<g>
			<defs>
				<rect id="SVGID_1_" y="0" width="22" height="22"/>
			</defs>
			<clipPath id="SVGID_00000114792915019112465070000002906136391369326524_">
				<use xlink:href="#SVGID_1_"  style="overflow:visible;"/>
			</clipPath>
			<g style="clip-path:url(#SVGID_00000114792915019112465070000002906136391369326524_);">
				<path class="st1" d="M0.7,3.9h10.5c0.3,1.4,1.6,2.5,3.1,2.5c1.5,0,2.8-1.1,3.1-2.5h3.9c0.4,0,0.7-0.3,0.7-0.7s-0.3-0.7-0.7-0.7
					h-3.9C17.1,1.1,15.8,0,14.3,0c-1.5,0-2.8,1.1-3.1,2.5H0.7C0.3,2.5,0,2.8,0,3.2S0.3,3.9,0.7,3.9z M12.5,3.2
					C12.5,3.2,12.5,3.2,12.5,3.2c0-1,0.8-1.8,1.8-1.8c1,0,1.8,0.8,1.8,1.8l0,0c0,1-0.8,1.8-1.8,1.8C13.3,5,12.5,4.2,12.5,3.2L12.5,3.2
					z M21.3,18.1h-3.9c-0.3-1.4-1.6-2.5-3.1-2.5c-1.5,0-2.8,1.1-3.1,2.5H0.7c-0.4,0-0.7,0.3-0.7,0.7c0,0.4,0.3,0.7,0.7,0.7h10.5
					c0.3,1.4,1.6,2.5,3.1,2.5c1.5,0,2.8-1.1,3.1-2.5h3.9c0.4,0,0.7-0.3,0.7-0.7C22,18.4,21.7,18.1,21.3,18.1z M14.3,20.6
					c-1,0-1.8-0.8-1.8-1.8l0,0c0,0,0,0,0,0c0-1,0.8-1.8,1.8-1.8c1,0,1.8,0.8,1.8,1.8l0,0C16.1,19.8,15.3,20.6,14.3,20.6z M21.3,10.3
					H10.8c-0.3-1.4-1.6-2.5-3.1-2.5c-1.5,0-2.8,1.1-3.1,2.5H0.7C0.3,10.3,0,10.6,0,11s0.3,0.7,0.7,0.7h3.9c0.3,1.4,1.6,2.5,3.1,2.5
					c1.5,0,2.8-1.1,3.1-2.5h10.5c0.4,0,0.7-0.3,0.7-0.7S21.7,10.3,21.3,10.3z M9.5,11C9.5,11,9.5,11,9.5,11c0,1-0.8,1.8-1.8,1.8
					c-1,0-1.8-0.8-1.8-1.8l0,0c0-1,0.8-1.8,1.8-1.8C8.7,9.2,9.5,10,9.5,11L9.5,11z"/>
			</g>
		</g>
	</symbol>

	<symbol viewBox="0 0 21 19" id="heart" xmlns="http://www.w3.org/2000/svg">
		<path d="M18.6537 2.57246L18.6537 2.57249C19.516 3.55208 20 4.87209 20 6.29712C20 7.92381 19.3601 9.314 18.1638 10.7729C16.9549 12.2472 15.2154 13.748 13.0631 15.6024C11.6721 16.8008 11.2357 17.1826 10.5024 17.832C9.78132 17.1934 9.33831 16.8054 7.93248 15.5946C5.85648 13.8065 4.10986 12.3001 2.90756 10.8547L2.90755 10.8546C1.57964 9.25838 1 7.81784 1 6.29712C1 4.87268 1.48485 3.55243 2.34876 2.57246L2.3488 2.57241C3.24456 1.55605 4.47286 1 5.81601 1C7.28523 1 8.57832 1.70614 9.56308 3.11414L9.56311 3.11418C9.75844 3.39339 9.92262 3.67373 10.0587 3.93583L10.5024 4.79093L10.9462 3.93583C11.0823 3.67373 11.2464 3.39339 11.4418 3.11418L11.4418 3.11412C12.4266 1.706 13.7196 1 15.1887 1C16.5318 1 17.7592 1.55614 18.6537 2.57246Z"/>
	</symbol>

	<symbol version="1.1" id="compare" xmlns="http://www.w3.org/2000/svg" xmlns:xlink="http://www.w3.org/1999/xlink" x="0px" y="0px"
	 viewBox="0 0 31 27.7" style="enable-background:new 0 0 31 27.7;" xml:space="preserve">
		<style type="text/css">
			.st0{fill:#DF3021;}
		</style>
		<path class="st0" d="M31,16.9C31,16.9,31,16.9,31,16.9C31,16.9,31,16.9,31,16.9c0-0.1,0-0.1,0-0.2c0,0,0,0,0,0c0,0,0,0,0-0.1
			c0,0,0,0,0,0c0,0,0,0,0-0.1l0,0c0,0,0,0,0,0L25.5,3.3c0,0,0,0,0,0c0,0,0,0,0,0c0,0,0,0,0,0c0,0,0,0,0,0c0,0,0,0,0,0c0,0,0,0,0,0
			c0,0,0,0,0-0.1c0,0,0,0,0,0c0,0,0,0-0.1-0.1c0,0,0,0,0,0c0,0,0,0,0,0c0,0,0,0,0,0c0,0,0,0-0.1,0c0,0,0,0,0,0c0,0,0,0-0.1,0
			c0,0,0,0,0,0c0,0,0,0,0,0c0,0,0,0,0,0c0,0,0,0-0.1,0c0,0,0,0,0,0c0,0,0,0-0.1,0c0,0,0,0,0,0c0,0,0,0-0.1,0c0,0,0,0,0,0
			c0,0-0.1,0-0.1,0H19C18.6,1.2,17.2,0,15.5,0c-1.7,0-3.1,1.2-3.5,2.7H6.4c0,0-0.1,0-0.1,0c0,0,0,0,0,0c0,0,0,0-0.1,0c0,0,0,0,0,0
			c0,0,0,0-0.1,0c0,0,0,0,0,0c0,0,0,0-0.1,0c0,0,0,0,0,0c0,0,0,0,0,0c0,0,0,0,0,0c0,0,0,0-0.1,0c0,0,0,0,0,0c0,0,0,0-0.1,0
			c0,0,0,0,0,0c0,0,0,0,0,0c0,0,0,0,0,0c0,0,0,0-0.1,0.1c0,0,0,0,0,0c0,0,0,0,0,0.1c0,0,0,0,0,0c0,0,0,0,0,0c0,0,0,0,0,0c0,0,0,0,0,0
			c0,0,0,0,0,0c0,0,0,0,0,0L0.1,16.6c0,0,0,0,0,0l0,0c0,0,0,0,0,0.1c0,0,0,0,0,0c0,0,0,0,0,0.1c0,0,0,0,0,0c0,0,0,0,0,0.1c0,0,0,0,0,0
			c0,0,0,0.1,0,0.1c0,0,0,0,0,0c0,3.2,2.9,5.8,6.4,5.8s6.4-2.6,6.4-5.8c0,0,0,0,0,0c0,0,0-0.1,0-0.1c0,0,0,0,0,0c0,0,0,0,0-0.1
			c0,0,0,0,0,0c0,0,0,0,0-0.1c0,0,0,0,0,0c0,0,0,0,0-0.1l0,0c0,0,0,0,0,0L7.7,4.5H12c0.3,1.3,1.3,2.3,2.6,2.6v18.7h-3.3
			c-0.5,0-0.9,0.4-0.9,0.9c0,0.5,0.4,0.9,0.9,0.9h8.5c0.5,0,0.9-0.4,0.9-0.9c0-0.5-0.4-0.9-0.9-0.9h-3.3V7.2c1.3-0.3,2.3-1.3,2.6-2.6
			h4.3l-4.9,12.1c0,0,0,0,0,0l0,0c0,0,0,0,0,0.1c0,0,0,0,0,0c0,0,0,0,0,0.1c0,0,0,0,0,0c0,0,0,0,0,0.1c0,0,0,0,0,0c0,0,0,0.1,0,0.1
			c0,0,0,0,0,0c0,3.2,2.9,5.8,6.4,5.8C28.1,22.7,31,20.1,31,16.9C31,17,31,16.9,31,16.9z M6.4,20.9c-2.1,0-3.9-1.3-4.4-3h8.8
			C10.3,19.6,8.5,20.9,6.4,20.9z M2.3,16L6.4,6l4.1,10H2.3z M15.5,5.4c-1,0-1.8-0.8-1.8-1.8c0-1,0.8-1.8,1.8-1.8c1,0,1.8,0.8,1.8,1.8
			C17.3,4.6,16.5,5.4,15.5,5.4z M24.6,6l4.1,10h-8.2L24.6,6z M24.6,20.9c-2.1,0-3.9-1.3-4.4-3h8.8C28.6,19.6,26.8,20.9,24.6,20.9z"/>
	</symbol>

	<symbol version="1.1" id="play" xmlns="http://www.w3.org/2000/svg" xmlns:xlink="http://www.w3.org/1999/xlink" x="0px" y="0px"
	 viewBox="0 0 800 800" style="enable-background:new 0 0 800 800;" xml:space="preserve">
		<g>
			<g>
				<path d="M400,0C178.9,0,0,178.9,0,400c0,221.1,178.9,400,400,400c221.1,0,400-178.9,400-400C800,178.9,621.1,0,400,0z
					M544.1,444.4L356.2,553c-15.9,9.2-35.4,9.2-51.3,0c-15.9-9.2-25.6-26.1-25.6-44.4V291.4c0-18.3,9.8-35.3,25.6-44.4
					c7.9-4.6,16.8-6.9,25.6-6.9c8.9,0,17.7,2.3,25.7,6.9l188,108.6c15.9,9.2,25.6,26.1,25.6,44.4C569.7,418.3,560,435.2,544.1,444.4z"
					/>
			</g>
		</g>
	</symbol>

	<symbol id="remove" xmlns="http://www.w3.org/2000/svg" xmlns:xlink="http://www.w3.org/1999/xlink" version="1.1" x="0px" y="0px" viewBox="0 0 18 20" style="enable-background:new 0 0 18 20;" xml:space="preserve">
		<path d="M17,4h-4V3c0-0.8-0.3-1.6-0.9-2.1C11.6,0.3,10.8,0,10,0H8C7.2,0,6.4,0.3,5.9,0.9C5.3,1.4,5,2.2,5,3v1H1    C0.7,4,0.5,4.1,0.3,4.3C0.1,4.5,0,4.7,0,5s0.1,0.5,0.3,0.7C0.5,5.9,0.7,6,1,6h1v11c0,0.8,0.3,1.6,0.9,2.1C3.4,19.7,4.2,20,5,20h8    c0.8,0,1.6-0.3,2.1-0.9c0.6-0.6,0.9-1.3,0.9-2.1V6h1c0.3,0,0.5-0.1,0.7-0.3C17.9,5.5,18,5.3,18,5s-0.1-0.5-0.3-0.7    C17.5,4.1,17.3,4,17,4z M7,3c0-0.3,0.1-0.5,0.3-0.7C7.5,2.1,7.7,2,8,2h2c0.3,0,0.5,0.1,0.7,0.3C10.9,2.5,11,2.7,11,3v1H7V3z M14,17    c0,0.3-0.1,0.5-0.3,0.7S13.3,18,13,18H5c-0.3,0-0.5-0.1-0.7-0.3C4.1,17.5,4,17.3,4,17V6h10V17z"/>
	</symbol>

	<symbol version="1.1" id="view" xmlns="http://www.w3.org/2000/svg" xmlns:xlink="http://www.w3.org/1999/xlink" x="0px" y="0px"
	 viewBox="0 0 27 16.1" style="enable-background:new 0 0 27 16.1;" xml:space="preserve">
		<style type="text/css">
			.st0{fill:#BDBCBC;}
		</style>
		<path class="st0" d="M13.5,0C8.3,0,3.7,2.8,0.2,7.4c-0.3,0.4-0.3,0.9,0,1.3c3.5,4.6,8.1,7.4,13.3,7.4c5.2,0,9.8-2.8,13.3-7.4
			c0.3-0.4,0.3-0.9,0-1.3C23.3,2.8,18.7,0,13.5,0z M13.9,13.7c-3.4,0.2-6.3-2.6-6-6c0.2-2.8,2.5-5.1,5.3-5.3c3.4-0.2,6.3,2.6,6,6
			C19,11.2,16.7,13.5,13.9,13.7z M13.7,11.1c-1.8,0.1-3.4-1.4-3.2-3.2c0.1-1.5,1.3-2.8,2.9-2.9c1.8-0.1,3.4,1.4,3.2,3.2
			C16.5,9.8,15.2,11,13.7,11.1z"/>
	</symbol>

	<symbol version="1.1" id="exit" xmlns="http://www.w3.org/2000/svg" xmlns:xlink="http://www.w3.org/1999/xlink" x="0px" y="0px"
	 viewBox="0 0 17.3 22" style="enable-background:new 0 0 17.3 22;" xml:space="preserve">
		<style type="text/css">
			.st0{fill:#7A7A7A;}
		</style>
		<path class="st0" d="M17.1,8.9l-2.4-2.4c-0.3-0.3-0.8-0.3-1.1,0c-0.3,0.3-0.3,0.8,0,1.1l1,1h-4.4C9.8,8.6,9.4,9,9.4,9.4
			c0,0.4,0.4,0.8,0.8,0.8h4.4l-1,1c-0.3,0.3-0.3,0.8,0,1.1s0.8,0.3,1.1,0l2.4-2.4C17.4,9.7,17.4,9.2,17.1,8.9
			C17.1,8.9,17.1,8.9,17.1,8.9z"/>
		<path class="st0" d="M13.4,14.1c-0.4,0-0.8,0.4-0.8,0.8v2.4H8.6V5.5c0-0.3-0.1-0.5-0.4-0.7L3.4,1.6h9.2v2.4c0,0.4,0.4,0.8,0.8,0.8
			s0.8-0.4,0.8-0.8V0.8c0-0.4-0.4-0.8-0.8-0.8H0.8C0.4,0,0,0.4,0,0.8v15.7c0,0.3,0.1,0.5,0.4,0.7l7.1,4.7C7.7,22,8,22,8.2,21.9
			c0.3-0.1,0.4-0.4,0.4-0.7v-2.4h4.7c0.4,0,0.8-0.4,0.8-0.8v-3.1C14.1,14.5,13.8,14.1,13.4,14.1z M7.1,19.8l-5.5-3.7V2.3l5.5,3.7V19.8
			z"/>
	</symbol>

	<symbol version="1.1" id="url" xmlns="http://www.w3.org/2000/svg" xmlns:xlink="http://www.w3.org/1999/xlink" x="0px" y="0px"
	 viewBox="0 0 21 21" style="enable-background:new 0 0 21 21;" xml:space="preserve">
		<style type="text/css">
			.st0{clip-path:url(#SVGID_00000140001907736744375430000000162990954441506214_);}
			.st1{fill:#7A7A7A;}
		</style>
		<g>
			<defs>
				<rect id="SVGID_1_" width="21" height="21"/>
			</defs>
			<clipPath id="SVGID_00000000925467352300129430000015748512058500974215_">
				<use xlink:href="#SVGID_1_"  style="overflow:visible;"/>
			</clipPath>
			<g style="clip-path:url(#SVGID_00000000925467352300129430000015748512058500974215_);">
				<path class="st1" d="M8.7,16l-2.5,2.5c-1,1-2.7,1-3.7,0c-1-1-1-2.7,0-3.7l4.9-4.9c1-1,2.7-1,3.7,0c0.3,0.3,0.9,0.3,1.2,0
					c0.3-0.3,0.3-0.9,0-1.2c-1.7-1.7-4.5-1.7-6.2,0l-4.9,4.9c-1.7,1.7-1.7,4.5,0,6.2c1.7,1.7,4.5,1.7,6.2,0l2.5-2.5
					c0.3-0.3,0.3-0.9,0-1.2C9.6,15.7,9,15.7,8.7,16z"/>
				<path class="st1" d="M19.7,1.3c-1.7-1.7-4.5-1.7-6.2,0l-3,3c-0.3,0.3-0.3,0.9,0,1.2c0.3,0.3,0.9,0.3,1.2,0l3-3c1-1,2.7-1,3.7,0
					c1,1,1,2.7,0,3.7L13,11.7c-1,1-2.7,1-3.7,0c-0.3-0.3-0.9-0.3-1.2,0c-0.3,0.3-0.3,0.9,0,1.2c1.7,1.7,4.5,1.7,6.2,0l5.4-5.4
					C21.4,5.8,21.4,3,19.7,1.3z"/>
			</g>
		</g>
	</symbol>


	<symbol version="1.1" id="only-compare" xmlns="http://www.w3.org/2000/svg" xmlns:xlink="http://www.w3.org/1999/xlink" x="0px" y="0px"
	 viewBox="0 0 18 13.4" style="enable-background:new 0 0 18 13.4;" xml:space="preserve">
		<path d="M1.1,8.8C0.5,8.8,0,9.3,0,9.9C0,10.5,0.5,11,1.1,11h2.8l-0.5,0.5c-0.4,0.4-0.4,1.1,0,1.5c0.2,0.2,0.5,0.3,0.8,0.3
			c0.3,0,0.6-0.1,0.8-0.3l2-2h10c0.6,0,1.1-0.5,1.1-1.1c0-0.6-0.5-1.1-1.1-1.1H9.1L12,6h5C17.5,6,18,5.5,18,4.9c0-0.6-0.5-1.1-1.1-1.1
			h-2.8l2-2c0.4-0.4,0.4-1.1,0-1.5c-0.4-0.4-1.1-0.4-1.5,0l-3.5,3.5h-10C0.5,3.8,0,4.3,0,4.9C0,5.5,0.5,6,1.1,6h7.8L6,8.8H1.1z"/>
	</symbol>


</svg>