<svg width="489" height="122" viewBox="0 0 489 122" fill="none" xmlns="http://www.w3.org/2000/svg">
<g clip-path="url(#clip0_1051_11361)">
<path fill-rule="evenodd" clip-rule="evenodd" d="M0 56.7976V86.4593H13.6127V68.8739H31.3423V56.7073H13.6749V56.7976H0ZM0 46.8876H13.6127V46.8149H35.4593V34.6461H0V46.8876ZM42.5822 34.6461V64.4797C42.5822 71.3376 44.7462 76.8865 49.072 81.1242C53.4 85.3112 58.9388 87.4047 65.693 87.4047C72.3427 87.4047 77.8549 85.2848 82.2362 81.0449C86.6152 76.7543 88.8059 71.2318 88.8059 64.4797V34.6461H75.191V65.4978C75.191 68.4287 74.32 70.758 72.5782 72.4857C70.8385 74.1605 68.5435 74.9979 65.693 74.9979C62.8447 74.9979 60.5496 74.1605 58.8055 72.4857C57.0659 70.758 56.1949 68.4309 56.1949 65.5V34.6483L42.5822 34.6461ZM129.964 86.4593H145.161L131.386 67.2255C136.874 63.8759 139.62 58.9572 139.62 52.4673C139.62 47.13 137.72 42.8372 133.921 39.5911C130.122 36.2944 125.294 34.6461 119.435 34.6461H98.9371V86.4593H112.55V70.3658H118.171L129.964 86.4593ZM112.55 58.5914V46.4226H119.515C121.415 46.4226 122.919 46.9735 124.025 48.071C125.187 49.1706 125.769 50.6361 125.769 52.4673C125.769 54.2986 125.187 55.7905 124.027 56.9408C122.919 58.0427 121.415 58.5914 119.517 58.5914H112.55ZM196.872 34.6461H183.257V60.5527L154.923 33.7051H150.569V86.4616H164.184V60.1604L192.515 87.4025H196.87L196.872 34.6461ZM220.916 34.6461H207.303V86.4593H220.916V34.6461ZM242.58 46.8149V86.4593H256.195V46.8149H271.865V34.6461H226.91V46.8149H242.58ZM277.555 34.6461V64.4797C277.555 71.3376 279.719 76.8865 284.047 81.1242C288.373 85.3112 293.914 87.4047 300.668 87.4047C307.316 87.4047 312.83 85.2848 317.209 81.0449C321.591 76.7543 323.779 71.2318 323.779 64.4797V34.6461H310.166V65.4978C310.166 68.4287 309.295 70.758 307.554 72.4857C305.812 74.1605 303.517 74.9979 300.668 74.9979C297.818 74.9979 295.523 74.1605 293.781 72.4857C292.041 70.758 291.17 68.4309 291.17 65.5V34.6483L277.555 34.6461ZM364.937 86.4593H380.134L366.363 67.2255C371.851 63.8759 374.595 58.9572 374.595 52.4673C374.595 47.13 372.695 42.8372 368.896 39.5911C365.097 36.2944 360.267 34.6461 354.41 34.6461H333.91V86.4593H347.525V70.3658H353.144L364.937 86.4593ZM347.525 58.5914V46.4226H354.49C356.39 46.4226 357.894 46.9735 359.001 48.071C360.163 49.1706 360.742 50.6361 360.742 52.4673C360.742 54.2986 360.163 55.7905 359.001 56.9408C357.894 58.0427 356.39 58.5914 354.49 58.5914H347.525ZM419.024 86.4593H435.171L414.276 59.2966L432.241 34.6461H416.413L399.157 58.1198V34.6461H385.544V86.4593H399.157V60.632L419.024 86.4593ZM470.813 82.1423L472.712 86.4616H487.354L463.61 33.7051H459.257L435.511 86.4616H450.155L452.055 82.1423H470.813ZM461.473 59.2966L465.985 71.3067H456.882L461.473 59.2966Z" fill="black"/>
<path d="M0.210938 0H285.605V10.7827H0.210938V0ZM201.344 109.907H486.738V120.69H201.344V109.907Z" fill="#F20000"/>
</g>
<defs>
<clipPath id="clip0_1051_11361">
<rect width="488.787" height="121.203" fill="white"/>
</clipPath>
</defs>
</svg>
