<svg width="246" height="61" viewBox="0 0 246 61" fill="none" xmlns="http://www.w3.org/2000/svg">
<g clip-path="url(#clip0_443_5798)">
<path fill-rule="evenodd" clip-rule="evenodd" d="M0 28.5855V43.5139H6.8511V34.6634H15.7742V28.5401H6.88241V28.5855H0ZM0 23.598H6.8511V23.5614H17.8462V17.437H0V23.598ZM21.4311 17.437V32.4518C21.4311 35.9033 22.5202 38.696 24.6973 40.8288C26.8755 42.9361 29.6631 43.9897 33.0624 43.9897C36.4091 43.9897 39.1833 42.9228 41.3884 40.7889C43.5923 38.6295 44.6948 35.8501 44.6948 32.4518V17.437H37.8426V32.9642C37.8426 34.4393 37.4043 35.6116 36.5276 36.4812C35.6521 37.3241 34.497 37.7455 33.0624 37.7455C31.6289 37.7455 30.4738 37.3241 29.596 36.4812C28.7205 35.6116 28.2822 34.4404 28.2822 32.9653V17.4381L21.4311 17.437ZM65.4092 43.5139H73.0575L66.1248 33.8338C68.8867 32.1479 70.2688 29.6725 70.2688 26.4062C70.2688 23.72 69.3127 21.5595 67.4007 19.9258C65.4886 18.2666 63.0587 17.437 60.1101 17.437H49.7938V43.5139H56.6449V35.4142H59.4739L65.4092 43.5139ZM56.6449 29.4883V23.3639H60.1504C61.1064 23.3639 61.8634 23.6412 62.4203 24.1935C63.0051 24.747 63.298 25.4845 63.298 26.4062C63.298 27.3278 63.0051 28.0787 62.4214 28.6576C61.8634 29.2122 61.1064 29.4883 60.1515 29.4883H56.6449ZM99.0832 17.437H92.231V30.4754L77.9708 16.9634H75.7792V43.515H82.6314V30.278L96.8905 43.9886H99.0821L99.0832 17.437ZM111.184 17.437H104.333V43.5139H111.184V17.437ZM122.088 23.5614V43.5139H128.94V23.5614H136.826V17.437H114.201V23.5614H122.088ZM139.69 17.437V32.4518C139.69 35.9033 140.779 38.696 142.957 40.8288C145.134 42.9361 147.923 43.9897 151.322 43.9897C154.668 43.9897 157.443 42.9228 159.647 40.7889C161.852 38.6295 162.954 35.8501 162.954 32.4518V17.437H156.103V32.9642C156.103 34.4393 155.664 35.6116 154.788 36.4812C153.911 37.3241 152.756 37.7455 151.322 37.7455C149.888 37.7455 148.733 37.3241 147.856 36.4812C146.981 35.6116 146.542 34.4404 146.542 32.9653V17.4381L139.69 17.437ZM183.668 43.5139H191.316L184.386 33.8338C187.148 32.1479 188.529 29.6725 188.529 26.4062C188.529 23.72 187.573 21.5595 185.661 19.9258C183.749 18.2666 181.318 17.437 178.37 17.437H168.053V43.5139H174.905V35.4142H177.733L183.668 43.5139ZM174.905 29.4883V23.3639H178.41C179.366 23.3639 180.123 23.6412 180.68 24.1935C181.265 24.747 181.557 25.4845 181.557 26.4062C181.557 27.3278 181.265 28.0787 180.68 28.6576C180.123 29.2122 179.366 29.4883 178.41 29.4883H174.905ZM210.889 43.5139H219.016L208.5 29.8433L217.541 17.437H209.575L200.89 29.251V17.437H194.039V43.5139H200.89V30.5154L210.889 43.5139ZM236.954 41.3412L237.91 43.515H245.279L233.329 16.9634H231.138L219.187 43.515H226.557L227.513 41.3412H236.954ZM232.253 29.8433L234.524 35.8878H229.943L232.253 29.8433Z" fill="white"/>
<path d="M0.107422 0H143.742V5.42678H0.107422V0ZM101.335 55.3148H244.97V60.7416H101.335V55.3148Z" fill="#F20000"/>
</g>
<defs>
<clipPath id="clip0_443_5798">
<rect width="246" height="61" fill="white"/>
</clipPath>
</defs>
</svg>
