<svg width="34" height="38" viewBox="0 0 34 38" fill="none" xmlns="http://www.w3.org/2000/svg">
<path d="M9.06474 19.4709C9.06474 18.4476 8.3542 17.8369 7.1003 17.8369C6.58881 17.8369 6.24227 17.8862 6.06055 17.9357V21.2215C6.27538 21.2703 6.53948 21.287 6.90168 21.287C8.23947 21.287 9.06474 20.6103 9.06474 19.4709Z" fill="#DF3021"/>
<path d="M16.8272 17.8699C16.2652 17.8699 15.9029 17.9193 15.6875 17.9689V25.249C15.9025 25.2992 16.2492 25.2992 16.563 25.2992C18.8408 25.3152 20.3267 24.0611 20.3267 21.4031C20.3434 19.091 18.9893 17.8699 16.8272 17.8699Z" fill="#DF3021"/>
<path d="M31.6971 13.5924H30.7846V9.18973C30.7846 9.16227 30.7803 9.13461 30.7766 9.10681C30.7752 8.93198 30.7195 8.76027 30.5999 8.62422L23.2733 0.254851C23.2711 0.252712 23.2689 0.251953 23.2674 0.249607C23.2237 0.200831 23.1728 0.160265 23.119 0.125149C23.1031 0.114455 23.087 0.105486 23.0703 0.0962417C23.0237 0.0707842 22.9742 0.0496731 22.9233 0.0344262C22.9095 0.0305628 22.8971 0.0249055 22.8833 0.021318C22.8279 0.00820986 22.7705 0 22.7122 0H4.70622C3.884 0 3.21603 0.668724 3.21603 1.49026V13.5921H2.30377C1.12755 13.5921 0.173828 14.5454 0.173828 15.722V26.7981C0.173828 27.9739 1.12755 28.9278 2.30377 28.9278H3.2161V36.5097C3.2161 37.3312 3.88406 38 4.70629 38H29.2945C30.116 38 30.7847 37.3313 30.7847 36.5097V28.9278H31.6971C32.873 28.9278 33.8269 27.9739 33.8269 26.7981V15.7224C33.8269 14.5458 32.8729 13.5924 31.6971 13.5924ZM4.70622 1.49054H21.9671V9.11488C21.9671 9.52654 22.3011 9.85997 22.7122 9.85997H29.2944V13.5929H4.70622V1.49054ZM22.9997 21.3196C22.9997 23.4498 22.224 24.9185 21.1493 25.827C19.9785 26.8009 18.1952 27.2629 16.0167 27.2629C14.7128 27.2629 13.7885 27.1804 13.1604 27.0981V16.1689C14.0849 16.0207 15.2907 15.9381 16.562 15.9381C18.6739 15.9381 20.0445 16.3181 21.118 17.1265C22.2731 17.9851 22.9997 19.3551 22.9997 21.3196ZM3.56788 27.1477V16.1689C4.3434 16.0376 5.43352 15.9381 6.96883 15.9381C8.5205 15.9381 9.62683 16.2353 10.3694 16.83C11.0795 17.391 11.5571 18.3156 11.5571 19.4053C11.5571 20.4953 11.1949 21.4197 10.5341 22.0466C9.67567 22.8557 8.40466 23.2191 6.91847 23.2191C6.58884 23.2191 6.29066 23.2024 6.06058 23.1693V27.1479H3.56788V27.1477ZM29.2945 36.1063H4.70622V28.9278H29.2944V36.1063H29.2945ZM31.4537 18.0843H27.177V20.6266H31.1725V22.6738H27.177V27.1477H24.6525V16.0207H31.4537V18.0843Z" fill="#DF3021"/>
</svg>
