<svg width="32" height="24" viewBox="0 0 32 24" fill="none" xmlns="http://www.w3.org/2000/svg">
<path d="M25.6313 23.6766H0.666667C0.489856 23.6766 0.320286 23.6064 0.195262 23.4814C0.0702379 23.3563 0 23.1868 0 23.01V8.72062C0 8.54381 0.0702379 8.37424 0.195262 8.24922C0.320286 8.12419 0.489856 8.05396 0.666667 8.05396H25.6313C25.8081 8.05396 25.9777 8.12419 26.1027 8.24922C26.2278 8.37424 26.298 8.54381 26.298 8.72062V23.01C26.298 23.1868 26.2278 23.3563 26.1027 23.4814C25.9777 23.6064 25.8081 23.6766 25.6313 23.6766ZM1.33333 22.3433H24.9647V9.38729H1.33333V22.3433Z" fill="#DF3021"/>
<path d="M21.3335 21.6566H4.96888C4.79206 21.6566 4.62249 21.5864 4.49747 21.4614C4.37245 21.3364 4.30221 21.1668 4.30221 20.99C4.30168 20.6352 4.16045 20.295 3.9095 20.0442C3.65854 19.7934 3.31835 19.6523 2.96354 19.652C2.78673 19.652 2.61716 19.5817 2.49214 19.4567C2.36711 19.3317 2.29688 19.1621 2.29688 18.9853V12.746C2.29688 12.5692 2.36711 12.3996 2.49214 12.2746C2.61716 12.1495 2.78673 12.0793 2.96354 12.0793C3.31842 12.0788 3.6586 11.9376 3.90954 11.6866C4.16047 11.4357 4.30168 11.0955 4.30221 10.7406C4.30221 10.5638 4.37245 10.3943 4.49747 10.2692C4.62249 10.1442 4.79206 10.074 4.96888 10.074H21.3335C21.5104 10.074 21.6799 10.1442 21.8049 10.2692C21.93 10.3943 22.0002 10.5638 22.0002 10.7406C22.0006 11.0946 22.141 11.4341 22.3908 11.685C22.6406 11.9358 22.9795 12.0775 23.3335 12.0793C23.5104 12.0793 23.6799 12.1495 23.8049 12.2746C23.93 12.3996 24.0002 12.5692 24.0002 12.746V18.9853C24.0002 19.1621 23.93 19.3317 23.8049 19.4567C23.6799 19.5817 23.5104 19.652 23.3335 19.652C22.9788 19.6523 22.6387 19.7934 22.3878 20.0443C22.137 20.2951 21.9959 20.6352 21.9955 20.99C21.9955 21.166 21.926 21.3348 21.8019 21.4597C21.6779 21.5846 21.5095 21.6554 21.3335 21.6566ZM5.55421 20.3233H20.7542C20.8734 19.8617 21.1135 19.4402 21.4496 19.1022C21.7858 18.7641 22.206 18.5218 22.6669 18.4V13.328C22.2047 13.2078 21.7831 12.9664 21.4454 12.6288C21.1078 12.2911 20.8664 11.8694 20.7462 11.4073H5.55088C5.43082 11.8695 5.18949 12.2912 4.85182 12.6289C4.51415 12.9666 4.09241 13.2079 3.63021 13.328V18.4C4.09267 18.5204 4.51456 18.7622 4.85224 19.1003C5.18992 19.4385 5.43111 19.8607 5.55088 20.3233H5.55421Z" fill="#DF3021"/>
<path d="M13.149 19.54C12.4221 19.5401 11.7115 19.3247 11.1071 18.9209C10.5027 18.5172 10.0316 17.9433 9.75342 17.2717C9.47523 16.6002 9.40244 15.8613 9.54426 15.1484C9.68608 14.4355 10.0361 13.7806 10.5502 13.2667C11.0642 12.7528 11.7191 12.4029 12.432 12.2612C13.1449 12.1195 13.8838 12.1924 14.5553 12.4707C15.2268 12.749 15.8006 13.2202 16.2043 13.8247C16.6079 14.4292 16.8232 15.1398 16.823 15.8667C16.8214 16.8405 16.4338 17.774 15.7451 18.4626C15.0564 19.1512 14.1228 19.5386 13.149 19.54ZM13.149 13.5247C12.6859 13.5245 12.2332 13.6617 11.8481 13.9189C11.463 14.1761 11.1628 14.5416 10.9854 14.9694C10.8081 15.3972 10.7616 15.8679 10.8518 16.3221C10.942 16.7763 11.1649 17.1936 11.4923 17.5211C11.8196 17.8486 12.2367 18.0718 12.6909 18.1622C13.145 18.2527 13.6158 18.2065 14.0437 18.0294C14.4715 17.8523 14.8373 17.5523 15.0947 17.1673C15.3521 16.7824 15.4895 16.3297 15.4896 15.8667C15.4893 15.2459 15.2426 14.6506 14.8038 14.2115C14.3649 13.7724 13.7698 13.5254 13.149 13.5247Z" fill="#DF3021"/>
<path d="M27.2126 19.8586C27.0416 19.8586 26.877 19.7929 26.7531 19.675C26.6291 19.5572 26.5552 19.3962 26.5467 19.2253C26.5381 19.0545 26.5955 18.8869 26.7071 18.7572C26.8186 18.6276 26.9757 18.5457 27.1459 18.5286L27.9153 18.448L26.5619 5.56329L5.09993 7.81663C4.924 7.8351 4.74794 7.78294 4.61048 7.6716C4.47302 7.56027 4.38541 7.39889 4.36693 7.22296C4.34846 7.04703 4.40062 6.87097 4.51196 6.73351C4.62329 6.59604 4.78467 6.50844 4.9606 6.48996L27.0833 4.16729C27.1704 4.15805 27.2585 4.16607 27.3425 4.1909C27.4265 4.21572 27.5048 4.25686 27.5729 4.31197C27.641 4.36707 27.6976 4.43506 27.7394 4.51204C27.7812 4.58903 27.8074 4.6735 27.8166 4.76063L29.3093 18.972C29.3185 19.0591 29.3105 19.1472 29.2857 19.2312C29.2608 19.3152 29.2197 19.3935 29.1646 19.4616C29.1095 19.5297 29.0415 19.5863 28.9645 19.6281C28.8875 19.6699 28.8031 19.6961 28.7159 19.7053L27.2833 19.856C27.2593 19.8573 27.2359 19.8586 27.2126 19.8586Z" fill="#DF3021"/>
<path d="M30.2447 15.8988C30.0789 15.8986 29.9191 15.8367 29.7965 15.7251C29.6739 15.6134 29.5973 15.4601 29.5816 15.2951C29.566 15.13 29.6124 14.965 29.7118 14.8323C29.8113 14.6996 29.9566 14.6087 30.1194 14.5774L30.5534 14.4941L28.1121 1.7701L7.21807 5.7781C7.04418 5.81143 6.86417 5.77431 6.71764 5.67492C6.57111 5.57552 6.47007 5.42199 6.43674 5.2481C6.40341 5.0742 6.44053 4.89419 6.53992 4.74766C6.63932 4.60114 6.79285 4.50009 6.96674 4.46676L28.5161 0.33343C28.6896 0.300205 28.8692 0.337222 29.0155 0.436349C29.1617 0.535476 29.2627 0.688606 29.2961 0.862097L31.9881 14.8961C32.0213 15.0697 31.9842 15.2494 31.8849 15.3957C31.7857 15.542 31.6324 15.6428 31.4587 15.6761L30.3707 15.8848C30.3293 15.8933 30.2871 15.898 30.2447 15.8988Z" fill="#DF3021"/>
</svg>
