<svg width="26" height="26" viewBox="0 0 26 26" fill="none" xmlns="http://www.w3.org/2000/svg">
<g clip-path="url(#clip0_420_4519)">
<path d="M25.3293 8.18223C24.4383 7.29122 22.9886 7.29127 22.0973 8.18243C21.8232 8.4568 20.073 10.2084 19.8057 10.476V4.4396C19.8057 3.82921 19.568 3.25538 19.1363 2.82379L16.9819 0.669297C16.5503 0.237656 15.9765 0 15.3661 0H2.28613C1.0261 0 0.000976562 1.02512 0.000976562 2.28516V23.7148C0.000976562 24.9749 1.0261 26 2.28613 26H17.5205C18.7805 26 19.8057 24.9749 19.8057 23.7148V16.9422L25.3292 11.4139C26.2223 10.5209 26.2225 9.07537 25.3293 8.18223ZM15.2354 1.52344C15.3793 1.52344 15.6566 1.4985 15.9047 1.74652L18.0591 3.90102C18.3009 4.14279 18.2823 4.40771 18.2823 4.57031H15.2354V1.52344ZM18.2822 23.7148C18.2822 24.1349 17.9406 24.4766 17.5205 24.4766H2.28613C1.86612 24.4766 1.52441 24.1349 1.52441 23.7148V2.28516C1.52441 1.86514 1.86612 1.52344 2.28613 1.52344H13.7119V5.33203C13.7119 5.7527 14.053 6.09375 14.4736 6.09375H18.2822V12.0008C18.2822 12.0008 16.035 14.25 16.0349 14.25L14.9581 15.3268C14.8745 15.4104 14.8115 15.5124 14.7741 15.6245L13.6968 18.8562C13.6056 19.13 13.6768 19.4317 13.8809 19.6357C14.0852 19.84 14.3871 19.9109 14.6604 19.8198L17.8921 18.7425C18.0042 18.7052 18.1062 18.6422 18.1898 18.5585L18.2822 18.4661V23.7148ZM16.5739 15.8654L17.6512 16.9427L17.2397 17.3541L15.6239 17.8927L16.1625 16.2769L16.5739 15.8654ZM18.7282 15.8652L17.651 14.788C18.2246 14.2139 20.7722 11.664 21.3125 11.1233L22.3898 12.2005L18.7282 15.8652ZM24.2518 10.3369L23.4666 11.1228L22.3894 10.0456L23.1748 9.25945C23.472 8.96243 23.9552 8.96248 24.2521 9.25945C24.549 9.55652 24.5506 10.0381 24.2518 10.3369Z" fill="#DF3021"/>
<path d="M14.4736 7.61719H3.80957C3.3889 7.61719 3.04785 7.95823 3.04785 8.37891C3.04785 8.79958 3.3889 9.14062 3.80957 9.14062H14.4736C14.8943 9.14062 15.2354 8.79958 15.2354 8.37891C15.2354 7.95823 14.8943 7.61719 14.4736 7.61719Z" fill="#DF3021"/>
<path d="M11.4268 10.6641H3.80957C3.3889 10.6641 3.04785 11.0051 3.04785 11.4258C3.04785 11.8465 3.3889 12.1875 3.80957 12.1875H11.4268C11.8474 12.1875 12.1885 11.8465 12.1885 11.4258C12.1885 11.0051 11.8474 10.6641 11.4268 10.6641Z" fill="#DF3021"/>
<path d="M11.4268 13.7109H3.80957C3.3889 13.7109 3.04785 14.052 3.04785 14.4727C3.04785 14.8933 3.3889 15.2344 3.80957 15.2344H11.4268C11.8474 15.2344 12.1885 14.8933 12.1885 14.4727C12.1885 14.052 11.8474 13.7109 11.4268 13.7109Z" fill="#DF3021"/>
<path d="M11.4268 16.7578H3.80957C3.3889 16.7578 3.04785 17.0989 3.04785 17.5195C3.04785 17.9402 3.3889 18.2812 3.80957 18.2812H11.4268C11.8474 18.2812 12.1885 17.9402 12.1885 17.5195C12.1885 17.0989 11.8474 16.7578 11.4268 16.7578Z" fill="#DF3021"/>
<path d="M14.4736 21.4297H9.90332C9.48265 21.4297 9.1416 21.7707 9.1416 22.1914C9.1416 22.6121 9.48265 22.9531 9.90332 22.9531H14.4736C14.8943 22.9531 15.2354 22.6121 15.2354 22.1914C15.2354 21.7707 14.8943 21.4297 14.4736 21.4297Z" fill="#DF3021"/>
</g>
<defs>
<clipPath id="clip0_420_4519">
<rect width="26" height="26" fill="white"/>
</clipPath>
</defs>
</svg>
