<svg width="32" height="24" viewBox="0 0 32 24" fill="none" xmlns="http://www.w3.org/2000/svg">
<path d="M10 20C10.89 20 11.76 19.7361 12.5001 19.2416C13.2401 18.7471 13.8169 18.0443 14.1575 17.2221C14.4981 16.3998 14.5872 15.495 14.4135 14.6221C14.2399 13.7492 13.8113 12.9474 13.182 12.318C12.5526 11.6887 11.7508 11.2601 10.8779 11.0865C10.005 10.9128 9.10019 11.0019 8.27792 11.3425C7.45566 11.6831 6.75285 12.2599 6.25839 12.9999C5.76392 13.74 5.5 14.61 5.5 15.5C5.50132 16.6931 5.97585 17.8369 6.81948 18.6805C7.66311 19.5241 8.80693 19.9987 10 20ZM10 12C10.6922 12 11.3689 12.2053 11.9445 12.5899C12.5201 12.9744 12.9687 13.5211 13.2336 14.1606C13.4985 14.8002 13.5678 15.5039 13.4327 16.1828C13.2977 16.8618 12.9644 17.4854 12.4749 17.9749C11.9854 18.4644 11.3618 18.7977 10.6828 18.9328C10.0039 19.0678 9.30015 18.9985 8.66061 18.7336C8.02107 18.4687 7.47444 18.0201 7.08986 17.4445C6.70527 16.8689 6.5 16.1922 6.5 15.5C6.50119 14.5721 6.87032 13.6826 7.52644 13.0264C8.18256 12.3703 9.07211 12.0012 10 12Z" fill="#DF3021"/>
<path d="M5.5 21H25.5V22H5.5V21Z" fill="#DF3021"/>
<path d="M15.5 19H25.5V20H15.5V19Z" fill="#DF3021"/>
<path d="M15.5 17H25.5V18H15.5V17Z" fill="#DF3021"/>
<path d="M20.5 14.6178L20.776 14.0678C20.7896 14.0469 20.8093 14.0307 20.8324 14.0212C20.8555 14.0118 20.881 14.0097 20.9053 14.0151C20.9297 14.0205 20.9518 14.0333 20.9688 14.0517C20.9857 14.07 20.9966 14.0931 21 14.1178V14.4393C21 14.748 21.0915 15.0497 21.263 15.3064C21.4344 15.563 21.6781 15.763 21.9633 15.8812C22.2485 15.9993 22.5622 16.0302 22.865 15.97C23.1677 15.9097 23.4458 15.7611 23.664 15.5428L24.3535 14.8533L23.6465 14.1463L22.957 14.8358C22.8786 14.9143 22.7787 14.9677 22.6699 14.9894C22.5612 15.011 22.4484 14.9999 22.346 14.9575C22.2435 14.915 22.1559 14.8431 22.0944 14.7509C22.0328 14.6587 21.9999 14.5502 22 14.4393V14.1178C22 13.866 21.915 13.6215 21.7587 13.424C21.6024 13.2265 21.384 13.0875 21.1389 13.0297C20.8937 12.9718 20.6363 12.9984 20.4081 13.1051C20.18 13.2119 19.9946 13.3926 19.882 13.6178L19.6055 14.1708C19.4816 14.4204 19.2902 14.6304 19.0531 14.7769C18.8161 14.9234 18.5427 15.0006 18.264 14.9998H17.5V15.9998H18.264C18.7286 16.0013 19.1843 15.8726 19.5795 15.6284C19.9747 15.3841 20.2936 15.034 20.5 14.6178Z" fill="#DF3021"/>
<path d="M31.3535 1.64639L29.8535 0.146393C29.7597 0.0526578 29.6326 0 29.5 0C29.3674 0 29.2403 0.0526578 29.1465 0.146393L22.293 6.99989H3C2.86739 6.99989 2.74021 7.05257 2.64645 7.14634C2.55268 7.24011 2.5 7.36728 2.5 7.49989V8.99989H1C0.867392 8.99989 0.740215 9.05257 0.646447 9.14634C0.552678 9.24011 0.5 9.36728 0.5 9.49989V23.4999C0.5 23.6325 0.552678 23.7597 0.646447 23.8534C0.740215 23.9472 0.867392 23.9999 1 23.9999H27C27.1326 23.9999 27.2598 23.9472 27.3536 23.8534C27.4473 23.7597 27.5 23.6325 27.5 23.4999V21.9999H29C29.1326 21.9999 29.2598 21.9472 29.3536 21.8534C29.4473 21.7597 29.5 21.6325 29.5 21.4999V7.49989C29.5 7.36728 29.4473 7.24011 29.3536 7.14634C29.2598 7.05257 29.1326 6.99989 29 6.99989H26.707L31.3535 2.35339C31.4472 2.25963 31.4999 2.13248 31.4999 1.99989C31.4999 1.86731 31.4472 1.74016 31.3535 1.64639ZM20.637 10.3464L21.156 10.8654L20.118 11.3844L20.637 10.3464ZM20.293 8.99989H6.5V7.99989H21.293L20.293 8.99989ZM3.5 7.99989H5.5V8.99989H3.5V7.99989ZM1.5 9.99989H3.5V22.9999H1.5V9.99989ZM26.5 22.9999H4.5V9.99989H19.691L18.55 12.2764C18.5014 12.3706 18.4841 12.4778 18.5004 12.5825C18.5168 12.6872 18.566 12.7841 18.6409 12.859C18.7158 12.9339 18.8127 12.9831 18.9174 12.9995C19.0221 13.0158 19.1293 12.9984 19.2235 12.9499L22.2235 11.4499C22.2715 11.4256 22.3154 11.3938 22.3535 11.3559L23.707 9.99989H26.5V22.9999ZM28.5 7.99989V20.9999H27.5V9.49989C27.5 9.36728 27.4473 9.24011 27.3536 9.14634C27.2598 9.05257 27.1326 8.99989 27 8.99989H24.707L25.707 7.99989H28.5ZM22 10.2929L21.207 9.49989L29.5 1.20689L30.293 1.99989L22 10.2929Z" fill="#DF3021"/>
</svg>
