<svg width="32" height="30" viewBox="0 0 32 30" fill="none" xmlns="http://www.w3.org/2000/svg">
<path d="M31.9999 4.48769C31.9999 4.48419 31.9995 4.48069 31.9993 4.47713C31.999 4.46319 31.9982 4.44944 31.9965 4.43582C31.9959 4.43082 31.995 4.42582 31.9942 4.42082C31.9923 4.40826 31.99 4.39588 31.9872 4.38376C31.986 4.37894 31.9848 4.37419 31.9835 4.36938C31.9798 4.35619 31.9757 4.34326 31.971 4.33051C31.9701 4.32807 31.9695 4.32557 31.9686 4.32319L30.697 1.06808C30.5688 0.740076 30.2584 0.528076 29.9062 0.528076H27.591C27.3386 0.528076 27.134 0.732638 27.134 0.985013C27.134 1.23739 27.3386 1.44195 27.591 1.44195H29.862L30.8739 4.03251H21.3068L20.7074 1.44195H24.2407C24.493 1.44195 24.6976 1.23739 24.6976 0.985013C24.6976 0.732638 24.493 0.528076 24.2407 0.528076H20.1326H15.5284H5.75477C5.40252 0.528076 5.09214 0.740076 4.96395 1.0682L3.69239 4.32319C3.69146 4.32563 3.69096 4.32813 3.69002 4.33051C3.68527 4.34319 3.68114 4.35613 3.67752 4.36938C3.67621 4.37419 3.67496 4.37894 3.67383 4.38376C3.67096 4.39594 3.66864 4.40832 3.66677 4.42082C3.66602 4.42582 3.66508 4.43082 3.66446 4.43582C3.66289 4.44944 3.66202 4.46319 3.66164 4.47713C3.66158 4.48063 3.66114 4.48413 3.66108 4.48769C3.66108 4.48826 3.66102 4.48882 3.66102 4.48938V11.2025C3.66102 11.4549 3.86558 11.6594 4.11796 11.6594C4.37033 11.6594 4.57489 11.4549 4.57489 11.2025V4.94638H14.2606V11.8919C14.2606 12.1635 14.4206 12.411 14.6683 12.5224C14.759 12.5632 14.8556 12.5832 14.9515 12.5832C15.1175 12.5832 15.2817 12.5236 15.4104 12.4094L17.8305 10.2654L20.2506 12.4094C20.4537 12.5896 20.7451 12.6339 20.9928 12.5224C21.2404 12.4109 21.4004 12.1635 21.4004 11.8919V4.94638H31.0861V25.4415C31.0861 25.7694 30.8193 26.0362 30.4914 26.0362H22.1131C22.1131 26.031 22.1125 26.0258 22.1124 26.0207C22.1119 25.9797 22.1104 25.9387 22.1069 25.8981C22.8936 26.1067 23.7342 25.7023 24.0494 24.9292C24.2152 24.5225 24.2128 24.0757 24.0425 23.6709C24.0264 23.6328 24.0087 23.5958 23.9901 23.5593C23.9867 23.5527 23.9834 23.5459 23.9799 23.5393C23.9616 23.5045 23.9421 23.4706 23.9215 23.4375C23.9175 23.4311 23.9134 23.4248 23.9094 23.4185C23.8876 23.3845 23.865 23.3512 23.841 23.3192C23.8405 23.3185 23.84 23.318 23.8396 23.3174C23.8157 23.2857 23.7905 23.2552 23.7644 23.2254C23.7597 23.22 23.755 23.2145 23.7502 23.209C23.7244 23.1803 23.6975 23.1525 23.6698 23.1257C23.6644 23.1204 23.6589 23.1153 23.6534 23.1102C23.6243 23.0829 23.5945 23.0563 23.5635 23.0313C23.5625 23.0305 23.5614 23.0297 23.5604 23.0288C23.5299 23.0043 23.4982 22.981 23.4659 22.9587C23.46 22.9546 23.4543 22.9505 23.4484 22.9465C23.416 22.9247 23.3829 22.9042 23.3489 22.8846C23.3461 22.883 23.3435 22.8811 23.3407 22.8795C23.5338 22.7123 23.6862 22.5008 23.7855 22.2575C23.9513 21.8508 23.9489 21.4039 23.7785 20.9991C23.6295 20.6449 23.3676 20.36 23.0321 20.1833C22.9842 20.158 22.9347 20.135 22.8839 20.1143L15.7722 17.2145L19.0826 16.1899C19.8702 15.946 20.3137 15.106 20.0714 14.3175C19.9809 14.0231 19.8016 13.7749 19.57 13.5934C19.2253 13.3234 18.7646 13.2014 18.3077 13.2974C18.3056 13.2979 18.3034 13.2982 18.3012 13.2988C18.2759 13.3045 15.7382 13.8751 13.0878 14.3919C12.9702 14.4149 12.8556 14.437 12.7427 14.4587C12.6523 14.4761 12.5632 14.4932 12.4758 14.5099C12.4506 14.5147 12.4254 14.5194 12.4005 14.5242C12.2461 14.5535 12.0966 14.5815 11.9512 14.6085C11.8927 14.6194 11.8347 14.6302 11.7776 14.6407C8.44907 15.2539 7.51401 15.2649 7.25451 15.2297C7.25351 15.2296 7.25264 15.2295 7.25164 15.2293C7.2477 15.2287 7.24383 15.2282 7.2402 15.2276C7.23758 15.2272 7.23514 15.2267 7.2327 15.2264C7.23095 15.226 7.22907 15.2257 7.22739 15.2255C7.2112 15.2225 7.19858 15.2195 7.18883 15.2165L7.11395 15.186L7.20726 14.9572C7.29901 14.7322 7.29764 14.485 7.20345 14.261C7.17989 14.205 7.1512 14.1522 7.11795 14.1029C7.0182 13.9552 6.87714 13.8402 6.70839 13.7714L4.25414 12.7707C4.02921 12.6789 3.78189 12.6804 3.55796 12.7746C3.33396 12.8687 3.16015 13.0446 3.0684 13.2695L0.0673385 20.6297C-0.122036 21.0941 0.101776 21.626 0.566213 21.8154L3.02052 22.8162C3.13258 22.8618 3.24852 22.8835 3.36271 22.8835C3.72164 22.8835 4.06252 22.6696 4.20621 22.3173L4.22877 22.262L4.79464 22.4927C4.79495 22.4928 4.79527 22.493 4.79564 22.4931C5.33689 22.7138 5.83558 23.0287 6.2672 23.4194C6.3457 23.4905 6.42195 23.564 6.49589 23.64C6.56983 23.7159 6.64133 23.7943 6.71039 23.8749C6.74489 23.9152 6.77883 23.9562 6.81201 23.9976C7.44095 24.7818 8.26545 25.397 9.19626 25.7766L9.83288 26.0361H5.16964C4.84177 26.0361 4.57495 25.7693 4.57495 25.4415V24.2853C4.57495 24.0329 4.37039 23.8283 4.11802 23.8283C3.86564 23.8283 3.66108 24.0329 3.66108 24.2853V25.4415C3.66108 26.2733 4.33777 26.95 5.16964 26.95H12.0742L17.9605 29.3501C18.1631 29.4328 18.3727 29.472 18.5792 29.4719C19.2279 29.4719 19.844 29.0853 20.1037 28.4485C20.2102 28.1873 20.2444 27.9143 20.2157 27.6519C20.5219 27.6958 20.8393 27.6555 21.127 27.5313C21.4195 27.405 21.6619 27.2038 21.834 26.95H30.4915C31.3233 26.95 32 26.2733 32 25.4414V4.48944C32 4.48882 31.9999 4.48832 31.9999 4.48769ZM15.8917 1.44195H19.7693L20.3687 4.03251H15.2922L15.8917 1.44195ZM14.3542 4.03251H4.78708L5.79901 1.44195H14.9537L14.3542 4.03251ZM20.4867 11.3976L18.289 9.45068C18.1583 9.33493 17.9944 9.27706 17.8306 9.27706C17.6667 9.27706 17.5028 9.33493 17.3721 9.45068L15.1746 11.3976V4.94638H20.4867V11.3976ZM3.36158 21.9683L0.915149 20.9708L3.91302 13.6186L6.35945 14.6162L3.36158 21.9683ZM21.6169 24.7258L21.0924 24.512C21.0922 24.5118 21.0919 24.5118 21.0917 24.5117C21.0915 24.5116 21.0913 24.5115 21.0911 24.5114C21.091 24.5114 21.091 24.5113 21.0909 24.5113L15.6293 22.2844C15.3957 22.1892 15.129 22.3013 15.0337 22.535C14.9384 22.7687 15.0506 23.0354 15.2843 23.1307L20.7461 25.3577C20.7689 25.367 20.7909 25.3773 20.8122 25.3887C20.8182 25.3918 20.8238 25.3957 20.8297 25.399C20.8447 25.4075 20.8597 25.416 20.8739 25.4255C20.8807 25.43 20.887 25.4353 20.8936 25.44C20.9062 25.449 20.919 25.4579 20.9309 25.4677C20.9381 25.4735 20.9445 25.4801 20.9515 25.4862C20.9621 25.4957 20.973 25.5048 20.983 25.5148C20.9899 25.5217 20.9961 25.5292 21.0027 25.5363C21.0119 25.5462 21.0214 25.5559 21.03 25.5663C21.0365 25.5742 21.0423 25.5827 21.0485 25.5908C21.0564 25.6011 21.0645 25.6112 21.0717 25.6218C21.0777 25.6307 21.0829 25.64 21.0885 25.6491C21.095 25.6596 21.1019 25.6699 21.1079 25.6807C21.1132 25.6905 21.1177 25.7007 21.1227 25.7106C21.1279 25.7213 21.1336 25.7318 21.1384 25.7427C21.1429 25.7532 21.1466 25.7641 21.1507 25.7748C21.1548 25.7856 21.1593 25.7962 21.1629 25.8072C21.1665 25.8183 21.1693 25.8296 21.1724 25.8408C21.1754 25.8518 21.1789 25.8627 21.1814 25.8739C21.184 25.8852 21.1856 25.8967 21.1877 25.9081C21.1897 25.9195 21.1921 25.9307 21.1936 25.9422C21.1951 25.9537 21.1957 25.9653 21.1966 25.9769C21.1975 25.9885 21.1989 26.0001 21.1993 26.0117C21.1997 26.0231 21.1991 26.0347 21.199 26.0462C21.1989 26.0581 21.199 26.07 21.1983 26.0819C21.1976 26.0932 21.1959 26.1045 21.1947 26.1158C21.1934 26.128 21.1924 26.1402 21.1904 26.1523C21.1885 26.1635 21.1857 26.1745 21.1834 26.1856C21.1808 26.198 21.1786 26.2103 21.1753 26.2225C21.1724 26.2333 21.1685 26.2441 21.1651 26.2548C21.1612 26.2671 21.1577 26.2793 21.1531 26.2914C21.1492 26.2997 21.1454 26.3081 21.1419 26.3165C21.141 26.3185 21.1406 26.3205 21.1399 26.3223C21.0685 26.4871 20.9367 26.6181 20.7647 26.6924C20.5753 26.7741 20.3585 26.777 20.1697 26.7L19.2021 26.3054C19.1976 26.3036 19.193 26.3023 19.1885 26.3007C19.1839 26.2986 19.1796 26.2962 19.175 26.2943L14.7327 24.483C14.4989 24.3878 14.2324 24.4999 14.1371 24.7337C14.0418 24.9673 14.154 25.234 14.3877 25.3293L18.8299 27.1406C18.8347 27.1426 18.8395 27.144 18.8443 27.1457C18.8486 27.1476 18.8526 27.1499 18.8571 27.1516C19.2299 27.3037 19.4096 27.7307 19.2576 28.1035C19.1055 28.4765 18.6787 28.6562 18.3057 28.504L12.3373 26.0704C12.337 26.0703 12.3368 26.0702 12.3365 26.07L9.54151 24.9303C9.04951 24.7297 8.59263 24.4513 8.18932 24.1087C7.94732 23.9032 7.72464 23.6746 7.52514 23.4258C7.32857 23.1808 7.11295 22.9522 6.88095 22.7422C6.37051 22.2801 5.78083 21.9078 5.14089 21.6468C5.14083 21.6468 5.14077 21.6467 5.1407 21.6467L4.57408 21.4157L5.70264 18.6479L6.76914 16.0324L6.84783 16.0644C6.92189 16.0946 7.02751 16.1375 7.31176 16.1482C7.66689 16.1643 8.25439 16.1272 9.30688 15.9785C10.0228 15.8774 10.901 15.7312 11.9262 15.5425C11.9514 15.5379 11.9765 15.5333 12.002 15.5286C12.0499 15.5197 12.0984 15.5107 12.147 15.5017C12.1848 15.4947 12.2228 15.4876 12.2611 15.4804C12.3048 15.4722 12.3486 15.464 12.3927 15.4557C12.4395 15.4469 12.4869 15.438 12.5345 15.4289C12.5726 15.4217 12.6107 15.4145 12.6492 15.4072C12.7073 15.3961 12.7663 15.3848 12.8256 15.3734C12.8561 15.3675 12.8863 15.3618 12.917 15.3559C13.0078 15.3384 13.0997 15.3207 13.1933 15.3025C15.8346 14.7887 18.384 14.2169 18.4986 14.1912C18.51 14.1888 18.5214 14.1874 18.5329 14.1857C18.8264 14.1423 19.1139 14.312 19.1981 14.5859C19.2277 14.6822 19.2311 14.7804 19.2125 14.8727C19.1716 15.076 19.0238 15.2515 18.8126 15.3168L14.2825 16.7189C14.0981 16.776 13.9694 16.9427 13.9611 17.1356C13.9527 17.3284 14.0664 17.5057 14.2451 17.5786L22.5391 20.9605C22.7197 21.0342 22.8609 21.1737 22.9365 21.3535C23.0121 21.5333 23.0132 21.7318 22.9395 21.9124C22.8659 22.093 22.7264 22.2342 22.5465 22.3098C22.4567 22.3475 22.3621 22.3667 22.2674 22.3672C22.266 22.3672 22.2647 22.367 22.2633 22.367C22.241 22.367 22.2189 22.3662 22.1967 22.3641C22.1901 22.3635 22.1836 22.3621 22.177 22.3613C22.1601 22.3593 22.1432 22.3573 22.1264 22.3541C22.1157 22.352 22.1052 22.3489 22.0947 22.3464C22.082 22.3434 22.0694 22.3408 22.0569 22.3372C22.0439 22.3333 22.0312 22.3283 22.0185 22.3237C22.0084 22.3201 21.998 22.3171 21.988 22.313L16.5258 20.0858C16.2921 19.9905 16.0255 20.1027 15.9302 20.3364C15.8349 20.5701 15.9471 20.8368 16.1808 20.9321L22.803 23.6323C22.8482 23.6507 22.8909 23.6732 22.9307 23.6995C23.0501 23.7782 23.1437 23.8904 23.2004 24.0253C23.2665 24.1826 23.2757 24.3542 23.2275 24.5157C23.2207 24.5387 23.2126 24.5616 23.2034 24.5842C23.1939 24.6075 23.1834 24.63 23.1718 24.6518C23.1449 24.7024 23.112 24.7482 23.0754 24.7898C23.0527 24.8157 23.0284 24.8398 23.0025 24.862C22.9984 24.8655 22.9946 24.8695 22.9904 24.8728C22.8237 25.0092 22.6007 25.0678 22.3829 25.0238C22.3387 25.0149 22.2948 25.0022 22.2515 24.9846L21.6169 24.7258Z" fill="#DF3021"/>
</svg>
