<svg width="32" height="31" viewBox="0 0 32 31" fill="none" xmlns="http://www.w3.org/2000/svg">
<path fill-rule="evenodd" clip-rule="evenodd" d="M7.77398 10.1359H5.08293L3.06498 2.21091C2.9692 1.84636 2.76583 1.52408 2.46668 1.37218C1.72012 0.990458 0.897451 0.686665 0 0.533448V0.228334H4.33506C4.93336 0.228334 5.38208 0.686665 5.45687 1.21896L6.5039 6.93556L9.19363 0.228334H11.8099L7.77398 10.1359ZM13.3061 10.1359H10.7647L12.8574 0.228271H15.3989L13.3061 10.1359ZM18.686 2.97321C18.7608 2.43959 19.2095 2.13448 19.733 2.13448C20.5557 2.05787 21.4518 2.21109 22.1997 2.59149L22.6484 0.458331C21.9005 0.153217 21.0779 0 20.3313 0C17.8646 0 16.0697 1.37235 16.0697 3.277C16.0697 4.72596 17.3411 5.48677 18.2386 5.9451C19.2095 6.40211 19.5834 6.70722 19.5086 7.16423C19.5086 7.84975 18.7608 8.15486 18.0142 8.15486C17.1168 8.15486 16.2193 7.92636 15.3979 7.54463L14.9492 9.67911C15.8467 10.0595 16.8176 10.2127 17.7151 10.2127C20.4809 10.288 22.1997 8.91699 22.1997 6.85912C22.1997 4.26763 18.686 4.11574 18.686 2.97321ZM31.0943 10.1359L29.0763 0.228271H26.9088C26.4601 0.228271 26.0113 0.533385 25.8618 0.990396L22.125 10.1359H24.7413L25.2635 8.68825H28.478L28.7772 10.1359H31.0943ZM27.2827 2.89673L28.0293 6.63074H25.9365L27.2827 2.89673Z" fill="#172B85"/>
<path fill-rule="evenodd" clip-rule="evenodd" d="M15.4111 28.1559C13.9907 29.3532 12.1481 30.0759 10.1348 30.0759C5.64205 30.0759 2 26.4772 2 22.038C2 17.5987 5.64205 14 10.1348 14C12.1481 14 13.9907 14.7227 15.4111 15.92C16.8316 14.7227 18.6741 14 20.6875 14C25.1802 14 28.8223 17.5987 28.8223 22.038C28.8223 26.4772 25.1802 30.0759 20.6875 30.0759C18.6741 30.0759 16.8316 29.3532 15.4111 28.1559Z" fill="#ED0006"/>
<path fill-rule="evenodd" clip-rule="evenodd" d="M20.6876 30.0759C25.1803 30.0759 28.8224 26.4772 28.8224 22.038C28.8224 17.5987 25.1803 14 20.6876 14C18.6742 14 16.8316 14.7228 15.4111 15.9201C17.1603 17.3944 18.2695 19.5882 18.2695 22.038C18.2695 24.4878 17.1603 26.6816 15.4112 28.1559C16.8317 29.3531 18.6742 30.0759 20.6876 30.0759Z" fill="#F9A000"/>
<path fill-rule="evenodd" clip-rule="evenodd" d="M15.4116 28.1553C13.6627 26.681 12.5537 24.4873 12.5537 22.0377C12.5537 19.5881 13.6627 17.3945 15.4116 15.9202C17.1605 17.3945 18.2695 19.5881 18.2695 22.0378C18.2695 24.4873 17.1605 26.681 15.4116 28.1553Z" fill="#FF5E00"/>
</svg>
