<svg width="40" height="39" viewBox="0 0 40 39" fill="none" xmlns="http://www.w3.org/2000/svg">
<g clip-path="url(#clip0_1182_12678)">
<mask id="mask0_1182_12678" style="mask-type:luminance" maskUnits="userSpaceOnUse" x="0" y="0" width="40" height="39">
<path d="M0.0673828 3.8147e-06H39.0674V39H0.0673828V3.8147e-06Z" fill="white"/>
</mask>
<g mask="url(#mask0_1182_12678)">
<path d="M6.83806 27.6961C4.21691 28.8201 1.96207 31.3016 0.866266 36.5328C0.671494 37.4627 1.27158 38.238 1.98279 38.238H9.64858C10.5713 38.238 10.9849 37.8205 11.1742 37.114L11.8899 35.7212L17.1045 35.779C20.5348 35.817 21.5128 35.6259 24.7239 34.3382C29.1882 32.5481 35.661 29.6184 37.1036 29.076C39.2013 28.2629 38.4154 25.2641 35.8152 25.9166L27.306 28.2103M19.5013 31.7403C21.4725 31.2217 23.8137 30.3473 25.9596 29.3635C26.778 28.9883 27.4938 28.433 27.3823 27.5424C27.2709 26.6519 26.4482 26.0142 25.5543 26.1252C24.6975 26.2316 19.5065 26.9846 18.6499 27.091C17.3061 27.2579 15.5264 27.0257 13.6012 26.9042" stroke="#DF3021" stroke-width="1.81743" stroke-miterlimit="2.613" stroke-linecap="round" stroke-linejoin="round"/>
<path d="M16.5205 8.59473C17.3596 8.59473 18.0439 7.9104 18.0439 7.07129C18.0439 6.23218 17.3596 5.54785 16.5205 5.54785C15.6814 5.54785 14.9971 6.23218 14.9971 7.07129C14.9971 7.9104 15.6814 8.59473 16.5205 8.59473Z" stroke="#DF3021" stroke-width="1.81743" stroke-miterlimit="2.613" stroke-linecap="round" stroke-linejoin="round"/>
<path d="M22.6143 14.6887C23.4534 14.6887 24.1377 14.0044 24.1377 13.1652C24.1377 12.3262 23.4534 11.6418 22.6143 11.6418C21.7751 11.6418 21.0908 12.3262 21.0908 13.1652C21.0908 14.0044 21.7751 14.6887 22.6143 14.6887Z" stroke="#DF3021" stroke-width="1.81743" stroke-miterlimit="2.613" stroke-linecap="round" stroke-linejoin="round"/>
<path d="M22.206 5.5481L16.9287 14.6887" stroke="#DF3021" stroke-width="1.81743" stroke-miterlimit="2.613" stroke-linecap="round" stroke-linejoin="round"/>
<path d="M29.4225 14.4995L20.2086 23.7818C19.8531 24.1354 19.2783 24.1337 18.9248 23.7782L9.76234 14.5478C9.56963 14.3808 9.44775 14.1343 9.44775 13.8593C9.44775 13.3565 9.85535 12.949 10.3582 12.949H11.9499V2.28493C11.9499 1.44704 12.6355 0.761497 13.4734 0.761497H25.6609C26.4988 0.761497 27.1843 1.44704 27.1843 2.28493V12.949H28.7788C29.0103 12.949 29.2419 13.0395 29.419 13.2157C29.7744 13.5692 29.776 14.144 29.4225 14.4995Z" stroke="#DF3021" stroke-width="1.81743" stroke-miterlimit="2.613" stroke-linecap="round" stroke-linejoin="round"/>
<path d="M10.1733 26.9033H10.1747" stroke="#DF3021" stroke-width="1.81743" stroke-miterlimit="2.613" stroke-linecap="round" stroke-linejoin="round"/>
</g>
</g>
<defs>
<clipPath id="clip0_1182_12678">
<rect width="39" height="39" fill="white" transform="translate(0.0673828)"/>
</clipPath>
</defs>
</svg>
