<svg width="43" height="44" viewBox="0 0 43 44" fill="none" xmlns="http://www.w3.org/2000/svg">
<path d="M35.7993 27.4752L28.6124 30.5114C28.6252 30.4217 28.638 30.332 28.638 30.236C28.638 28.8396 27.5042 27.7058 26.1078 27.7058H20.9322C20.7208 27.7058 20.5159 27.661 20.3237 27.5713L15.9359 25.5856C15.2506 25.2781 14.4883 25.1116 13.7389 25.1116H10.1646V26.3927H13.7389C14.3089 26.3927 14.8854 26.5144 15.4107 26.7514L19.7984 28.7371C20.1571 28.8972 20.5415 28.9805 20.9386 28.9805H26.1142C26.806 28.9805 27.3633 29.5442 27.3633 30.2295C27.3633 30.9149 26.7996 31.4786 26.1142 31.4786H19.4077V32.7597H26.1078C26.5498 32.7597 26.9598 32.638 27.3185 32.4394V32.4458L36.2925 28.6474C37.0356 28.3335 37.8491 28.3399 38.5857 28.6602C39.1494 28.91 39.6106 29.3136 39.918 29.8388L24.0773 38.2428C22.8667 38.8833 21.4254 39.0114 20.1187 38.5951L12.3681 36.1034L10.1582 36.0713V37.3524H12.0734L19.728 39.8121C20.3621 40.0171 21.0155 40.1132 21.6752 40.1132C22.7129 40.1132 23.7506 39.8634 24.673 39.3702L41.5514 30.4281L41.3657 29.9029C40.9749 28.8139 40.1678 27.9556 39.1045 27.488C38.0412 27.0332 36.869 27.0204 35.7993 27.4752Z" fill="#DF3021"/>
<path d="M8.77486 38.3582V24.7594C8.77486 24.0548 8.19837 23.4783 7.49377 23.4783H1.04346V24.7594H7.49377V38.3646H1.04346V39.6457H7.49377C8.19837 39.6393 8.77486 39.0628 8.77486 38.3582Z" fill="#DF3021"/>
<path d="M5.80922 36.3661C5.80922 36.8593 5.40567 37.2628 4.91245 37.2628C4.41282 37.2628 4.00928 36.8593 4.00928 36.3661C4.00928 35.8664 4.41282 35.4629 4.91245 35.4629C5.40567 35.4629 5.80922 35.8664 5.80922 36.3661Z" fill="#DF3021"/>
<path d="M16.1986 19.0072L16.8904 19.5197L21.656 16.8806L25.9669 19.4748L26.3384 19.6926L27.0302 19.193L25.9925 13.8508L29.8038 10.5456L30.1113 10.251L29.8422 9.45667L24.4488 8.7905L22.4887 4.15294L22.3094 3.76861L21.8994 3.76221H21.4639L19.1643 8.70083L14.1424 9.12359L13.7132 9.17483L13.457 9.97552L17.4348 13.6843L16.1986 19.0072ZM15.6541 10.283L19.6383 9.93708L20.0162 9.89224L21.8546 5.94647L23.4111 9.61681L23.5713 9.96911L27.9014 10.5008L24.9036 13.1014L24.6026 13.3576L25.4353 17.6493L22.0019 15.5803L21.6753 15.4074L17.8768 17.5148L18.7672 13.6715L18.8761 13.2743L15.6541 10.283Z" fill="#DF3021"/>
<path d="M7.77584 16.6436L6.84705 20.6342L6.71894 21.0954L7.44276 21.6271L11.4334 19.4172L14.9564 21.531L15.3535 21.7808L16.0645 21.262L15.1934 16.7845L16.1222 15.9839L15.2831 15.0166L14.0468 16.0863L13.861 16.3041V16.5603L14.4632 19.7439L11.8625 18.1745L11.728 18.0464L11.1836 18.0336L11.0554 18.1617L8.39717 19.635L9.11459 16.5219V16.144L6.62286 13.8252L9.67186 13.5562L9.96652 13.5498L10.2355 13.2807L11.5999 10.347L12.8298 13.2487L13.0283 13.6266H13.387L14.9308 13.8188L15.0909 12.5441L13.8546 12.3968L12.2276 8.5535L12.0099 8.14355L11.1259 8.21401L11.0042 8.59194L9.27472 12.3135L5.20084 12.6658L4.69481 12.6914L4.42578 13.6266L4.77808 13.8572L7.77584 16.6436Z" fill="#DF3021"/>
<path d="M28.8305 12.397L28.9458 13.6717L30.1821 13.5564L30.4704 13.5436L30.7394 13.2746L32.1037 10.3409L33.2759 13.1016L33.2888 13.6205H33.8909L36.9463 13.9984L34.5699 16.061L34.3585 16.2852V16.5606L34.967 19.7377L32.36 18.1748L32.2255 18.0403L31.6618 18.0467L31.5465 18.1684L28.901 19.6352L29.6248 16.5222L29.6184 16.1442L27.9786 14.6133L27.1011 15.5485L28.2733 16.6439L27.3509 20.6345L27.2228 21.0637L27.921 21.6401L31.9372 19.4174L35.4666 21.5377L35.8638 21.7811L36.562 21.2558L35.6908 16.7848L38.7718 14.1137C38.9832 13.9472 39.0729 13.6653 39.0024 13.4091L38.8551 12.9543L34.3585 12.4035L32.7187 8.54736L32.5265 8.19506L31.7643 8.16943L31.5657 8.4833L29.7722 12.3138L28.8305 12.397Z" fill="#DF3021"/>
</svg>
