<svg width="46" height="46" viewBox="0 0 46 46" fill="none" xmlns="http://www.w3.org/2000/svg">
<g clip-path="url(#clip0_1182_12640)">
<path d="M9.50943 26.154C9.34552 25.9901 9.11908 25.8958 8.88648 25.8958C8.65475 25.8958 8.42734 25.9901 8.26352 26.154C8.09961 26.3178 8.00537 26.5451 8.00537 26.7769C8.00537 27.0096 8.0997 27.236 8.26352 27.4007C8.42743 27.5646 8.65475 27.658 8.88648 27.658C9.1182 27.658 9.34561 27.5646 9.50943 27.4007C9.67334 27.2359 9.76758 27.0096 9.76758 26.7769C9.76758 26.5451 9.67334 26.3178 9.50943 26.154Z" fill="#DF3021"/>
<path d="M17.819 26.154C17.6552 25.9901 17.4279 25.8958 17.196 25.8958C16.9643 25.8958 16.7369 25.9901 16.5731 26.154C16.4092 26.3178 16.3149 26.5451 16.3149 26.7769C16.3149 27.0096 16.4092 27.236 16.5731 27.4007C16.737 27.5646 16.9643 27.658 17.196 27.658C17.4278 27.658 17.6552 27.5646 17.819 27.4007C17.9829 27.2359 18.0772 27.0086 18.0772 26.7769C18.0772 26.5451 17.9829 26.3178 17.819 26.154Z" fill="#DF3021"/>
<path d="M16.2027 30.9927C15.7326 30.8667 15.2497 31.1464 15.124 31.6165C14.8722 32.5591 14.0158 33.2175 13.0414 33.2175C12.067 33.2175 11.2106 32.5591 10.9587 31.6165C10.8331 31.1463 10.3502 30.8665 9.87998 30.9927C9.40984 31.1183 9.13055 31.6012 9.25615 32.0714C9.71361 33.7839 11.2702 34.9799 13.0414 34.9799C14.8126 34.9799 16.3692 33.7839 16.8267 32.0714C16.9522 31.6013 16.6728 31.1183 16.2027 30.9927Z" fill="#DF3021"/>
<path d="M22.558 4.02393C22.0712 4.02393 21.6768 4.41841 21.6768 4.90512V10.4991C21.6768 10.9858 22.0712 11.3803 22.558 11.3803C23.0447 11.3803 23.4391 10.9858 23.4391 10.4991V4.90512C23.4391 4.41841 23.0447 4.02393 22.558 4.02393Z" fill="#DF3021"/>
<path d="M23.1813 12.9901C23.0173 12.8253 22.79 12.7319 22.5584 12.7319C22.3257 12.7319 22.0992 12.8254 21.9345 12.9901C21.7706 13.154 21.6772 13.3813 21.6772 13.613C21.6772 13.8448 21.7707 14.0722 21.9345 14.236C22.0993 14.3999 22.3257 14.4941 22.5584 14.4941C22.7901 14.4941 23.0175 14.3999 23.1813 14.236C23.3451 14.0721 23.4395 13.8448 23.4395 13.613C23.4395 13.3813 23.3451 13.154 23.1813 12.9901Z" fill="#DF3021"/>
<path d="M17.1882 12.0348L14.9386 9.78712C14.5944 9.44318 14.0363 9.44336 13.6924 9.78764C13.3485 10.1319 13.3486 10.6898 13.6929 11.0338L15.9425 13.2816C16.1145 13.4535 16.3399 13.5394 16.5653 13.5394C16.791 13.5394 17.0167 13.4532 17.1887 13.2811C17.5326 12.9367 17.5325 12.3788 17.1882 12.0348Z" fill="#DF3021"/>
<path d="M31.4255 9.78911C31.0812 9.44509 30.5233 9.44535 30.1793 9.78955L27.7876 12.1832C27.4436 12.5275 27.4439 13.0854 27.7881 13.4294C27.9601 13.6014 28.1855 13.6872 28.4109 13.6872C28.6365 13.6872 28.8622 13.6011 29.0342 13.4289L31.4259 11.0353C31.77 10.691 31.7697 10.133 31.4255 9.78911Z" fill="#DF3021"/>
<path d="M44.6487 25.6505C42.7875 18.7043 35.6222 14.5675 28.6762 16.4288C26.2921 17.0677 24.186 18.3378 22.5409 20.0966C20.0796 17.4751 16.6732 15.9904 13.0415 15.9904C5.8504 15.9904 0 21.8409 0 29.032C0 36.2231 5.8504 42.0735 13.0415 42.0735C16.6766 42.0735 20.0885 40.5842 22.5507 37.9564C24.9888 40.5415 28.4272 42.069 32.0545 42.069C33.1686 42.069 34.3009 41.9248 35.4269 41.6231C42.373 39.7618 46.5099 32.5965 44.6487 25.6505ZM13.0415 40.3111C6.82204 40.3111 1.7623 35.2512 1.7623 29.0319C1.7623 22.8125 6.82204 17.7527 13.0415 17.7527C16.2611 17.7527 19.2764 19.1019 21.4164 21.4767C21.1826 21.8073 20.9623 22.15 20.7572 22.5051C19.0154 25.5219 18.5528 29.0365 19.4544 32.4012C19.8681 33.9454 20.544 35.3506 21.4213 36.5821C19.2809 38.9599 16.2622 40.3111 13.0415 40.3111ZM34.9708 39.9208C28.9635 41.53 22.7664 37.9526 21.1567 31.9452C20.377 29.0351 20.7771 25.9955 22.2835 23.3864C22.5614 22.905 22.871 22.4491 23.2091 22.0205C23.2238 22.0037 23.2373 21.9862 23.2505 21.9685C24.7417 20.1011 26.7808 18.7613 29.1322 18.1312C30.1064 17.8702 31.0851 17.7456 32.0489 17.7456C37.0283 17.7456 41.5976 21.0735 42.9462 26.1066C44.556 32.1141 40.9782 38.3111 34.9708 39.9208Z" fill="#DF3021"/>
<path d="M29.4704 27.2983C29.1978 26.2803 28.1481 25.6738 27.1297 25.9467C26.1117 26.2196 25.5055 27.2696 25.7782 28.2875C25.8838 28.6812 26.2398 28.941 26.6289 28.941C26.7043 28.941 26.7812 28.9312 26.8574 28.9107C27.3276 28.7846 27.6065 28.3016 27.4805 27.8315C27.4592 27.7522 27.5065 27.6703 27.5857 27.6491C27.6349 27.636 27.6743 27.6499 27.6987 27.664C27.723 27.678 27.7549 27.7052 27.7681 27.7543C27.8941 28.2244 28.3771 28.5035 28.8473 28.3774C29.3175 28.2515 29.5964 27.7684 29.4704 27.2983Z" fill="#DF3021"/>
<path d="M37.4467 25.1608C37.3145 24.6677 36.9983 24.2556 36.5561 24.0002C36.114 23.7451 35.5989 23.6772 35.1059 23.8094C34.6127 23.9415 34.2005 24.2577 33.9454 24.6998C33.6902 25.142 33.6222 25.6569 33.7544 26.1502C33.86 26.5439 34.216 26.8035 34.6051 26.8035C34.6805 26.8034 34.7574 26.7937 34.8337 26.7732C35.3038 26.6472 35.5827 26.1641 35.4568 25.6939C35.4436 25.6448 35.4576 25.6054 35.4717 25.581C35.4857 25.5566 35.5128 25.5248 35.562 25.5117C35.6112 25.4986 35.6507 25.5126 35.675 25.5266C35.6993 25.5406 35.7311 25.5677 35.7443 25.617C35.8703 26.087 36.3533 26.366 36.8235 26.24C37.2937 26.114 37.5726 25.631 37.4467 25.1608Z" fill="#DF3021"/>
<path d="M36.6748 30.69C36.5488 30.22 36.0656 29.9409 35.5955 30.0669C35.1254 30.1929 34.8465 30.6759 34.9725 31.1461C35.2723 32.2651 34.6058 33.4195 33.4868 33.7193C32.9446 33.8646 32.3785 33.7899 31.8926 33.5094C31.4065 33.2287 31.0589 32.7757 30.9137 32.2336C30.7877 31.7636 30.3046 31.4843 29.8344 31.6106C29.3644 31.7366 29.0854 32.2197 29.2114 32.6898C29.4785 33.6866 30.1178 34.5197 31.0115 35.0357C31.6067 35.3793 32.2674 35.5549 32.9369 35.5549C33.2725 35.5549 33.6103 35.5109 33.9431 35.4216C36.0007 34.8702 37.2261 32.7475 36.6748 30.69Z" fill="#DF3021"/>
</g>
<defs>
<clipPath id="clip0_1182_12640">
<rect width="45.0945" height="45.0945" fill="white" transform="translate(0 0.501465)"/>
</clipPath>
</defs>
</svg>
