<svg width="41" height="41" viewBox="0 0 41 41" fill="none" xmlns="http://www.w3.org/2000/svg">
<g clip-path="url(#clip0_1182_12608)">
<path d="M36.2623 2.51221H5.15145C2.85019 2.51221 0.978027 4.38444 0.978027 6.68563V23.7586V26.4145C0.978027 28.7157 2.85019 30.5879 5.15145 30.5879H15.2285L14.0144 36.6583H10.0837C9.66458 36.6583 9.32487 36.998 9.32487 37.4171C9.32487 37.8362 9.66458 38.1759 10.0837 38.1759H31.3301C31.7492 38.1759 32.0889 37.8362 32.0889 37.4171C32.0889 36.998 31.7492 36.6583 31.3301 36.6583H27.3994L26.1853 30.5879H36.2623C38.5635 30.5879 40.4357 28.7158 40.4357 26.4145V23.7586V6.68563C40.4357 4.38444 38.5636 2.51221 36.2623 2.51221ZM15.562 36.6583L16.7761 30.5879H24.6376L25.8517 36.6583H15.562ZM38.9182 26.4145C38.9182 27.8789 37.7268 29.0703 36.2623 29.0703H5.15145C3.68705 29.0703 2.49561 27.879 2.49561 26.4145V24.5175H38.9181V26.4145H38.9182ZM38.9182 22.9999H2.49561V21.4823H7.04843C7.46751 21.4823 7.80722 21.1426 7.80722 20.7236C7.80722 20.3045 7.46751 19.9648 7.04843 19.9648H2.49561V6.68563C2.49561 5.22123 3.68697 4.02979 5.15145 4.02979H36.2623C37.7267 4.02979 38.9182 5.22115 38.9182 6.68563V22.9999Z" fill="#DF3021"/>
<path d="M20.707 25.2761C19.8703 25.2761 19.1895 25.9569 19.1895 26.7937C19.1895 27.6305 19.8703 28.3113 20.707 28.3113C21.5438 28.3113 22.2246 27.6305 22.2246 26.7937C22.2246 25.9569 21.5438 25.2761 20.707 25.2761Z" fill="#DF3021"/>
<path d="M26.9194 17.0445L25.3097 15.4348L26.6511 14.0935C26.8461 13.8985 26.92 13.6129 26.8439 13.3477C26.7678 13.0826 26.5539 12.8796 26.2851 12.8175L19.3099 11.2079C19.055 11.1492 18.7877 11.2257 18.6026 11.4107C18.4177 11.5957 18.341 11.8629 18.3998 12.1179L20.0096 19.0931C20.0717 19.3618 20.2747 19.5758 20.5398 19.6519C20.8051 19.7279 21.0905 19.654 21.2856 19.4591L22.6269 18.1177L24.2366 19.7273C24.3848 19.8755 24.579 19.9496 24.7731 19.9496C24.9673 19.9496 25.1616 19.8755 25.3097 19.7273L26.9194 18.1177C27.2156 17.8213 27.2156 17.3409 26.9194 17.0445ZM24.7731 18.1177L23.1635 16.508C23.0153 16.3598 22.8211 16.2857 22.6269 16.2857C22.4328 16.2857 22.2385 16.3598 22.0904 16.508L21.1806 17.4179L20.1517 12.9597L24.6099 13.9885L23.7 14.8983C23.4037 15.1946 23.4037 15.6751 23.7 15.9714L25.3097 17.5811L24.7731 18.1177Z" fill="#DF3021"/>
<path d="M17.5835 9.31843L16.8247 8.55964C16.5284 8.26332 16.0479 8.26332 15.7515 8.55964C15.4552 8.85596 15.4552 9.33639 15.7515 9.63278L16.5104 10.3916C16.6586 10.5398 16.8528 10.6138 17.0469 10.6138C17.2411 10.6138 17.4353 10.5398 17.5835 10.3916C17.8798 10.0953 17.8798 9.61483 17.5835 9.31843Z" fill="#DF3021"/>
<path d="M16.1038 11.3726H15.0308C14.6117 11.3726 14.272 11.7123 14.272 12.1313C14.272 12.5504 14.6117 12.8901 15.0308 12.8901H16.1038C16.5229 12.8901 16.8626 12.5504 16.8626 12.1313C16.8626 11.7123 16.5229 11.3726 16.1038 11.3726Z" fill="#DF3021"/>
<path d="M17.5834 13.8712C17.2871 13.5748 16.8067 13.5748 16.5103 13.8712L15.7515 14.63C15.4552 14.9263 15.4552 15.4068 15.7515 15.7031C15.8997 15.8513 16.0939 15.9254 16.2881 15.9254C16.4822 15.9254 16.6765 15.8513 16.8246 15.7031L17.5834 14.9443C17.8797 14.6481 17.8797 14.1676 17.5834 13.8712Z" fill="#DF3021"/>
<path d="M22.895 8.55964C22.5987 8.26332 22.1182 8.26332 21.8218 8.55964L21.0631 9.31843C20.7667 9.61475 20.7667 10.0953 21.0631 10.3916C21.2113 10.5398 21.4055 10.6138 21.5997 10.6138C21.7939 10.6138 21.9881 10.5398 22.1362 10.3916L22.895 9.63278C23.1913 9.33654 23.1913 8.85604 22.895 8.55964Z" fill="#DF3021"/>
<path d="M19.3232 7.08008C18.9042 7.08008 18.5645 7.41978 18.5645 7.83887V8.91193C18.5645 9.33102 18.9042 9.67072 19.3232 9.67072C19.7423 9.67072 20.082 9.33102 20.082 8.91193V7.83887C20.082 7.41978 19.7423 7.08008 19.3232 7.08008Z" fill="#DF3021"/>
<path d="M10.0683 20.5754C10.0592 20.5268 10.044 20.479 10.0251 20.4327C10.0061 20.3872 9.98262 20.3432 9.95526 20.3022C9.92798 20.2604 9.89607 20.2217 9.86116 20.1868C9.82625 20.1519 9.78757 20.1201 9.7458 20.0927C9.7048 20.0654 9.66079 20.0418 9.61455 20.0229C9.56901 20.0039 9.52123 19.9887 9.47267 19.9796C9.3748 19.9599 9.27462 19.9599 9.17674 19.9796C9.12819 19.9887 9.08041 20.0039 9.03486 20.0229C8.98855 20.0418 8.94454 20.0653 8.90362 20.0927C8.86185 20.12 8.82316 20.1519 8.78825 20.1868C8.75334 20.2217 8.72151 20.2604 8.69416 20.3022C8.66687 20.3432 8.64329 20.3872 8.62433 20.4327C8.60538 20.479 8.59019 20.5268 8.5811 20.5754C8.57124 20.6239 8.56592 20.674 8.56592 20.7233C8.56592 20.7726 8.57124 20.8227 8.5811 20.8713C8.59019 20.9198 8.60538 20.9676 8.62433 21.0132C8.64329 21.0595 8.6668 21.1035 8.69416 21.1444C8.72144 21.1862 8.75334 21.2249 8.78825 21.2598C8.82316 21.2947 8.86185 21.3265 8.90362 21.3539C8.94462 21.3812 8.98862 21.4047 9.03486 21.4237C9.08041 21.4427 9.12819 21.4578 9.17674 21.4677C9.22529 21.4776 9.27539 21.4821 9.32471 21.4821C9.37403 21.4821 9.42412 21.4776 9.47267 21.4677C9.52123 21.4578 9.56901 21.4427 9.61455 21.4237C9.66087 21.4047 9.70487 21.3812 9.7458 21.3539C9.78757 21.3266 9.82625 21.2947 9.86116 21.2598C9.89607 21.2249 9.9279 21.1862 9.95526 21.1444C9.98254 21.1034 10.0061 21.0594 10.0251 21.0132C10.044 20.9676 10.0592 20.9198 10.0683 20.8713C10.0782 20.8227 10.0835 20.7726 10.0835 20.7233C10.0835 20.674 10.0782 20.6239 10.0683 20.5754Z" fill="#DF3021"/>
</g>
<defs>
<clipPath id="clip0_1182_12608">
<rect width="39.4577" height="39.4577" fill="white" transform="translate(0.978027 0.615234)"/>
</clipPath>
</defs>
</svg>
