<svg width="28" height="17" viewBox="0 0 28 17" fill="none" xmlns="http://www.w3.org/2000/svg">
<path fill-rule="evenodd" clip-rule="evenodd" d="M13.656 14.7368C12.2355 15.9342 10.3928 16.657 8.37939 16.657C3.88668 16.657 0.244629 13.0582 0.244629 8.61901C0.244629 4.17977 3.88668 0.581055 8.37939 0.581055C10.3929 0.581055 12.2355 1.30388 13.656 2.50125C15.0765 1.30392 16.9191 0.581114 18.9326 0.581114C23.4253 0.581114 27.0673 4.17983 27.0673 8.61907C27.0673 13.0583 23.4253 16.657 18.9326 16.657C16.9191 16.657 15.0765 15.9342 13.656 14.7368Z" fill="#ED0006"/>
<path fill-rule="evenodd" clip-rule="evenodd" d="M13.6558 14.7368C15.4048 13.2625 16.5139 11.0687 16.5139 8.61901C16.5139 6.16929 15.4048 3.97553 13.6558 2.50122C15.0763 1.30387 16.9189 0.581055 18.9324 0.581055C23.4251 0.581055 27.0671 4.17977 27.0671 8.61901C27.0671 13.0582 23.4251 16.657 18.9324 16.657C16.9189 16.657 15.0763 15.9341 13.6558 14.7368Z" fill="#F9A000"/>
<path fill-rule="evenodd" clip-rule="evenodd" d="M13.656 14.7368C15.405 13.2625 16.5141 11.0687 16.5141 8.61899C16.5141 6.16928 15.405 3.97553 13.656 2.50122C11.9069 3.97553 10.7979 6.16928 10.7979 8.61899C10.7979 11.0687 11.9069 13.2625 13.656 14.7368Z" fill="#FF5E00"/>
</svg>
