<svg width="41" height="15" viewBox="0 0 41 15" fill="none" xmlns="http://www.w3.org/2000/svg">
<path fill-rule="evenodd" clip-rule="evenodd" d="M17.9629 2.68896C17.9629 2.68896 17.9629 2.68896 18.8209 2.68896C19.1362 2.68896 19.2902 2.84296 19.2902 3.19496C19.2902 3.19496 19.2902 3.19496 19.2902 4.42696C19.2902 4.42696 19.2902 4.42696 20.9696 4.42696C20.9696 4.42696 20.9696 4.42696 20.9696 3.19496C20.9696 2.84296 21.1236 2.68896 21.4756 2.68896C21.4756 2.68896 21.4756 2.68896 22.2969 2.68896C22.2969 2.68896 22.2969 2.68896 22.2969 3.50296C22.2969 3.50296 22.2969 3.50296 21.9449 3.50296L21.9082 3.53963C21.9082 3.53963 21.9082 3.53963 21.9082 7.01563C21.9082 7.01563 21.9082 7.01563 20.9696 7.01563C20.9696 7.01563 20.9696 7.01563 20.9696 5.27763C20.9696 5.27763 20.9696 5.27763 19.2902 5.27763C19.2902 5.27763 19.2902 5.27763 19.2902 7.01563C19.2902 7.01563 19.2902 7.01563 18.3516 7.01563C18.3516 7.01563 18.3516 7.01563 18.3516 3.53963C18.3516 3.53963 18.3516 3.50296 18.3149 3.50296C18.3149 3.50296 18.3149 3.50296 17.9629 3.50296C17.9629 3.50296 17.9629 3.50296 17.9629 2.68896Z" fill="#ED1C24"/>
<path fill-rule="evenodd" clip-rule="evenodd" d="M24.7533 2.61572H24.7753V3.51039L24.7533 3.50306C24.0493 3.50306 23.5066 4.08239 23.5066 4.81572C23.5066 5.58572 24.0493 6.20905 24.7533 6.20905L24.7753 6.20172V7.08905L24.7533 7.09639C23.5066 7.09639 22.4873 6.09172 22.4873 4.81572C22.4873 3.58372 23.5066 2.61572 24.7533 2.61572Z" fill="#ED1C24"/>
<path fill-rule="evenodd" clip-rule="evenodd" d="M24.7754 2.61572L25.2081 2.65972C26.2421 2.85772 27.0194 3.73772 27.0194 4.81572C27.0194 5.93039 26.2421 6.83972 25.2081 7.04506L24.7754 7.08906V6.20172L25.2521 6.09906C25.7141 5.88639 26.0441 5.39506 26.0441 4.81572C26.0441 4.26572 25.7141 3.80372 25.2521 3.60572L24.7754 3.51039V2.61572Z" fill="#ED1C24"/>
<path fill-rule="evenodd" clip-rule="evenodd" d="M27.21 2.68896C27.21 2.68896 27.21 2.68896 28.5226 2.68896H29.146V3.50296H29.0873C29.0066 3.50296 28.8526 3.50296 28.5373 3.50296C28.5373 3.50296 28.5373 3.50296 28.5373 4.3903C28.5373 4.3903 28.5373 4.3903 28.8013 4.3903H29.146V5.1603H28.948C28.8453 5.1603 28.7133 5.1603 28.5373 5.1603C28.5373 5.1603 28.5373 5.1603 28.5373 6.1283C28.5373 6.16496 28.5373 6.16496 28.5813 6.16496C28.5813 6.16496 28.5813 6.16496 28.86 6.16496H29.146V7.01563H29.0653C28.9186 7.01563 28.64 7.01563 28.0753 7.01563C27.76 7.01563 27.606 6.86163 27.606 6.51696V3.50296C27.606 3.50296 27.606 3.50296 27.21 3.50296C27.21 3.50296 27.21 3.50296 27.21 2.68896Z" fill="#ED1C24"/>
<path fill-rule="evenodd" clip-rule="evenodd" d="M29.146 2.68896H29.1607C30.026 2.68896 30.532 3.1583 30.532 3.85496C30.532 4.27296 30.334 4.5443 30.1433 4.7423C30.4953 4.8963 30.7227 5.27763 30.7227 5.70296C30.7227 6.51696 30.0993 7.01563 29.2047 7.01563C29.2047 7.01563 29.2047 7.01563 29.19 7.01563H29.146V6.16496H29.2413C29.5567 6.16496 29.7473 5.9743 29.7473 5.6663C29.7473 5.3583 29.5567 5.1603 29.2413 5.1603C29.2413 5.1603 29.2413 5.1603 29.1533 5.1603H29.146V4.3903H29.1607C29.4393 4.3903 29.5933 4.19963 29.5933 3.9283C29.5933 3.65696 29.4393 3.50296 29.1607 3.50296C29.1607 3.50296 29.1607 3.50296 29.1533 3.50296H29.146V2.68896Z" fill="#ED1C24"/>
<path fill-rule="evenodd" clip-rule="evenodd" d="M32.5195 2.68896C32.5195 2.68896 32.5195 2.68896 32.9155 2.68896H32.9889V3.9283C32.9522 4.00896 32.9082 4.11896 32.9082 4.2363C32.9082 4.2363 32.9082 4.2363 32.6002 5.12363C32.6002 5.12363 32.6002 5.12363 32.9302 5.12363H32.9889V5.93763H32.7762C32.6589 5.93763 32.5195 5.93763 32.3655 5.93763C32.3655 5.93763 32.3655 5.93763 32.0942 6.6343C32.0135 6.8983 31.8595 7.01563 31.5442 7.01563C31.5442 7.01563 31.5442 7.01563 30.9575 7.01563C30.9575 7.01563 30.9575 7.01563 30.9575 6.16496C30.9575 6.16496 30.9575 6.16496 31.1555 6.16496C31.2362 6.16496 31.2362 6.16496 31.2729 6.1283C31.2729 6.1283 31.2729 6.1283 32.5195 2.68896Z" fill="#ED1C24"/>
<path fill-rule="evenodd" clip-rule="evenodd" d="M32.9888 2.68896H33.4581C33.4581 2.68896 33.4581 2.68896 34.7048 6.1283C34.7414 6.16496 34.7414 6.16496 34.8221 6.16496C34.8221 6.16496 34.8221 6.16496 34.9761 6.16496C34.9761 6.16496 34.9761 6.16496 34.9761 7.01563C34.9761 7.01563 34.9761 7.01563 34.4334 7.01563C34.1181 7.01563 33.9641 6.8983 33.8834 6.5903C33.8834 6.5903 33.8834 6.5903 33.6121 5.93763C33.6121 5.93763 33.6121 5.93763 33.0841 5.93763H32.9888V5.12363H33.3774C33.3774 5.12363 33.3774 5.12363 33.0694 4.2363C33.0694 4.11896 33.0254 4.00896 32.9888 3.9283V2.68896Z" fill="#ED1C24"/>
<path fill-rule="evenodd" clip-rule="evenodd" d="M17.9629 8.2478C17.9629 8.2478 17.9629 8.2478 21.3582 8.2478C21.6736 8.2478 21.8642 8.40914 21.8642 8.7538C21.8642 8.7538 21.8642 8.7538 21.8642 11.6871C21.8642 11.7238 21.8642 11.7238 21.9082 11.7238C21.9082 11.7238 21.9082 11.7238 22.2162 11.7238C22.2162 11.7238 22.2162 11.7238 22.2162 12.5745C22.2162 12.5745 22.2162 12.5745 21.4022 12.5745C21.0502 12.5745 20.8889 12.4205 20.8889 12.0758C20.8889 12.0758 20.8889 12.0758 20.8889 9.1058C20.8889 9.1058 20.8889 9.0618 20.8522 9.0618C20.8522 9.0618 20.8522 9.0618 19.2902 9.0618C19.2902 9.0618 19.2902 9.0618 19.2902 12.5745C19.2902 12.5745 19.2902 12.5745 18.3516 12.5745C18.3516 12.5745 18.3516 12.5745 18.3516 9.0618C18.3516 9.0618 18.3516 9.0618 17.9629 9.0618C17.9629 9.0618 17.9629 9.0618 17.9629 8.2478Z" fill="#ED1C24"/>
<path fill-rule="evenodd" clip-rule="evenodd" d="M24.68 8.17432H24.6947V9.06898L24.68 9.06165C23.9687 9.06165 23.426 9.64098 23.426 10.3743C23.426 11.1443 23.9687 11.7677 24.68 11.7677L24.6947 11.7603V12.6477L24.68 12.655C23.426 12.655 22.4507 11.6503 22.4507 10.3743C22.4507 9.14232 23.426 8.17432 24.68 8.17432Z" fill="#ED1C24"/>
<path fill-rule="evenodd" clip-rule="evenodd" d="M24.6948 8.17432L25.1422 8.21832C26.1908 8.41632 26.9388 9.29632 26.9388 10.3743C26.9388 11.489 26.1908 12.3983 25.1422 12.6036L24.6948 12.6476V11.7603L25.1935 11.6576C25.6555 11.445 25.9635 10.9536 25.9635 10.3743C25.9635 9.82432 25.6555 9.36232 25.1935 9.16432L24.6948 9.06898V8.17432Z" fill="#ED1C24"/>
<path fill-rule="evenodd" clip-rule="evenodd" d="M27.1367 8.2478C27.1367 8.2478 27.1367 8.2478 27.9947 8.2478C28.3101 8.2478 28.4641 8.40914 28.4641 8.7538C28.4641 8.7538 28.4641 8.7538 28.4641 11.6871C28.4641 11.7238 28.4641 11.7238 28.5007 11.7238C28.5007 11.7238 28.5007 11.7238 29.6301 11.7238C29.6301 11.7238 29.6301 11.7238 29.6301 8.2478C29.6301 8.2478 29.6301 8.2478 30.5687 8.2478C30.5687 8.2478 30.5687 8.2478 30.5687 11.7238C30.5687 11.7238 30.5687 11.7238 31.7054 11.7238C31.7421 11.7238 31.7421 11.7238 31.7421 11.6871C31.7421 11.6871 31.7421 11.6871 31.7421 8.7538C31.7421 8.40914 31.8961 8.2478 32.2114 8.2478C32.2114 8.2478 32.2114 8.2478 33.0694 8.2478C33.0694 8.2478 33.0694 8.2478 33.0694 9.0618C33.0694 9.0618 33.0694 9.0618 32.7174 9.0618C32.6734 9.0618 32.6734 9.1058 32.6734 9.1058C32.6734 9.1058 32.6734 9.1058 32.6734 12.0758C32.6734 12.4205 32.5194 12.5745 32.2114 12.5745C32.2114 12.5745 32.2114 12.5745 28.0314 12.5745C27.6794 12.5745 27.5254 12.4205 27.5254 12.0758C27.5254 12.0758 27.5254 12.0758 27.5254 9.1058C27.5254 9.1058 27.5254 9.0618 27.4887 9.0618C27.4887 9.0618 27.4887 9.0618 27.1367 9.0618C27.1367 9.0618 27.1367 9.0618 27.1367 8.2478Z" fill="#ED1C24"/>
<path fill-rule="evenodd" clip-rule="evenodd" d="M33.8101 8.2478C33.8101 8.2478 33.8101 8.2478 36.7361 8.2478C37.0881 8.2478 37.2054 8.40914 37.2054 8.71714C37.2054 8.71714 37.2054 8.71714 37.2054 9.45047H36.3474C36.3474 9.45047 36.3474 9.45047 36.3474 9.1058C36.3474 9.0618 36.3474 9.0618 36.3034 9.0618C36.3034 9.0618 36.3034 9.0618 35.7608 9.0618C35.7608 9.0618 35.7608 9.0618 35.7608 12.5745C35.7608 12.5745 35.7608 12.5745 34.8221 12.5745C34.8221 12.5745 34.8221 12.5745 34.8221 9.0618C34.8221 9.0618 34.8221 9.0618 34.2794 9.0618C34.2354 9.0618 34.2354 9.0618 34.2354 9.1058C34.2354 9.1058 34.2354 9.1058 34.2354 9.45047C34.2354 9.45047 34.2354 9.45047 33.3774 9.45047C33.3774 9.45047 33.3774 9.45047 33.3774 8.71714C33.3774 8.40914 33.4948 8.2478 33.8101 8.2478Z" fill="#ED1C24"/>
<path fill-rule="evenodd" clip-rule="evenodd" d="M38.4155 8.2478C38.4155 8.2478 38.4155 8.2478 38.8115 8.2478H38.8848V9.48714C38.8408 9.5678 38.8042 9.6778 38.8042 9.79514C38.8042 9.79514 38.8042 9.79514 38.4888 10.6825C38.4888 10.6825 38.4888 10.6825 38.8188 10.6825H38.8848V11.4965H38.6722C38.5475 11.4965 38.4155 11.4965 38.2542 11.4965C38.2542 11.4965 38.2542 11.4965 37.9828 12.1491C37.9095 12.4571 37.7482 12.5745 37.4402 12.5745C37.4402 12.5745 37.4402 12.5745 36.8535 12.5745C36.8535 12.5745 36.8535 12.5745 36.8535 11.7238C36.8535 11.7238 36.8535 11.7238 37.0515 11.7238C37.1248 11.7238 37.1248 11.7238 37.1688 11.6871C37.1688 11.6871 37.1688 11.6871 38.4155 8.25514V8.2478Z" fill="#ED1C24"/>
<path fill-rule="evenodd" clip-rule="evenodd" d="M38.8848 8.2478H39.3468C39.3468 8.2478 39.3468 8.2478 40.6008 11.6871C40.6374 11.7238 40.6374 11.7238 40.7181 11.7238H40.8721C40.8721 11.7238 40.8721 11.7238 40.8721 12.5745C40.8721 12.5745 40.8721 12.5745 40.3294 12.5745C40.0141 12.5745 39.8601 12.4571 39.7794 12.1491C39.7794 12.1491 39.7794 12.1491 39.5081 11.4965C39.5081 11.4965 39.5081 11.4965 38.9801 11.4965H38.8848V10.6825H39.2734C39.2734 10.6825 39.2734 10.6825 38.9581 9.79514C38.9581 9.6778 38.9214 9.5678 38.8848 9.48714V8.2478Z" fill="#ED1C24"/>
<path fill-rule="evenodd" clip-rule="evenodd" d="M11.9493 4.52976C11.9933 4.51509 12.052 4.54442 12.1106 4.62509C12.1106 4.62509 12.1106 4.62509 14.7653 7.20642C14.9193 7.36042 14.9193 7.59509 14.7653 7.71242C14.7653 7.71242 14.7653 7.71242 12.1106 10.3378C12.052 10.4111 11.9933 10.4331 11.9493 10.4111C11.9053 10.3891 11.876 10.3158 11.876 10.2204V4.69842C11.876 4.60309 11.9053 4.54442 11.9493 4.52976Z" fill="#ED1C24"/>
<path fill-rule="evenodd" clip-rule="evenodd" d="M7.41011 0.225098H7.60078L7.77678 0.298431C7.77678 0.298431 7.77678 0.298431 10.5121 3.00443C10.6294 3.15843 10.5854 3.26843 10.3948 3.26843C10.3948 3.26843 10.3948 3.26843 9.25811 3.26843C9.06744 3.26843 8.90611 3.42976 8.90611 3.62043C8.90611 3.62043 8.90611 3.62043 8.90611 5.62976C8.90611 5.82043 8.75211 5.97443 8.51744 5.97443C8.51744 5.97443 8.51744 5.97443 6.53011 5.97443C6.33211 5.97443 6.17811 5.82043 6.17811 5.62976C6.17811 5.62976 6.17811 5.62976 6.17811 3.62043C6.17811 3.42976 6.02411 3.26843 5.82611 3.26843H4.61611C4.41811 3.26843 4.38144 3.15843 4.49878 3.00443C4.49878 3.00443 4.49878 3.00443 7.23411 0.298431L7.41011 0.225098Z" fill="#ED1C24"/>
<path fill-rule="evenodd" clip-rule="evenodd" d="M3.13472 4.47103C3.17872 4.50036 3.20805 4.56636 3.20805 4.6617V10.2937C3.20805 10.3964 3.17872 10.455 3.13472 10.4697C3.08338 10.4917 3.01738 10.4697 2.93672 10.411C2.93672 10.411 2.93672 10.411 0.245383 7.71236C0.0913828 7.59503 0.0913828 7.36036 0.245383 7.20636C0.245383 7.20636 0.245383 7.20636 2.93672 4.54436C3.01738 4.47103 3.08338 4.44903 3.13472 4.47103Z" fill="#ED1C24"/>
<path fill-rule="evenodd" clip-rule="evenodd" d="M6.53021 8.90771C6.53021 8.90771 6.53021 8.90771 8.51754 8.90771C8.75221 8.90771 8.91354 9.06171 8.91354 9.25971C8.91354 9.25971 8.91354 9.25971 8.91354 11.379C8.91354 11.6137 9.06754 11.7677 9.25821 11.7677H10.3142C10.5122 11.7677 10.5855 11.8777 10.4315 11.995C10.4315 11.995 10.4315 11.995 7.77687 14.657C7.69621 14.7377 7.60087 14.7744 7.50554 14.7744C7.41021 14.7744 7.30754 14.7377 7.23421 14.657C7.23421 14.657 7.23421 14.657 4.57954 11.995C4.41821 11.8777 4.49887 11.7677 4.68954 11.7677C4.68954 11.7677 4.68954 11.7677 5.82621 11.7677C6.02421 11.7677 6.17821 11.6137 6.17821 11.379C6.17821 11.379 6.17821 11.379 6.17821 9.25971C6.17821 9.06171 6.33221 8.90771 6.53021 8.90771Z" fill="#ED1C24"/>
</svg>
