<svg width="13" height="18" viewBox="0 0 13 18" fill="none" xmlns="http://www.w3.org/2000/svg">
<path d="M12.4342 10.2618C12.4337 10.2617 6.16899 8.92248 6.16899 8.92248C4.3017 8.52331 3.13034 6.76975 3.55278 5.00576C3.97547 3.24176 5.83184 2.1355 7.69912 2.53455C9.56653 2.93374 10.7378 4.68728 10.3153 6.45115C10.1036 7.3343 9.53251 8.05194 8.78061 8.49902C8.78048 8.49902 8.77867 8.50047 8.77796 8.50082C8.75585 8.51582 8.74154 8.54022 8.74154 8.56768C8.74154 8.60615 8.76966 8.63849 8.80764 8.64712C8.80777 8.64723 11.5946 9.24253 11.5951 9.24253C11.6614 9.25673 11.7302 9.23256 11.771 9.18171C11.7712 9.18125 11.7711 9.1816 11.7711 9.1816C12.5388 8.22195 13 7.02454 13 5.72941C13 2.67939 10.4774 0.186829 7.29553 0.00979233C7.26717 0.00831032 7.09474 0.0019474 7.03648 0.00116348C5.62769 -0.0197277 4.1993 0.361858 2.95718 1.18358C-0.179631 3.25832 -0.941757 7.34212 1.25439 10.3051L6.82812 17.8245C6.85193 17.8551 6.89025 17.875 6.93325 17.875C6.97662 17.875 7.01507 17.8548 7.03876 17.8239C7.03876 17.8239 12.512 10.4507 12.5125 10.45C12.5265 10.4305 12.5348 10.4068 12.5348 10.3814C12.5348 10.323 12.4919 10.2742 12.4342 10.2618Z" fill="#FABC26"/>
</svg>
