<svg width="32" height="11" viewBox="0 0 32 11" fill="none" xmlns="http://www.w3.org/2000/svg">
<path fill-rule="evenodd" clip-rule="evenodd" d="M8.13872 10.9062H5.44768L3.42973 2.98117C3.33395 2.61662 3.13058 2.29433 2.83143 2.14244C2.08486 1.76072 1.2622 1.45692 0.364746 1.30371V0.998591H4.6998C5.2981 0.998591 5.74683 1.45692 5.82162 1.98922L6.86864 7.70581L9.55838 0.998591H12.1746L8.13872 10.9062ZM13.6704 10.9062H11.1289L13.2217 0.998591H15.7631L13.6704 10.9062ZM19.0512 3.74347C19.126 3.20985 19.5747 2.90474 20.0982 2.90474C20.9209 2.82813 21.817 2.98135 22.5649 3.36175L23.0136 1.22859C22.2657 0.923481 21.4431 0.770264 20.6965 0.770264C18.2298 0.770264 16.4349 2.14262 16.4349 4.04727C16.4349 5.49623 17.7063 6.25703 18.6038 6.71536C19.5747 7.17237 19.9486 7.47749 19.8738 7.9345C19.8738 8.62001 19.126 8.92513 18.3794 8.92513C17.4819 8.92513 16.5845 8.69662 15.7631 8.3149L15.3144 10.4494C16.2119 10.8298 17.1828 10.983 18.0802 10.983C20.8461 11.0583 22.5649 9.68725 22.5649 7.62938C22.5649 5.0379 19.0512 4.886 19.0512 3.74347ZM31.4593 10.9062L29.4414 0.998591H27.2738C26.8251 0.998591 26.3764 1.30371 26.2268 1.76072L22.4901 10.9062H25.1063L25.6285 9.45857H28.8431L29.1422 10.9062H31.4593ZM27.6478 3.66689L28.3944 7.4009H26.3016L27.6478 3.66689Z" fill="#172B85"/>
</svg>
