<svg width="22" height="20" viewBox="0 0 22 20" fill="none" xmlns="http://www.w3.org/2000/svg">
<g clip-path="url(#clip0_1301_1294)">
<path d="M21.5597 9.17232C21.1646 8.66391 20.7132 8.19582 20.213 7.77582C18.194 6.13107 15.968 4.75147 13.7012 3.42469C13.1976 3.13102 12.7291 3.06341 12.2402 3.41307C11.9901 3.59053 11.8045 3.56835 11.637 3.30743C11.3847 2.90918 11.104 2.5289 10.8449 2.13699C10.5981 1.76726 10.4295 1.72501 10.2032 2.07361C9.57397 3.04017 8.79877 3.94441 8.60185 5.11486C8.58035 5.24479 8.40833 5.37789 8.2714 5.46029C7.94547 5.65571 7.59918 5.82156 7.21327 6.02438C6.95638 5.75818 6.76625 5.89445 6.56821 6.18494C6.43924 6.38767 6.2666 6.56321 6.06121 6.70045C5.84959 6.82932 5.55874 6.842 5.33354 6.95714C3.75597 7.76314 2.18066 8.57337 0.616667 9.40155C-0.19249 9.83149 -0.195886 10.404 0.580452 10.8889C1.6499 11.5576 2.74537 12.1935 3.78879 12.896C4.92047 13.6587 6.03066 14.4668 7.12387 15.2844C7.71687 15.7291 8.16615 16.3038 8.20463 17.038C8.22855 17.6526 8.19865 18.268 8.11523 18.8781C8.06883 19.2658 8.01451 19.6387 8.39928 19.8785C8.78405 20.1183 9.19146 19.9767 9.56379 19.7803C11.1338 18.9647 12.7061 18.1528 14.2807 17.3443C16.5795 16.164 18.8806 14.9883 21.184 13.8171C21.6932 13.5583 21.9003 13.1706 21.9184 12.6551C21.9365 12.1396 22.0044 11.641 22.0033 11.135C21.9988 10.4495 22.0169 9.74275 21.5597 9.17232ZM10.4442 6.09727C10.6513 5.91346 10.8596 5.72332 11.0802 5.54902C11.1714 5.40868 11.2703 5.27293 11.3767 5.14232C11.4447 5.08873 11.5325 5.06218 11.6212 5.06838C11.6359 5.05676 11.6506 5.04408 11.6665 5.03352C11.7068 5.00223 11.7558 4.98209 11.8078 4.97537C11.8598 4.96865 11.9127 4.97562 11.9607 4.99549C12.0074 5.02368 12.0469 5.06108 12.0764 5.10507C12.1059 5.14906 12.1248 5.19855 12.1316 5.25007C12.1904 5.56698 11.9471 5.85325 11.7264 6.05818C11.5058 6.26312 11.2443 6.46065 10.9524 6.53566C10.9338 6.53997 10.9145 6.54061 10.8956 6.53753C10.8768 6.53445 10.8588 6.52772 10.8429 6.51776C10.8271 6.50781 10.8136 6.49486 10.8034 6.47975C10.7932 6.46463 10.7865 6.44769 10.7837 6.43002H10.7656C10.7299 6.42947 10.6958 6.41591 10.6707 6.39222C10.6455 6.36854 10.6313 6.33661 10.631 6.30326C10.6313 6.29095 10.634 6.27879 10.6389 6.26734C10.5008 6.38248 10.313 6.21452 10.4442 6.09727ZM7.10802 10.0206C7.13027 9.8672 7.16816 9.71616 7.22119 9.56951C7.27172 9.42106 7.33649 9.27717 7.41471 9.13957C7.46897 9.03133 7.54593 8.93435 7.64105 8.85436C7.6597 8.84038 7.68183 8.83104 7.70539 8.82721C7.72895 8.82339 7.75317 8.8252 7.77577 8.83248C7.79838 8.83976 7.81864 8.85227 7.83466 8.86884C7.85069 8.88542 7.86194 8.90551 7.86739 8.92725C7.88824 8.91336 7.91307 8.90562 7.93868 8.90506C8.13673 8.91034 8.3823 8.94837 8.47737 9.13429C8.55772 9.2938 8.49547 9.47233 8.41625 9.62127C8.25719 9.89645 8.04679 10.1429 7.79496 10.3491C7.69133 10.4533 7.55436 10.5233 7.40453 10.5488C7.34247 10.5526 7.28086 10.5365 7.22985 10.5033C7.17884 10.4701 7.14147 10.4217 7.12387 10.366C7.08993 10.2551 7.08335 10.1384 7.10463 10.0248L7.10802 10.0206ZM19.2329 10.3797C17.6395 11.1562 16.0642 11.9579 14.4798 12.7555C13.02 13.4907 11.5639 14.2302 10.1115 14.9738C9.85689 15.1038 9.62716 15.277 9.36235 15.446C7.43848 13.2573 4.75072 11.9083 2.25082 10.1642L4.98385 8.71175C5.01667 8.9526 5.04722 9.10894 5.05741 9.26634C5.11173 10.1389 5.82243 10.9185 6.66667 11.0241C7.61728 11.1424 8.38683 10.629 8.76821 9.75649C9.00473 9.21035 8.81008 8.76457 8.6143 8.2966C8.46605 7.94061 8.08693 7.55715 8.16162 7.26137C8.22726 6.98672 8.75576 6.8082 9.08169 6.58847C9.10923 6.57216 9.13797 6.55769 9.1677 6.54516C10.1975 7.27299 11.5827 7.13989 12.187 6.0022C12.2986 5.78066 12.3693 5.54319 12.3964 5.29972C12.4677 4.75464 12.8559 4.54125 13.3595 4.84337C14.2761 5.39162 15.1883 5.95043 16.0665 6.5515C17.2219 7.34165 18.383 8.13604 19.4672 9.00648C20.3895 9.76071 20.3227 9.8505 19.2295 10.384L19.2329 10.3797Z" fill="#DF3021"/>
<path d="M3.03768 3.29261C3.04248 3.15742 3.06841 3.02361 3.11464 2.89542C3.46546 1.95104 4.05507 1.11017 4.6062 0.259807C4.80425 -0.0454798 5.05888 -0.119424 5.27277 0.247132C5.62925 0.855593 6.01063 1.45138 6.35013 2.06723C6.6704 2.65034 6.99972 3.21338 6.78131 3.88628C6.44746 4.91834 5.25919 5.34405 4.22143 5.01341C3.5062 4.78418 3.01052 3.99826 3.03768 3.29261ZM6.36371 3.52712C6.30373 3.37712 6.29355 3.23979 6.21999 3.19859C6.16957 3.18157 6.11532 3.17691 6.06241 3.18505C6.00951 3.19318 5.95973 3.21385 5.91783 3.24507C5.69387 3.50259 5.4911 3.77556 5.31125 4.06164C5.26258 4.14086 5.31124 4.36904 5.35877 4.38488C5.47194 4.4208 5.6847 4.41552 5.75034 4.34263C5.96983 4.08092 6.17456 3.80871 6.36371 3.52712Z" fill="#DF3021"/>
<path d="M8.37789 9.43231C8.15155 9.70273 7.92522 9.99323 7.67964 10.2605C7.63597 10.2902 7.58491 10.3091 7.53127 10.3154C7.47762 10.3217 7.42314 10.3152 7.37295 10.2964C7.33221 10.2636 7.30114 10.2217 7.28271 10.1745C7.26429 10.1274 7.25912 10.0766 7.26771 10.027C7.45238 9.71171 7.65879 9.40789 7.88561 9.11751C7.92938 9.08795 7.98042 9.06916 8.03402 9.06288C8.08763 9.0566 8.14206 9.06304 8.1923 9.08159C8.26812 9.11857 8.29415 9.25167 8.37789 9.43231Z" fill="white"/>
<path d="M6.3637 3.52716C6.17412 3.80806 5.969 4.07955 5.74919 4.34055C5.68356 4.41344 5.47419 4.41872 5.35763 4.38281C5.30557 4.36696 5.26144 4.13879 5.3101 4.05956C5.49041 3.77418 5.69356 3.50192 5.91782 3.24511C5.96005 3.21406 6.01013 3.19367 6.06324 3.1859C6.11636 3.17813 6.17072 3.18324 6.22111 3.20074C6.29353 3.24511 6.30372 3.37716 6.3637 3.52716Z" fill="white"/>
<path d="M8.36109 5.20778C8.36612 5.05924 8.39472 4.91222 8.44596 4.77151C8.83187 3.73311 9.47919 2.80774 10.0858 1.87392C10.3042 1.538 10.5803 1.45666 10.818 1.86019C11.2107 2.52781 11.6294 3.18275 12.0029 3.86093C12.3559 4.50214 12.7169 5.12011 12.477 5.86061C12.1092 6.99514 10.8033 7.4631 9.66253 7.09972C8.876 6.8483 8.33053 5.9842 8.36109 5.20778ZM12.0176 5.46342C11.9519 5.29757 11.9406 5.14651 11.8603 5.10215C11.8052 5.08239 11.7455 5.07638 11.6872 5.08472C11.6288 5.09305 11.5738 5.11545 11.5275 5.14968C11.2812 5.43294 11.058 5.73309 10.8599 6.04759C10.8067 6.13526 10.8542 6.38562 10.9119 6.40358C11.0409 6.44266 11.2707 6.43632 11.3431 6.3571C11.5839 6.07001 11.809 5.77174 12.0176 5.46342Z" fill="#DF3021"/>
<path d="M4.821 9.09935C4.82593 8.95546 4.85378 8.81305 4.90361 8.67681C5.27707 7.67115 5.90402 6.77536 6.48797 5.86901C6.6996 5.54365 6.96781 5.46548 7.19754 5.85633C7.57779 6.50388 7.98972 7.13769 8.34507 7.79475C8.68458 8.41588 9.03766 9.01484 8.80454 9.73105C8.44919 10.8307 7.18396 11.2849 6.0783 10.9321C5.31894 10.6881 4.79157 9.85147 4.821 9.09935ZM8.36318 9.3497C8.2998 9.18914 8.28849 9.04336 8.2104 9.00005C8.15689 8.98128 8.0991 8.9757 8.04261 8.98384C7.98612 8.99198 7.93282 9.01357 7.88787 9.04653C7.64905 9.3209 7.43302 9.61189 7.24168 9.91697C7.18962 10.0015 7.23602 10.2434 7.29147 10.2603C7.41709 10.2994 7.6389 10.293 7.70906 10.2159C7.94283 9.93781 8.16115 9.64869 8.36318 9.3497Z" fill="#DF3021"/>
</g>
<defs>
<clipPath id="clip0_1301_1294">
<rect width="22" height="20" fill="white"/>
</clipPath>
</defs>
</svg>
