<svg width="22" height="22" viewBox="0 0 22 22" fill="none" xmlns="http://www.w3.org/2000/svg">
<g clip-path="url(#clip0_1301_1261)">
<path d="M1.0818 2.27567C0.848945 2.30982 0.645995 2.45209 0.534376 2.65924L0.53437 2.65925C-0.527174 4.63006 -0.270105 7.1626 1.42676 8.85942C2.76116 10.1938 4.675 10.6889 6.44857 10.2351L6.75728 10.5438L0.874651 16.4265C-0.424482 17.7256 -0.425285 19.8255 0.874651 21.1255C2.17023 22.4211 4.27804 22.4212 5.57366 21.1255L5.50295 21.0548L5.57367 21.1255L11.4563 15.2428L11.765 15.5516C11.3122 17.3212 11.8034 19.236 13.1407 20.5734C14.8318 22.2645 17.3626 22.5313 19.3409 21.4657L19.2935 21.3777L19.3409 21.4657C19.5481 21.3541 19.6903 21.1511 19.7245 20.9183L19.7245 20.9183C19.7586 20.6855 19.6807 20.4502 19.5143 20.2838L17.0955 17.865C16.8832 17.6527 16.8832 17.3071 17.0955 17.095L17.0955 17.0949C17.3077 16.8827 17.6533 16.8827 17.8655 17.0949L20.2843 19.5137C20.2843 19.5137 20.2843 19.5137 20.2843 19.5137C20.4507 19.6802 20.6861 19.758 20.9188 19.7239L20.9189 19.7239C21.1517 19.6898 21.3547 19.5475 21.4663 19.3404L21.3783 19.2929L21.4663 19.3404C22.5278 17.3695 22.2708 14.837 20.574 13.1402C19.2395 11.8058 17.3257 11.3107 15.5521 11.7646L14.3318 10.5442L17.7096 7.16648L18.0946 7.5515C18.4354 7.8923 19.0091 7.82536 19.2595 7.4081L21.9939 2.85072C22.1697 2.55777 22.1235 2.18277 21.8819 1.94124L20.0589 0.118315C19.8174 -0.123279 19.4424 -0.169377 19.1495 0.0063278L19.1495 0.00633168L14.5921 2.74077C14.1766 2.99008 14.1068 3.56371 14.4487 3.90561L14.5194 3.8349L14.4487 3.90562L14.8337 4.29063L11.456 7.66838L10.2356 6.44804C10.6884 4.6784 10.1973 2.7636 8.85999 1.42623L8.78928 1.49694L8.85999 1.42623C7.16888 -0.264831 4.63802 -0.531659 2.65978 0.533929L2.65977 0.533935C2.4526 0.645561 2.3104 0.848514 2.2762 1.08134L2.2762 1.08136C2.24205 1.3142 2.31998 1.54947 2.4864 1.71589L4.90519 4.13468C5.11747 4.34696 5.11745 4.69252 4.9052 4.90469L4.90519 4.90471C4.69291 5.11698 4.34739 5.11701 4.13513 4.90471L4.13512 4.90471L1.71633 2.48588C1.54992 2.31947 1.31462 2.24148 1.0818 2.27567ZM1.0818 2.27567L1.09631 2.37461M1.0818 2.27567C1.08179 2.27567 1.08178 2.27568 1.08178 2.27568L1.09631 2.37461M1.09631 2.37461C1.29783 2.34501 1.50155 2.41251 1.64562 2.55659L4.06441 4.97542C4.31573 5.22678 4.72458 5.22674 4.9759 4.97542M1.09631 2.37461C0.894746 2.40418 0.719047 2.52733 0.622411 2.70668C-0.419363 4.64078 -0.166449 7.12483 1.49747 8.78871C2.82025 10.1115 4.72346 10.5936 6.47873 10.1238L4.9759 4.97542M4.9759 4.97542C5.22722 4.72418 5.22722 4.31529 4.9759 4.06397M4.9759 4.97542V4.06397M2.55711 1.64518C2.41304 1.50111 2.34558 1.29744 2.37514 1.09587L2.55711 1.64518ZM2.55711 1.64518L4.9759 4.06397M2.55711 1.64518L4.9759 4.06397M1.92752 17.4795L1.85681 17.4088L1.92752 17.4795L7.81011 11.5967L10.4033 14.1899L4.52075 20.0727C3.80588 20.7876 2.64244 20.7876 1.92752 20.0727C1.2101 19.3553 1.20966 18.1973 1.92752 17.4795ZM16.0426 18.9179L16.1133 18.8472L16.0426 18.9179L17.6488 20.5241C16.4167 20.8003 15.1178 20.4447 14.1936 19.5206C13.1705 18.4974 12.8229 16.9544 13.3085 15.5904C13.4049 15.3195 13.3368 15.0175 13.1335 14.8142C13.1335 14.8142 13.1335 14.8142 13.1335 14.8142L7.18593 8.86667C6.98313 8.66387 6.68125 8.59511 6.40984 8.6917L6.44336 8.78591L6.40983 8.6917C5.04574 9.17725 3.50276 8.82964 2.47962 7.80654C1.55544 6.88236 1.19983 5.58353 1.47607 4.35145L3.08225 5.95762C3.87515 6.75052 5.16513 6.75046 5.9581 5.95763L5.9581 5.95762C6.751 5.16472 6.75099 3.87474 5.95811 3.08177L5.9581 3.08176L4.35192 1.47558C5.58397 1.19927 6.88288 1.55495 7.80707 2.47914C8.83021 3.50227 9.17777 5.0453 8.69223 6.40935C8.59584 6.68015 8.66393 6.98223 8.86719 7.18545C8.8672 7.18545 8.8672 7.18545 8.8672 7.18546L14.8147 13.133C15.018 13.3362 15.3201 13.4043 15.5908 13.308L15.5908 13.3079C16.9548 12.8224 18.4979 13.17 19.521 14.1931C20.4453 15.1174 20.8009 16.4162 20.5246 17.6482L18.9185 16.0421C18.1256 15.2492 16.8356 15.2492 16.0426 16.0421L16.1133 16.1128L16.0426 16.0421C15.2497 16.835 15.2497 18.125 16.0426 18.9179ZM16.1759 3.52699L19.4171 1.58225L20.4179 2.58309L18.4732 5.82429L16.1759 3.52699ZM12.5088 8.72129L15.8866 5.34354L16.6566 6.11357L13.2789 9.49132L12.5088 8.72129Z" fill="#DF3021" stroke="#DF3021" stroke-width="0.2"/>
<path d="M8.37992 13.7493C8.12821 13.4976 7.72018 13.4976 7.46847 13.7493L3.53006 17.6878C3.27839 17.9395 3.27839 18.3476 3.53006 18.5993C3.78181 18.851 4.1898 18.851 4.44151 18.5993L8.37988 14.6607C8.63155 14.409 8.63155 14.001 8.37992 13.7493Z" fill="#DF3021"/>
</g>
<defs>
<clipPath id="clip0_1301_1261">
<rect width="22" height="22" fill="white"/>
</clipPath>
</defs>
</svg>
