<svg width="22" height="22" viewBox="0 0 22 22" fill="none" xmlns="http://www.w3.org/2000/svg">
<g clip-path="url(#clip0_1301_1287)">
<path d="M4.39679 -0.1H4.29679V0V4.3302H2.60986H2.32543L2.54728 4.5082L5.23213 6.66233L5.3026 6.71887L5.36597 6.65448L7.52185 4.46422L7.68933 4.29407H7.45058H6.04814V0V-0.1H5.94814H4.39679Z" fill="#DF3021" stroke="#DF3021" stroke-width="0.2"/>
<path d="M15.9984 -0.1H15.8984V0V4.3302H14.2114H13.927L14.1488 4.5082L16.8337 6.66233L16.9042 6.71887L16.9675 6.65448L19.1234 4.46422L19.2909 4.29407H19.0521H17.6497V0V-0.1H17.5497H15.9984Z" fill="#DF3021" stroke="#DF3021" stroke-width="0.2"/>
<path d="M10.18 2.49229H10.08V2.59229V6.92249H8.39307H8.10817L8.33057 7.10055L11.0154 9.25017L11.0859 9.30658L11.1492 9.24225L13.3051 7.05199L13.4725 6.88184H13.2338H11.8313V2.59229V2.49229H11.7313H10.18Z" fill="#DF3021" stroke="#DF3021" stroke-width="0.2"/>
<path d="M19.7635 15.1015L19.6907 15.033C19.7435 14.9768 19.8076 14.9325 19.8786 14.9031C19.9497 14.8737 20.0262 14.8598 20.103 14.8624C20.1798 14.865 20.2552 14.8841 20.3241 14.9183C20.3928 14.9523 20.4535 15.0006 20.5024 15.0599M19.7635 15.1015L20.3813 15.797M19.7635 15.1015L19.6913 15.0323C19.6114 15.1156 19.5246 15.1878 19.4329 15.2639L19.431 15.2655C19.3415 15.3398 19.2472 15.4181 19.1592 15.5097C19.0465 15.6186 18.908 15.6956 18.7573 15.7332C18.6071 15.7706 18.4499 15.7676 18.3012 15.7245C18.087 15.6458 17.8959 15.5131 17.7456 15.3388L17.7456 15.3387L17.7426 15.3355C17.4934 15.0709 17.2166 14.8345 16.9171 14.6305L16.9171 14.6305C16.6804 14.4695 16.4064 14.3741 16.122 14.3538C15.8377 14.3335 15.5531 14.3891 15.2965 14.515L15.2965 14.515L15.2957 14.5154C15.0056 14.661 14.7383 14.8494 14.5026 15.0743L14.5024 15.0742L14.4979 15.079C14.3096 15.284 14.1006 15.4684 13.8744 15.629C13.7198 15.734 13.5359 15.7847 13.3505 15.7738C13.1649 15.7629 12.9876 15.6907 12.8456 15.5678L12.8458 15.5677L12.8408 15.5639C12.6641 15.4295 12.4974 15.2822 12.3417 15.1232C12.1389 14.9008 11.8986 14.7169 11.6321 14.58C11.4399 14.4704 11.2269 14.4033 11.0071 14.3834C10.7866 14.3634 10.5644 14.3913 10.3554 14.4653L10.3553 14.4651L10.3491 14.4678C9.99376 14.6212 9.66595 14.8333 9.37895 15.0954L9.37876 15.0952L9.37372 15.1006C9.1628 15.3237 8.92693 15.5209 8.67094 15.6882C8.51672 15.7697 8.34219 15.8024 8.16965 15.7824C7.99577 15.7622 7.8317 15.6893 7.69884 15.5729C7.61418 15.4979 7.53032 15.4172 7.44521 15.3352L7.44488 15.3349C7.36157 15.2547 7.27698 15.1732 7.19205 15.0981C6.97206 14.8547 6.70785 14.6566 6.41383 14.5147L6.41369 14.5146C6.21893 14.421 6.00744 14.3685 5.79201 14.3602C5.57658 14.3519 5.36177 14.388 5.16057 14.4664L5.16055 14.4664L5.15777 14.4676C4.83136 14.6062 4.53247 14.8038 4.27556 15.0506C4.20886 15.1097 4.14518 15.1691 4.08185 15.2282C3.97374 15.3291 3.86665 15.429 3.74737 15.5248L3.74717 15.5246L3.74128 15.5302C3.57377 15.6886 3.3537 15.7764 3.12545 15.7764C2.89777 15.7764 2.67823 15.689 2.51088 15.5314C2.4932 15.5134 2.47549 15.4953 2.45771 15.4771C2.34847 15.3656 2.23608 15.2508 2.10418 15.1363C2.05215 15.0857 1.99064 15.046 1.92318 15.0196C1.85468 14.9928 1.78153 14.9804 1.7081 14.9829C1.63467 14.9855 1.56256 15.0031 1.49608 15.0347C1.4302 15.0659 1.37124 15.1102 1.32263 15.1648C1.27236 15.2179 1.23313 15.2806 1.20716 15.3491M19.7635 15.1015C19.8067 15.0556 19.859 15.0195 19.9169 14.9955C19.9748 14.9715 20.0371 14.9602 20.0996 14.9623C20.1621 14.9645 20.2235 14.98 20.2797 15.0079C20.3359 15.0357 20.3857 15.0753 20.4258 15.1241M20.5024 15.0599C20.6006 15.1752 20.6498 15.3249 20.6398 15.4764C20.6297 15.6282 20.5611 15.7701 20.4483 15.8712M20.5024 15.0599C20.5022 15.0596 20.502 15.0594 20.5018 15.0592L20.4258 15.1241M20.5024 15.0599C20.5026 15.0601 20.5028 15.0604 20.503 15.0606L20.4258 15.1241M20.4483 15.8712C20.4482 15.8713 20.4481 15.8714 20.448 15.8715L20.3813 15.797M20.4483 15.8712C20.4484 15.8711 20.4485 15.871 20.4487 15.8709L20.3813 15.797M20.4483 15.8712C20.3409 15.969 20.2291 16.0667 20.1203 16.1614L20.0906 16.1873C19.9919 16.2732 19.8964 16.3564 19.8082 16.4358M20.3813 15.797C20.2649 15.9029 20.1432 16.0089 20.0249 16.1119C19.9264 16.1977 19.8301 16.2815 19.7412 16.3615M19.8082 16.4358C19.8082 16.4357 19.8083 16.4357 19.8083 16.4356L19.7412 16.3615M19.8082 16.4358C19.484 16.729 19.0614 16.8854 18.627 16.8724L18.4791 16.868L18.4964 16.8282M19.8082 16.4358L19.7412 16.3615M19.7412 16.3615L18.4964 16.8282M18.4964 16.8282C18.0747 16.8015 17.6713 16.6369 17.3479 16.3569C17.1556 16.2019 16.9744 16.0331 16.8057 15.8519C16.6916 15.7315 16.5614 15.628 16.4191 15.5445L16.4125 15.5407L16.4127 15.5405C16.3134 15.4716 16.1961 15.4349 16.0763 15.4349C15.9564 15.4349 15.8391 15.4716 15.7398 15.5405L15.7353 15.5436L15.7353 15.5435C15.611 15.6199 15.4947 15.7092 15.3883 15.8098C15.2112 15.989 15.0241 16.1578 14.828 16.3154C14.5437 16.5771 14.1902 16.749 13.8107 16.8098C13.4306 16.8706 13.0412 16.8172 12.6907 16.6561C12.5185 16.5824 12.3594 16.4804 12.2198 16.3545L11.6421 15.8352L11.6376 15.8312L11.6377 15.8311C11.5311 15.7229 11.4141 15.6258 11.2886 15.5412L11.2816 15.5365L11.2818 15.5363C11.1898 15.4624 11.0778 15.4192 10.9611 15.4123C10.8444 15.4055 10.7283 15.4353 10.6286 15.4978L10.6281 15.4982C10.4185 15.6278 10.2252 15.783 10.0527 15.9603C9.8243 16.2116 9.55622 16.4225 9.25942 16.5844C8.96345 16.7524 8.62992 16.8407 8.29066 16.8407C7.95109 16.8407 7.61727 16.7522 7.32111 16.5839L7.31676 16.5814L7.31682 16.5813C7.06091 16.4185 6.82616 16.2237 6.61804 16.0015C6.45987 15.8386 6.28643 15.6918 6.10019 15.5632L6.09799 15.5616L6.09801 15.5616C6.00842 15.4961 5.90258 15.4579 5.79274 15.4511C5.68374 15.4443 5.575 15.4688 5.47887 15.5219C5.28407 15.6442 5.1046 15.7902 4.94442 15.9567L4.93916 15.9621L4.93897 15.9619C4.89663 15.9997 4.85467 16.0386 4.81199 16.0782C4.71383 16.1692 4.6119 16.2637 4.49305 16.3562C4.2506 16.585 3.95531 16.7484 3.6342 16.8312C3.31148 16.9144 2.97326 16.9135 2.65099 16.8285L2.64933 16.8281L2.64933 16.828C2.38438 16.7533 2.13523 16.6299 1.91416 16.4641L1.91248 16.4628L1.9125 16.4628C1.71326 16.3067 1.52487 16.1368 1.34868 15.9544C1.29538 15.9052 1.25229 15.8458 1.22189 15.7796C1.19102 15.7125 1.17385 15.6398 1.17132 15.5659C1.1688 15.4919 1.18097 15.4182 1.20716 15.3491M18.4964 16.8282L1.20716 15.3491M1.20716 15.3491L20.4258 15.1241" fill="#DF3021" stroke="#DF3021" stroke-width="0.2"/>
<path d="M6.19276 19.4186L6.13105 19.4973C6.31436 19.6411 6.48818 19.7969 6.6514 19.9639C6.83635 20.1917 7.06186 20.3824 7.31627 20.5258C7.58761 20.6861 7.89293 20.7781 8.20665 20.7938C8.52072 20.8096 8.83387 20.7485 9.11974 20.6157L9.11974 20.6157L9.12074 20.6153C9.46525 20.4507 9.77673 20.2228 10.0395 19.9432L10.0406 19.9421C10.1933 19.7745 10.3673 19.6284 10.558 19.5076L10.5582 19.5078L10.5637 19.5037C10.6764 19.4209 10.8133 19.3798 10.9518 19.3868C11.0903 19.3939 11.2225 19.4487 11.3266 19.5425L11.3262 19.5429L11.3347 19.5491C11.4776 19.6531 11.6067 19.7732 11.7366 19.8996C11.7643 19.9264 11.792 19.9537 11.8199 19.9811C11.9216 20.0809 12.0258 20.1832 12.1357 20.2788C12.4899 20.6074 12.9501 20.7937 13.4303 20.8025C13.9104 20.8113 14.3768 20.6419 14.7424 20.3265C14.9565 20.1552 15.1595 19.9702 15.3504 19.7727C15.4586 19.6608 15.5815 19.5647 15.7154 19.4871L15.7155 19.4872L15.72 19.4843C15.8154 19.422 15.9255 19.3873 16.0386 19.3839C16.1507 19.3805 16.2616 19.4079 16.3597 19.4633C16.5103 19.5629 16.6528 19.6744 16.7861 19.7968C16.9546 19.9768 17.1343 20.1456 17.3241 20.3022C17.6379 20.5935 18.0386 20.767 18.4599 20.7969L18.4279 20.8525L18.5974 20.8553C19.0978 20.8638 19.5839 20.6869 19.9651 20.3583C20.1818 20.1871 20.3897 20.0048 20.5879 19.812C20.6988 19.7104 20.766 19.5692 20.776 19.4186C20.786 19.2674 20.7375 19.1179 20.6404 19.0021L20.6404 19.0021L20.6392 19.0007C20.5903 18.9446 20.5306 18.899 20.4636 18.867C20.3966 18.8349 20.3239 18.8171 20.2498 18.8145C20.1757 18.8119 20.1019 18.8246 20.0329 18.8519C19.9639 18.8792 19.9012 18.9205 19.8486 18.973L19.848 18.9736C19.6815 19.1428 19.5146 19.2946 19.3418 19.4476L19.3416 19.4474L19.3366 19.4525C19.1902 19.6019 18.9985 19.6963 18.7929 19.7206C18.5874 19.745 18.3797 19.698 18.2037 19.5871C18.0458 19.4864 17.9036 19.3621 17.7819 19.2185L17.7821 19.2183L17.777 19.2132C17.5575 18.9889 17.3159 18.7881 17.0559 18.614C16.8237 18.4462 16.5514 18.3447 16.2672 18.3202C15.9832 18.2956 15.698 18.3489 15.4413 18.4742C15.1344 18.6063 14.8557 18.7974 14.6205 19.0369L14.6203 19.037C14.4285 19.233 14.2191 19.4103 13.9948 19.5667C13.8435 19.6702 13.664 19.7223 13.482 19.7158C13.2999 19.7093 13.1243 19.6443 12.9804 19.53L12.9805 19.5299L12.9772 19.5276C12.7993 19.3974 12.6333 19.2509 12.4816 19.09C12.3282 18.9098 12.1504 18.7526 11.9534 18.6233C11.6606 18.4028 11.3045 18.2857 10.9396 18.29C10.5748 18.2943 10.2216 18.4199 9.93391 18.6472C9.72541 18.7904 9.52929 18.9513 9.34765 19.1283C9.29097 19.1777 9.23352 19.2316 9.17715 19.2844C9.17063 19.2905 9.16413 19.2966 9.15764 19.3027C9.09367 19.3626 9.031 19.4208 8.96883 19.473L8.96881 19.473L8.96655 19.475C8.79506 19.6283 8.57379 19.7109 8.34599 19.7071C8.11818 19.7034 7.89965 19.6135 7.73311 19.4546L7.73322 19.4545L7.7291 19.451C7.62792 19.3644 7.53615 19.2774 7.44103 19.1871C7.37848 19.1277 7.31449 19.067 7.24542 19.0042C7.02487 18.7685 6.76181 18.5779 6.47043 18.4428L6.47047 18.4427L6.46638 18.441C6.18553 18.3255 5.87995 18.2859 5.57944 18.326L5.57941 18.3258L5.57295 18.3271C5.17383 18.4073 4.80403 18.5967 4.50337 18.8746C4.44768 18.9235 4.38861 18.9746 4.3276 19.0274C4.17703 19.1577 4.01463 19.2982 3.86206 19.4403L3.86202 19.4402L3.85977 19.4425C3.68402 19.6169 3.44843 19.7142 3.20343 19.7142C2.95843 19.7142 2.72285 19.6169 2.5471 19.4425L2.5473 19.4423L2.54161 19.4374C2.40243 19.3185 2.27017 19.1916 2.14549 19.0571L2.14569 19.0569L2.14019 19.0518C2.03497 18.9541 1.89589 18.902 1.75282 18.9072C1.6105 18.9124 1.47615 18.9738 1.37826 19.0778C1.28208 19.1728 1.22413 19.3004 1.21518 19.4358C1.20618 19.5719 1.24731 19.7068 1.33092 19.8142L1.33108 19.8144C1.61495 20.1772 1.9766 20.4695 2.3886 20.6692L2.38856 20.6693L2.39256 20.671C2.73272 20.8179 3.10644 20.8659 3.472 20.8096C3.83729 20.7534 4.17986 20.5952 4.46158 20.353C4.55223 20.2773 4.63515 20.1941 4.71213 20.1159C4.71844 20.1095 4.72471 20.1031 4.73093 20.0968C4.80201 20.0245 4.86754 19.9579 4.9336 19.9006L4.93391 19.901L4.94058 19.894C5.1001 19.7262 5.28005 19.58 5.47603 19.4587C5.57651 19.3976 5.6926 19.3687 5.80924 19.3755C5.92599 19.3824 6.03819 19.4248 6.13122 19.4974L6.19276 19.4186ZM6.19276 19.4186C6.08384 19.3336 5.95225 19.2838 5.8151 19.2757C5.67796 19.2677 5.5416 19.3017 5.42375 19.3735L7.36628 20.4392C7.12119 20.3012 6.90401 20.1173 6.72618 19.8973C6.55896 19.726 6.38076 19.5661 6.19276 19.4186ZM2.43221 20.5792C2.03403 20.3863 1.68437 20.1036 1.40983 19.7528L2.43221 20.5792Z" fill="#DF3021" stroke="#DF3021" stroke-width="0.2"/>
<path d="M15.6249 10.5042C15.83 10.4256 16.0497 10.3945 16.2682 10.4133C16.4866 10.432 16.6981 10.5001 16.8873 10.6126C17.1411 10.7475 17.371 10.9246 17.5674 11.1364M15.6249 10.5042L15.4408 11.8182M15.6249 10.5042C15.2906 10.6329 14.9874 10.8331 14.7359 11.0913C14.5634 11.2883 14.3728 11.4682 14.1669 11.6287C14.0365 11.7351 13.8821 11.8069 13.7176 11.8376C13.5531 11.8684 13.3837 11.8571 13.2245 11.8048L15.6249 10.5042ZM17.5674 11.1364C17.5889 11.1575 17.6104 11.1787 17.6319 11.1999C17.7393 11.3059 17.8467 11.4119 17.9541 11.5022C18.1431 11.7002 18.4006 11.8155 18.6719 11.824C18.9432 11.8324 19.2071 11.7332 19.4077 11.5474C19.4447 11.5137 19.4817 11.4803 19.5186 11.447C19.6498 11.3285 19.7786 11.2121 19.8966 11.0958M17.5674 11.1364L17.6374 11.065C17.638 11.0656 17.6385 11.0661 17.6391 11.0667M17.5674 11.1364L17.6407 11.0684C17.6402 11.0679 17.6396 11.0673 17.6391 11.0667M19.8966 11.0958C19.9383 11.0446 19.9907 11.0035 20.0498 10.9752C20.109 10.947 20.1735 10.9323 20.2389 10.9323C20.3043 10.9323 20.3689 10.947 20.428 10.9752C20.4872 11.0035 20.5395 11.0446 20.5812 11.0958C20.6228 11.1461 20.6537 11.2047 20.6721 11.2677C20.6905 11.3307 20.6959 11.3969 20.688 11.4622C20.68 11.5274 20.659 11.5903 20.6261 11.647C20.5932 11.7036 20.5491 11.7527 20.4967 11.7913M19.8966 11.0958L19.8191 11.0326C19.8203 11.0311 19.8216 11.0296 19.8228 11.0282M19.8966 11.0958L19.8264 11.0246C19.8252 11.0258 19.824 11.027 19.8228 11.0282M20.4967 11.7913L19.9811 12.2429M20.4967 11.7913L20.5626 11.8665L20.5596 11.8691M20.4967 11.7913L20.556 11.8718C20.5572 11.8709 20.5584 11.87 20.5596 11.8691M19.9811 12.2429C19.6313 12.5584 19.1798 12.7326 18.712 12.7326C18.2443 12.7326 17.7927 12.5584 17.4429 12.2429M19.9811 12.2429L20.0481 12.3171L20.5596 11.8691M19.9811 12.2429L20.047 12.3181L20.0475 12.3176C19.6796 12.6493 19.2045 12.8326 18.712 12.8326C18.2195 12.8326 17.7444 12.6492 17.3764 12.3175M17.4429 12.2429C17.2474 12.0712 17.0784 11.9177 16.9051 11.7461C16.7736 11.6159 16.6238 11.5063 16.4606 11.4209C16.3497 11.353 16.2214 11.3206 16.0921 11.3278C15.9629 11.3351 15.8388 11.3817 15.736 11.4616C15.6063 11.5451 15.4843 11.6403 15.3715 11.7461M17.4429 12.2429L17.377 12.318C17.3768 12.3179 17.3766 12.3177 17.3764 12.3175M17.4429 12.2429L17.376 12.3171C17.3761 12.3172 17.3763 12.3174 17.3764 12.3175M15.3715 11.7461C15.1759 11.9386 14.9697 12.1195 14.7537 12.288C14.4867 12.5198 14.1611 12.6711 13.8138 12.7245C13.4666 12.778 13.1115 12.7316 12.7889 12.5906C12.582 12.5066 12.3933 12.3823 12.2333 12.2248C12.1391 12.1371 12.0493 12.0503 11.96 11.964C11.8469 11.8547 11.7346 11.7462 11.6154 11.6377C11.4826 11.5201 11.3327 11.4241 11.1709 11.3532C11.0822 11.3268 10.989 11.3192 10.8973 11.3309C10.8055 11.3425 10.7171 11.3732 10.6375 11.4209C10.4279 11.5376 10.2399 11.6904 10.0818 11.8725C9.84587 12.1312 9.57139 12.3507 9.2684 12.5228C8.98804 12.6827 8.67196 12.7666 8.35049 12.7666C8.02901 12.7666 7.71293 12.6827 7.43257 12.5228C7.18393 12.3805 6.96014 12.1974 6.77024 11.9809C6.59326 11.8118 6.4078 11.652 6.2146 11.5022C6.10372 11.4117 5.96755 11.359 5.82548 11.3517C5.68341 11.3444 5.54268 11.3829 5.42338 11.4616C5.22533 11.5951 5.03938 11.7462 4.86774 11.9132C4.81585 11.9568 4.76469 12.007 4.71222 12.0585C4.63433 12.135 4.55355 12.2142 4.46325 12.279L4.53012 12.3533C4.52876 12.3546 4.5274 12.3558 4.52604 12.357M15.3715 11.7461L15.4417 11.8174C15.4414 11.8176 15.4411 11.8179 15.4408 11.8182M15.3715 11.7461L15.4399 11.819C15.4402 11.8188 15.4405 11.8185 15.4408 11.8182M4.52604 12.357C4.16021 12.6842 3.68786 12.8627 3.19979 12.8577L3.07353 12.8564L3.07825 12.8372C2.66223 12.8162 2.2614 12.6667 1.93012 12.4074L1.92533 12.4037L1.92545 12.4035L1.91214 12.3917C1.7446 12.2434 1.5783 12.0961 1.40765 11.9229C1.35318 11.8753 1.30861 11.8173 1.27646 11.7522C1.24367 11.6859 1.22445 11.6136 1.2199 11.5396C1.21535 11.4657 1.22555 11.3915 1.24994 11.3216C1.27432 11.2516 1.3124 11.1873 1.36197 11.1326L1.36519 11.129L1.36527 11.1291C1.47207 11.0219 1.61649 10.9615 1.76729 10.9615C1.9181 10.9615 2.0625 11.0219 2.16929 11.1291L2.17188 11.1317L2.17183 11.1317C2.29009 11.2594 2.41509 11.3805 2.54628 11.4945L2.54956 11.4973L2.5495 11.4974C2.71165 11.651 2.92381 11.7379 3.14491 11.7416C3.366 11.7454 3.58086 11.6657 3.74794 11.5177L3.75155 11.5145L3.75162 11.5146C3.93944 11.3637 4.12775 11.1948 4.32279 11.0191C4.64962 10.6844 5.06792 10.4566 5.52381 10.3655L5.52409 10.3654C5.84842 10.3016 6.1844 10.3509 6.4775 10.5052C6.75518 10.6394 7.01352 10.8114 7.24542 11.0163L7.25064 11.021L7.25047 11.0211C7.31057 11.0822 7.37335 11.1386 7.43929 11.1978C7.45332 11.2104 7.46749 11.2232 7.48181 11.2361C7.56167 11.3082 7.64452 11.3852 7.72347 11.4746C7.89464 11.647 8.12562 11.7435 8.36605 11.7435C8.60737 11.7435 8.83916 11.6463 9.01053 11.4726L9.01594 11.4671L9.01614 11.4674C9.14733 11.3534 9.27235 11.2324 9.39061 11.1046L9.39566 11.0992L9.39585 11.0994C9.62908 10.8823 9.888 10.6954 10.1667 10.5432C10.4403 10.3891 10.751 10.3159 11.0637 10.332C11.3765 10.3482 11.6786 10.4531 11.9354 10.6348L11.9385 10.637L11.9384 10.637C12.2125 10.8467 12.4726 11.0743 12.7173 11.3186L12.7189 11.3202L12.7189 11.3202C12.8749 11.4831 13.0588 11.6157 13.2615 11.7116C13.403 11.7571 13.5533 11.7666 13.6992 11.7393C13.8472 11.7117 13.9862 11.6471 14.1037 11.5512L14.1054 11.5498L14.1054 11.5498C14.3064 11.3932 14.4923 11.2176 14.6606 11.0254L14.6641 11.0214L14.6642 11.0215C14.9257 10.7531 15.2411 10.5448 15.589 10.4109L15.5891 10.4108C15.8083 10.3268 16.0432 10.2936 16.2767 10.3136C16.5094 10.3336 16.7348 10.406 16.9363 10.5254C17.1985 10.6651 17.436 10.848 17.6391 11.0667M4.52604 12.357C4.60627 12.2989 4.67819 12.2314 4.74357 12.1678C4.75725 12.1544 4.77055 12.1414 4.78357 12.1286C4.83576 12.0774 4.88344 12.0306 4.93209 11.9897L4.93226 11.9899L4.93747 11.9849C5.10473 11.8221 5.2859 11.6749 5.47883 11.5448C5.58034 11.478 5.69985 11.4454 5.82035 11.4516C5.94101 11.4578 6.05685 11.5025 6.15136 11.5797L6.15134 11.5797L6.15334 11.5813C6.34267 11.728 6.52447 11.8846 6.69803 12.0502C6.89454 12.2735 7.1259 12.4625 7.38288 12.6096L7.38305 12.6097C7.67843 12.7781 8.01157 12.8666 8.35049 12.8666C8.68935 12.8666 9.02245 12.7781 9.31781 12.6098C9.62997 12.4324 9.91271 12.2063 10.1557 11.9399L10.1558 11.9399L10.1574 11.9381C10.3079 11.7647 10.4868 11.6193 10.6861 11.5083L10.6862 11.5083L10.6889 11.5067C10.7567 11.466 10.8319 11.44 10.9099 11.4301C10.9858 11.4204 11.0629 11.4263 11.1366 11.4474C11.2863 11.5137 11.4253 11.603 11.5486 11.7121C11.6682 11.821 11.7772 11.9263 11.8881 12.0336C11.9767 12.1193 12.0666 12.2062 12.1641 12.297C12.3329 12.4629 12.5319 12.5939 12.7501 12.6827C13.0897 12.8309 13.4635 12.8797 13.8291 12.8234C14.1942 12.7671 14.5364 12.6084 14.8172 12.3653L4.52604 12.357ZM17.6391 11.0667C17.6605 11.0877 17.6818 11.1087 17.703 11.1296C17.8104 11.2356 17.9144 11.3382 18.0185 11.4257L18.0269 11.4328L18.0264 11.4332C18.1975 11.6123 18.4302 11.7164 18.675 11.724C18.9198 11.7316 19.1583 11.6421 19.3397 11.474L19.3404 11.4734C19.378 11.4392 19.4154 11.4054 19.4525 11.3719C19.5821 11.2549 19.7075 11.1416 19.8228 11.0282M19.8228 11.0282C19.8731 10.9677 19.9359 10.9188 20.0067 10.885C20.0793 10.8503 20.1586 10.8323 20.2389 10.8323C20.3192 10.8323 20.3985 10.8503 20.4711 10.885C20.5436 10.9196 20.6075 10.9699 20.6585 11.0323C20.7087 11.0932 20.746 11.1638 20.7681 11.2397C20.7903 11.3158 20.7968 11.3956 20.7872 11.4743C20.7777 11.5529 20.7523 11.6288 20.7125 11.6972C20.6735 11.7643 20.6215 11.8228 20.5596 11.8691M17.3764 12.3175C17.1803 12.1454 17.0099 11.9905 16.8347 11.8172L16.8347 11.8171C16.7103 11.6939 16.5686 11.5903 16.4142 11.5095L16.4082 11.5064L16.4083 11.5062C16.3148 11.4489 16.2065 11.4216 16.0977 11.4277C15.9889 11.4338 15.8843 11.473 15.7974 11.5405L15.7904 11.546L15.7902 11.5457C15.6659 11.6257 15.549 11.7169 15.4408 11.8182" fill="#DF3021" stroke="#DF3021" stroke-width="0.2"/>
</g>
<defs>
<clipPath id="clip0_1301_1287">
<rect width="22" height="22" fill="white"/>
</clipPath>
</defs>
</svg>
